{
.appVersion = "3058";
.formatVersion = 3;
axes = (
{
name = Weight;
tag = wght;
}
);
customParameters = (
{
name = "Variable Font File Name";
value = "Hundred-Latin-Variable.ttf";
},
{
name = "Variable Font Family Name";
value = "Hundred Latin Variable";
}
);
date = "2021-05-13 13:31:33 +0000";
familyName = "Hundred Latin";
featurePrefixes = (
{
automatic = 1;
code = "languagesystem DFLT dflt;

languagesystem latn dflt;
languagesystem latn NLD;
";
name = Languagesystems;
}
);
features = (
{
automatic = 1;
code = "feature locl;
feature subs;
feature sinf;
feature sups;
feature ordn;
feature pnum;
feature tnum;
feature c2sc;
feature smcp;
feature case;
feature calt;
";
tag = aalt;
},
{
automatic = 1;
code = "lookup ccmp_Other_1 {
	@CombiningTopAccents = [acutecomb almostequaltoabovecomb brevecomb breveinvertedcomb caroncomb circumflexcomb dblgravecomb dieresiscomb dotaccentcomb gbridgeabovecomb gravecomb homotheticabovecomb hookabovecomb hungarumlautcomb leftangleabovecomb lefthalfringabovecomb macroncomb nottildeabovecomb righthalfringabovecomb ringcomb tildecomb verticallineabovecomb xabovecomb];
	@CombiningNonTopAccents = [arrowdoublerightbelowcomb arrowleftrightbelowcomb arrowupbelowcomb breveinvertedbelowcomb bridgebelowcomb bridgeinvertedbelowcomb caronbelowcomb cedillacomb dieresisbelowcomb dotbelowcomb doublebrevebelowcomb doubleverticallinebelowcomb downtackbelowcomb equalbelowcomb leftanglebelowcomb lefttackbelowcomb lowlinecomb minusbelowcomb plusbelowcomb righttackbelowcomb ringbelowcomb ringhalfleftbelowcomb ringhalfrightbelowcomb seagullbelowcomb squarebelowcomb tildebelowcomb uptackbelowcomb verticallinebelowcomb breveinverteddoublecomb horncomb strokeshortcomb tildeoverlaycomb];
	sub [i j]' @CombiningTopAccents by [idotless jdotless];
	sub [i j]' @CombiningNonTopAccents @CombiningTopAccents by [idotless jdotless];
} ccmp_Other_1;

lookup ccmp_latn_1 {
	lookupflag 0;
	sub brevecomb acutecomb by brevecomb_acutecomb;

glyphs = (
{
glyphname = A;
lastChange = "2021-05-13 07:11:52 +0000";
layers = (
{
anchors = (
{
name = bottom;
pos = (300,-386);
},
{
name = top;
pos = (300,1844);
}
);
layerId = m01;
shapes = (
{
attr = {
lineCapEnd = 1;
lineCapStart = 1;
strokeWidth = 5;
};
closed = 0;
nodes = (
(450,0,l),
(450,150,l),
(450,386,l),
(450,622,l),
(450,772,l),
(450,922,l),
(450,1158,l),
(450,1394,ls),
(450,1477,o),
(382,1544,o),
(300,1544,cs),
(217,1544,o),
(150,1476,o),
(150,1394,cs),
(150,1158,l),
(150,922,l),
(150,772,l),
(150,622,l),
(150,386,l),
(150,150,l),
(150,0,l)
);
},
{
attr = {
lineCapEnd = 1;
lineCapStart = 1;
strokeWidth = 5;
};
closed = 0;
nodes = (
(450,772,l),
(300,772,l),
(150,772,l)
);
}
);
width = 600;
},
{
anchors = (
{
name = bottom;
pos = (300,-386);
},
{
name = top;
pos = (300,1844);
}
);
layerId = "9BAD4174-69FD-4AED-8503-BDDB7C515042";
shapes = (
{
attr = {
lineCapEnd = 1;
lineCapStart = 1;
strokeWidth = 50;
};
closed = 0;
nodes = (
(450,0,l),
(450,150,l),
(450,386,l),
(450,622,l),
(450,772,l),
(450,922,l),
(450,1158,l),
(450,1394,ls),
(450,1477,o),
(382,1544,o),
(300,1544,cs),
(217,1544,o),
(150,1476,o),
(150,1394,cs),
(150,1158,l),
(150,922,l),
(150,772,l),
(150,622,l),
(150,386,l),
(150,150,l),
(150,0,l)
);
},
{
attr = {
lineCapEnd = 1;
lineCapStart = 1;
strokeWidth = 50;
};
closed = 0;
nodes = (
(450,772,l),
(300,772,l),
(150,772,l)
);
}
);
width = 600;
}
);
unicode = 65;
},
{
glyphname = AE;
lastChange = "2021-05-13 07:11:52 +0000";
layers = (
{
anchors = (
{
name = bottom;
pos = (450,-386);
},
{
name = top;
pos = (450,1844);
}
);
layerId = m01;
shapes = (
{
alignment = -1;
pos = (300,0);
ref = E;
},
{
attr = {
lineCapEnd = 1;
lineCapStart = 1;
strokeWidth = 5;
};
closed = 0;
nodes = (
(450,772,l),
(300,772,l),
(150,772,l)
);
},
{
attr = {
lineCapEnd = 1;
lineCapStart = 1;
strokeWidth = 5;
};
closed = 0;
nodes = (
(450,1544,l),
(300,1544,ls),
(217,1544,o),
(150,1476,o),
(150,1394,cs),
(150,1158,l),
(150,922,l),
(150,772,l),
(150,622,l),
(150,386,l),
(150,150,l),
(150,0,l)
);
}
);
width = 900;
},
{
anchors = (
{
name = bottom;
pos = (450,-386);
},
{
name = top;
pos = (450,1844);
}
);
layerId = "9BAD4174-69FD-4AED-8503-BDDB7C515042";
shapes = (
{
alignment = -1;
pos = (300,0);
ref = E;
},
{
attr = {
lineCapEnd = 1;
lineCapStart = 1;
strokeWidth = 50;
};
closed = 0;
nodes = (
(450,772,l),
(300,772,l),
(150,772,l)
);
},
{
attr = {
lineCapEnd = 1;
lineCapStart = 1;
strokeWidth = 50;
};
closed = 0;
nodes = (
(450,1544,l),
(300,1544,ls),
(217,1544,o),
(150,1476,o),
(150,1394,cs),
(150,1158,l),
(150,922,l),
(150,772,l),
(150,622,l),
(150,386,l),
(150,150,l),
(150,0,l)
);
}
);
width = 900;
}
);
unicode = 198;
},
{
glyphname = B;
lastChange = "2021-05-13 07:11:52 +0000";
layers = (
{
anchors = (
{
name = bottom;
pos = (300,-386);
},
{
name = top;
pos = (300,1844);
}
);
layerId = m01;
shapes = (
{
attr = {
lineCapEnd = 1;
lineCapStart = "1";
strokeWidth = 5;
};
closed = 0;
nodes = (
(150,772,l)
);
},
{
attr = {
lineCapEnd = 1;
lineCapStart = 1;
strokeWidth = 5;
};
closed = 0;
nodes = (
(450,622,ls),
(450,705,o),
(382,772,o),
(300,772,cs)
);
},
{
attr = {
lineCapEnd = 1;
lineCapStart = 1;
strokeWidth = 5;
};
closed = 0;
nodes = (
(450,150,ls),
(450,68,o),
(383,1,o),
(300,0,cs),
(150,0,l),
(150,150,l),
(150,386,l),
(150,622,l),
(150,772,l),
(150,922,l),
(150,1158,l),
(150,1394,l),
(150,1544,l),
(300,1544,l)
);
},
{
attr = {
lineCapEnd = 1;
lineCapStart = 1;
strokeWidth = 5;
};
closed = 0;
nodes = (
(300,772,l),
(150,772,l)
);
},
{
attr = {
lineCapEnd = 1;
lineCapStart = 1;
strokeWidth = 5;
};
closed = 0;
nodes = (
(450,150,l),
(450,386,l),
(450,622,l)
);
},
{
attr = {
lineCapEnd = 1;
lineCapStart = 1;
strokeWidth = 5;
};
closed = 0;
nodes = (
(450,1394,ls),
(450,1477,o),
(382,1544,o),
(300,1544,cs)
);
},
{
attr = {
lineCapEnd = 1;
lineCapStart = 1;
strokeWidth = 5;
};
closed = 0;
nodes = (
(450,922,ls),
(450,840,o),
(383,773,o),
(300,772,cs)
);
},
{
attr = {
lineCapEnd = 1;
lineCapStart = 1;
strokeWidth = 5;
};
closed = 0;
nodes = (
(450,922,l),
(450,1158,l),
(450,1394,l)
);
}
);
width = 600;
},
{
anchors = (
{
name = bottom;
pos = (300,-386);
},
{
name = top;
pos = (300,1844);
}
);
layerId = "9BAD4174-69FD-4AED-8503-BDDB7C515042";
shapes = (
{
attr = {
lineCapEnd = 1;
lineCapStart = "1";
strokeWidth = 50;
};
closed = 0;
nodes = (
(150,772,l)
);
},
{
attr = {
lineCapEnd = 1;
lineCapStart = 1;
strokeWidth = 50;
};
closed = 0;
nodes = (
(450,622,ls),
(450,705,o),
(382,772,o),
(300,772,cs)
);
},
{
attr = {
lineCapEnd = 1;
lineCapStart = 1;
strokeWidth = 50;
};
closed = 0;
nodes = (
(450,150,ls),
(450,68,o),
(383,1,o),
(300,0,cs),
(150,0,l),
(150,150,l),
(150,386,l),
(150,622,l),
(150,772,l),
(150,922,l),
(150,1158,l),
(150,1394,l),
(150,1544,l),
(300,1544,l)
);
},
{
attr = {
lineCapEnd = 1;
lineCapStart = 1;
strokeWidth = 50;
};
closed = 0;
nodes = (
(300,772,l),
(150,772,l)
);
},
{
attr = {
lineCapEnd = 1;
lineCapStart = 1;
strokeWidth = 50;
};
closed = 0;
nodes = (
(450,150,l),
(450,386,l),
(450,622,l)
);
},
{
attr = {
lineCapEnd = 1;
lineCapStart = 1;
strokeWidth = 50;
};
closed = 0;
nodes = (
(450,1394,ls),
(450,1477,o),
(382,1544,o),
(300,1544,cs)
);
},
{
attr = {
lineCapEnd = 1;
lineCapStart = 1;
strokeWidth = 50;
};
closed = 0;
nodes = (
(450,922,ls),
(450,840,o),
(383,773,o),
(300,772,cs)
);
},
{
attr = {
lineCapEnd = 1;
lineCapStart = 1;
strokeWidth = 50;
};
closed = 0;
nodes = (
(450,922,l),
(450,1158,l),
(450,1394,l)
);
}
);
width = 600;
}
);
unicode = 66;
},
{
glyphname = C;
lastChange = "2021-05-13 07:11:52 +0000";
layers = (
{
anchors = (
{
name = bottom;
pos = (300,-386);
},
{
name = cedilla;
pos = (300,0);
},
{
name = top;
pos = (300,1844);
}
);
layerId = m01;
shapes = (
{
attr = {
lineCapEnd = 1;
lineCapStart = 1;
strokeWidth = 5;
};
closed = 0;
nodes = (
(450,150,ls),
(450,68,o),
(384,1,o),
(300,0,cs),
(217,0,o),
(150,67,o),
(150,150,cs)
);
},
{
attr = {
lineCapEnd = 1;
lineCapStart = 1;
strokeWidth = 5;
};
closed = 0;
nodes = (
(150,772,l),
(150,622,l),
(150,386,l),
(150,150,l)
);
},
{
attr = {
lineCapEnd = 1;
lineCapStart = 1;
strokeWidth = 5;
};
closed = 0;
nodes = (
(450,1394,ls),
(450,1477,o),
(382,1544,o),
(300,1544,cs),
(217,1544,o),
(150,1476,o),
(150,1394,cs)
);
},
{
attr = {
lineCapEnd = 1;
lineCapStart = 1;
strokeWidth = 5;
};
closed = 0;
nodes = (
(150,1394,l),
(150,1158,l),
(150,922,l),
(150,772,l)
);
}
);
width = 600;
},
{
anchors = (
{
name = bottom;
pos = (300,-386);
},
{
name = cedilla;
pos = (300,0);
},
{
name = top;
pos = (300,1844);
}
);
layerId = "9BAD4174-69FD-4AED-8503-BDDB7C515042";
shapes = (
{
attr = {
lineCapEnd = 1;
lineCapStart = 1;
strokeWidth = 50;
};
closed = 0;
nodes = (
(450,150,ls),
(450,68,o),
(384,1,o),
(300,0,cs),
(217,0,o),
(150,67,o),
(150,150,cs)
);
},
{
attr = {
lineCapEnd = 1;
lineCapStart = 1;
strokeWidth = 50;
};
closed = 0;
nodes = (
(150,772,l),
(150,622,l),
(150,386,l),
(150,150,l)
);
},
{
attr = {
lineCapEnd = 1;
lineCapStart = 1;
strokeWidth = 50;
};
closed = 0;
nodes = (
(450,1394,ls),
(450,1477,o),
(382,1544,o),
(300,1544,cs),
(217,1544,o),
(150,1476,o),
(150,1394,cs)
);
},
{
attr = {
lineCapEnd = 1;
lineCapStart = 1;
strokeWidth = 50;
};
closed = 0;
nodes = (
(150,1394,l),
(150,1158,l),
(150,922,l),
(150,772,l)
);
}
);
width = 600;
}
);
unicode = 67;
},
{
glyphname = D;
lastChange = "2021-05-13 07:18:56 +0000";
layers = (
{
anchors = (
{
name = bottom;
pos = (300,-386);
},
{
name = top;
pos = (300,1844);
}
);
layerId = m01;
shapes = (
{
attr = {
lineCapEnd = 1;
lineCapStart = "1";
strokeWidth = 5;
};
closed = 0;
nodes = (
(150,772,l)
);
},
{
attr = {
lineCapEnd = 1;
lineCapStart = "1";
strokeWidth = 5;
};
closed = 0;
nodes = (
(450,622,l)
);
},
{
attr = {
lineCapEnd = 1;
lineCapStart = 1;
strokeWidth = 5;
};
closed = 0;
nodes = (
(450,150,l),
(450,68,o),
(383,1,o),
(300,0,cs)
);
},
{
attr = {
lineCapEnd = 1;
lineCapStart = "1";
strokeWidth = 5;
};
closed = 0;
nodes = (
(150,772,l)
);
},
{
attr = {
lineCapEnd = 1;
lineCapStart = 1;
strokeWidth = 5;
};
closed = 0;
nodes = (
(450,150,l),
(450,386,l),
(450,622,l)
);
},
{
attr = {
lineCapEnd = 1;
lineCapStart = 1;
strokeWidth = 5;
};
closed = 0;
nodes = (
(450,1394,l),
(450,1477,o),
(382,1544,o),
(300,1544,cs)
);
},
{
attr = {
lineCapEnd = 1;
lineCapStart = "1";
strokeWidth = 5;
};
closed = 0;
nodes = (
(450,922,l)
);
},
{
attr = {
lineCapEnd = 1;
lineCapStart = 1;
strokeWidth = 5;
};
closed = 0;
nodes = (
(300,1544,l),
(150,1544,l),
(150,1394,l),
(150,1158,l),
(150,922,l),
(150,772,l),
(150,622,l),
(150,386,l),
(150,150,l),
(150,0,l),
(300,0,l)
);
},
{
attr = {
lineCapEnd = 1;
lineCapStart = 1;
strokeWidth = 5;
};
closed = 0;
nodes = (
(450,922,l),
(450,1158,l),
(450,1394,l)
);
},
{
attr = {
lineCapEnd = 1;
lineCapStart = "1";
strokeWidth = 5;
};
closed = 0;
nodes = (
(150,772,l)
);
},
{
attr = {
lineCapEnd = 1;
lineCapStart = "1";
strokeWidth = 5;
};
closed = 0;
nodes = (
(450,622,l)
);
},
{
attr = {
lineCapEnd = 1;
lineCapStart = 1;
strokeWidth = 5;
};
closed = 0;
nodes = (
(450,150,l),
(450,68,o),
(383,1,o),
(300,0,cs)
);
},
{
attr = {
lineCapEnd = 1;
lineCapStart = "1";
strokeWidth = 5;
};
closed = 0;
nodes = (
(150,772,l)
);
},
{
attr = {
lineCapEnd = 1;
lineCapStart = 1;
strokeWidth = 5;
};
closed = 0;
nodes = (
(450,150,l),
(450,386,l),
(450,622,l),
(450,922,l),
(450,1394,l)
);
},
{
attr = {
lineCapEnd = 1;
lineCapStart = "1";
strokeWidth = 5;
};
closed = 0;
nodes = (
(450,922,l)
);
},
{
attr = {
lineCapEnd = 1;
lineCapStart = 1;
strokeWidth = 5;
};
closed = 0;
nodes = (
(150,1544,l),
(150,1394,l),
(150,1158,l),
(150,922,l),
(150,772,l),
(150,622,l),
(150,386,l),
(150,150,l),
(150,0,l),
(300,0,l)
);
}
);
width = 600;
},
{
anchors = (
{
name = bottom;
pos = (300,-386);
},
{
name = top;
pos = (300,1844);
}
);
layerId = "9BAD4174-69FD-4AED-8503-BDDB7C515042";
shapes = (
{
attr = {
lineCapEnd = 1;
lineCapStart = "1";
strokeWidth = 50;
};
closed = 0;
nodes = (
(150,772,l)
);
},
{
attr = {
lineCapEnd = 1;
lineCapStart = "1";
strokeWidth = 50;
};
closed = 0;
nodes = (
(450,622,l)
);
},
{
attr = {
lineCapEnd = 1;
lineCapStart = 1;
strokeWidth = 50;
};
closed = 0;
nodes = (
(450,150,l),
(450,68,o),
(383,1,o),
(300,0,cs)
);
},
{
attr = {
lineCapEnd = 1;
lineCapStart = "1";
strokeWidth = 50;
};
closed = 0;
nodes = (
(150,772,l)
);
},
{
attr = {
lineCapEnd = 1;
lineCapStart = 1;
strokeWidth = 50;
};
closed = 0;
nodes = (
(451,150,l),
(451,386,l),
(450,622,l)
);
},
{
attr = {
lineCapEnd = 1;
lineCapStart = 1;
strokeWidth = 50;
};
closed = 0;
nodes = (
(450,1394,l),
(450,1477,o),
(382,1544,o),
(300,1544,cs)
);
},
{
attr = {
lineCapEnd = 1;
lineCapStart = "1";
strokeWidth = 50;
};
closed = 0;
nodes = (
(450,922,l)
);
},
{
attr = {
lineCapEnd = 1;
lineCapStart = 1;
strokeWidth = 50;
};
closed = 0;
nodes = (
(300,1544,l),
(150,1544,l),
(150,1394,l),
(150,1158,l),
(150,922,l),
(150,772,l),
(150,622,l),
(150,386,l),
(150,150,l),
(150,0,l),
(300,0,l)
);
},
{
attr = {
lineCapEnd = 1;
lineCapStart = 1;
strokeWidth = 50;
};
closed = 0;
nodes = (
(450,922,l),
(450,1158,l),
(450,1394,l)
);
},
{
attr = {
lineCapEnd = 1;
lineCapStart = "1";
strokeWidth = 50;
};
closed = 0;
nodes = (
(150,772,l)
);
},
{
attr = {
lineCapEnd = 1;
lineCapStart = "1";
strokeWidth = 50;
};
closed = 0;
nodes = (
(450,622,l)
);
},
{
attr = {
lineCapEnd = 1;
lineCapStart = 1;
strokeWidth = 50;
};
closed = 0;
nodes = (
(450,150,l),
(450,68,o),
(383,1,o),
(300,0,cs)
);
},
{
attr = {
lineCapEnd = 1;
lineCapStart = "1";
strokeWidth = 50;
};
closed = 0;
nodes = (
(150,772,l)
);
},
{
attr = {
lineCapEnd = 1;
lineCapStart = 1;
strokeWidth = 50;
};
closed = 0;
nodes = (
(450,150,l),
(450,386,l),
(450,622,l),
(450,922,l),
(450,1394,l)
);
},
{
attr = {
lineCapEnd = 1;
lineCapStart = "1";
strokeWidth = 50;
};
closed = 0;
nodes = (
(450,922,l)
);
},
{
attr = {
lineCapEnd = 1;
lineCapStart = 1;
strokeWidth = 50;
};
closed = 0;
nodes = (
(150,1544,l),
(150,1394,l),
(150,1158,l),
(150,922,l),
(150,772,l),
(150,622,l),
(150,386,l),
(150,150,l),
(150,0,l),
(300,0,l)
);
}
);
width = 600;
}
);
unicode = 68;
},
{
glyphname = E;
lastChange = "2021-05-13 07:11:52 +0000";
layers = (
{
anchors = (
{
name = bottom;
pos = (300,-386);
},
{
name = top;
pos = (300,1844);
}
);
layerId = m01;
shapes = (
{
attr = {
lineCapEnd = 1;
lineCapStart = 1;
strokeWidth = 5;
};
closed = 0;
nodes = (
(300,772,l),
(150,772,l),
(150,622,l),
(150,386,l),
(150,150,l),
(150,0,l),
(300,0,l),
(450,0,l)
);
},
{
attr = {
lineCapEnd = 1;
lineCapStart = 1;
strokeWidth = 5;
};
closed = 0;
nodes = (
(450,1544,l),
(300,1544,l),
(150,1544,l),
(150,1394,l),
(150,1158,l),
(150,922,l),
(150,772,l)
);
}
);
width = 600;
},
{
anchors = (
{
name = bottom;
pos = (300,-386);
},
{
name = top;
pos = (300,1844);
}
);
layerId = "9BAD4174-69FD-4AED-8503-BDDB7C515042";
shapes = (
{
attr = {
lineCapEnd = 1;
lineCapStart = 1;
strokeWidth = 50;
};
closed = 0;
nodes = (
(300,772,l),
(150,772,l),
(150,622,l),
(150,386,l),
(150,150,l),
(150,0,l),
(300,0,l),
(450,0,l)
);
},
{
attr = {
lineCapEnd = 1;
lineCapStart = 1;
strokeWidth = 50;
};
closed = 0;
nodes = (
(450,1544,l),
(300,1544,l),
(150,1544,l),
(150,1394,l),
(150,1158,l),
(150,922,l),
(150,772,l)
);
}
);
width = 600;
}
);
unicode = 69;
},
{
glyphname = F;
lastChange = "2021-05-13 07:11:52 +0000";
layers = (
{
anchors = (
{
name = bottom;
pos = (300,-386);
},
{
name = top;
pos = (300,1844);
}
);
layerId = m01;
shapes = (
{
attr = {
lineCapEnd = "1";
lineCapStart = "1";
strokeWidth = 5;
};
closed = 0;
nodes = (
(300,772,l),
(150,772,l),
(150,622,l),
(150,386,l),
(150,150,l),
(150,0,l)
);
},
{
attr = {
lineCapEnd = "1";
lineCapStart = "1";
strokeWidth = 5;
};
closed = 0;
nodes = (
(450,1544,l),
(300,1544,l),
(150,1544,l),
(150,1394,l),
(150,1158,l),
(150,922,l),
(150,772,l)
);
}
);
width = 600;
},
{
anchors = (
{
name = bottom;
pos = (300,-386);
},
{
name = top;
pos = (300,1844);
}
);
layerId = "9BAD4174-69FD-4AED-8503-BDDB7C515042";
shapes = (
{
attr = {
lineCapEnd = "1";
lineCapStart = "1";
strokeWidth = 50;
};
closed = 0;
nodes = (
(300,772,l),
(150,772,l),
(150,622,l),
(150,386,l),
(150,150,l),
(150,0,l)
);
},
{
attr = {
lineCapEnd = "1";
lineCapStart = "1";
strokeWidth = 50;
};
closed = 0;
nodes = (
(450,1544,l),
(300,1544,l),
(150,1544,l),
(150,1394,l),
(150,1158,l),
(150,922,l),
(150,772,l)
);
}
);
width = 600;
}
);
unicode = 70;
},
{
glyphname = G;
lastChange = "2021-05-13 07:11:52 +0000";
layers = (
{
anchors = (
{
name = bottom;
pos = (300,-386);
},
{
name = top;
pos = (300,1844);
}
);
layerId = m01;
shapes = (
{
attr = {
lineCapEnd = 1;
lineCapStart = 1;
strokeWidth = 5;
};
closed = 0;
nodes = (
(150,150,ls),
(150,67,o),
(217,0,o),
(300,0,cs),
(384,1,o),
(450,68,o),
(450,150,cs),
(450,386,l),
(450,622,l),
(450,772,l),
(300,772,l)
);
},
{
attr = {
lineCapEnd = 1;
lineCapStart = 1;
strokeWidth = 5;
};
closed = 0;
nodes = (
(150,772,l),
(150,622,l),
(150,386,l),
(150,150,l)
);
},
{
attr = {
lineCapEnd = 1;
lineCapStart = 1;
strokeWidth = 5;
};
closed = 0;
nodes = (
(450,1394,l),
(450,1477,o),
(382,1544,o),
(300,1544,cs),
(217,1544,o),
(150,1476,o),
(150,1394,cs)
);
},
{
attr = {
lineCapEnd = 1;
lineCapStart = 1;
strokeWidth = 5;
};
closed = 0;
nodes = (
(150,1394,l),
(150,1158,l),
(150,922,l),
(150,772,l)
);
},
{
attr = {
lineCapEnd = 1;
lineCapStart = 1;
strokeWidth = 5;
};
closed = 0;
nodes = (
(450,150,l)
);
}
);
width = 600;
},
{
anchors = (
{
name = bottom;
pos = (300,-386);
},
{
name = top;
pos = (300,1844);
}
);
layerId = "9BAD4174-69FD-4AED-8503-BDDB7C515042";
shapes = (
{
attr = {
lineCapEnd = 1;
lineCapStart = 1;
strokeWidth = 50;
};
closed = 0;
nodes = (
(150,150,ls),
(150,67,o),
(217,0,o),
(300,0,cs),
(384,1,o),
(450,68,o),
(450,150,cs),
(450,386,l),
(450,622,l),
(450,772,l),
(300,772,l)
);
},
{
attr = {
lineCapEnd = 1;
lineCapStart = 1;
strokeWidth = 50;
};
closed = 0;
nodes = (
(150,772,l),
(150,622,l),
(150,386,l),
(150,150,l)
);
},
{
attr = {
lineCapEnd = 1;
lineCapStart = 1;
strokeWidth = 50;
};
closed = 0;
nodes = (
(450,1394,l),
(450,1477,o),
(382,1544,o),
(300,1544,cs),
(217,1544,o),
(150,1476,o),
(150,1394,cs)
);
},
{
attr = {
lineCapEnd = 1;
lineCapStart = 1;
strokeWidth = 50;
};
closed = 0;
nodes = (
(150,1394,l),
(150,1158,l),
(150,922,l),
(150,772,l)
);
},
{
attr = {
lineCapEnd = 1;
lineCapStart = 1;
strokeWidth = 50;
};
closed = 0;
nodes = (
(450,150,l)
);
}
);
width = 600;
}
);
unicode = 71;
},
{
glyphname = H;
lastChange = "2021-05-13 07:11:52 +0000";
layers = (
{
anchors = (
{
name = bottom;
pos = (300,-386);
},
{
name = top;
pos = (300,1844);
}
);
layerId = m01;
shapes = (
{
attr = {
lineCapEnd = "1";
lineCapStart = "1";
strokeWidth = 5;
};
closed = 0;
nodes = (
(450,0,l),
(450,150,l),
(450,386,l),
(450,622,l),
(450,772,l),
(150,772,l),
(150,622,l),
(150,386,l),
(150,150,l),
(150,0,l)
);
},
{
attr = {
lineCapEnd = "1";
lineCapStart = "1";
strokeWidth = 5;
};
closed = 0;
nodes = (
(150,772,l),
(300,772,l),
(450,772,l),
(300,772,l),
(150,772,l)
);
},
{
attr = {
lineCapEnd = "1";
lineCapStart = "1";
strokeWidth = 5;
};
closed = 0;
nodes = (
(150,1544,l),
(150,1394,l),
(150,1158,l),
(150,922,l),
(150,772,l),
(450,772,l),
(450,922,l),
(450,1158,l),
(450,1394,l),
(450,1544,l)
);
}
);
width = 600;
},
{
anchors = (
{
name = bottom;
pos = (300,-386);
},
{
name = top;
pos = (300,1844);
}
);
layerId = "9BAD4174-69FD-4AED-8503-BDDB7C515042";
shapes = (
{
attr = {
lineCapEnd = "1";
lineCapStart = "1";
strokeWidth = 50;
};
closed = 0;
nodes = (
(450,0,l),
(450,150,l),
(450,386,l),
(450,622,l),
(450,772,l),
(150,772,l),
(150,622,l),
(150,386,l),
(150,150,l),
(150,0,l)
);
},
{
attr = {
lineCapEnd = "1";
lineCapStart = "1";
strokeWidth = 50;
};
closed = 0;
nodes = (
(150,772,l),
(300,772,l),
(450,772,l),
(300,772,l),
(150,772,l)
);
},
{
attr = {
lineCapEnd = "1";
lineCapStart = "1";
strokeWidth = 50;
};
closed = 0;
nodes = (
(150,1544,l),
(150,1394,l),
(150,1158,l),
(150,922,l),
(150,772,l),
(450,772,l),
(450,922,l),
(450,1158,l),
(450,1394,l),
(450,1544,l)
);
}
);
width = 600;
}
);
unicode = 72;
},
{
glyphname = I;
lastChange = "2021-05-13 07:11:52 +0000";
layers = (
{
anchors = (
{
name = bottom;
pos = (300,-386);
},
{
name = top;
pos = (300,1844);
}
);
layerId = m01;
shapes = (
{
attr = {
lineCapEnd = 1;
lineCapStart = 1;
strokeWidth = 5;
};
closed = 0;
nodes = (
(150,0,l),
(300,0,l),
(300,150,l),
(300,386,l),
(300,622,l),
(300,772,l)
);
},
{
attr = {
lineCapEnd = 1;
lineCapStart = 1;
strokeWidth = 5;
};
closed = 0;
nodes = (
(300,0,l),
(450,0,l)
);
},
{
attr = {
lineCapEnd = 1;
lineCapStart = 1;
strokeWidth = 5;
};
closed = 0;
nodes = (
(300,772,l),
(300,922,l),
(300,1158,l),
(300,1394,l),
(300,1544,l),
(150,1544,l)
);
},
{
attr = {
lineCapEnd = 1;
lineCapStart = 1;
strokeWidth = 5;
};
closed = 0;
nodes = (
(450,1544,l),
(300,1544,l)
);
}
);
width = 600;
},
{
anchors = (
{
name = bottom;
pos = (300,-386);
},
{
name = top;
pos = (300,1844);
}
);
layerId = "9BAD4174-69FD-4AED-8503-BDDB7C515042";
shapes = (
{
attr = {
lineCapEnd = 1;
lineCapStart = 1;
strokeWidth = 50;
};
closed = 0;
nodes = (
(150,0,l),
(300,0,l),
(300,150,l),
(300,386,l),
(300,622,l),
(300,772,l)
);
},
{
attr = {
lineCapEnd = 1;
lineCapStart = 1;
strokeWidth = 50;
};
closed = 0;
nodes = (
(300,0,l),
(450,0,l)
);
},
{
attr = {
lineCapEnd = 1;
lineCapStart = 1;
strokeWidth = 50;
};
closed = 0;
nodes = (
(300,772,l),
(300,922,l),
(300,1158,l),
(300,1394,l),
(300,1544,l),
(150,1544,l)
);
},
{
attr = {
lineCapEnd = 1;
lineCapStart = 1;
strokeWidth = 50;
};
closed = 0;
nodes = (
(450,1544,l),
(300,1544,l)
);
}
);
width = 600;
}
);
unicode = 73;
},
{
glyphname = J;
lastChange = "2021-05-13 07:11:52 +0000";
layers = (
{
anchors = (
{
name = bottom;
pos = (300,-386);
},
{
name = top;
pos = (300,1844);
}
);
layerId = m01;
shapes = (
{
attr = {
lineCapEnd = 1;
lineCapStart = 1;
strokeWidth = 5;
};
closed = 0;
nodes = (
(450,150,ls),
(450,68,o),
(384,1,o),
(300,0,cs),
(217,0,o),
(150,67,o),
(150,150,cs)
);
},
{
attr = {
lineCapEnd = 1;
lineCapStart = 1;
strokeWidth = 5;
};
closed = 0;
nodes = (
(450,150,l),
(450,386,l),
(450,622,l),
(450,772,l)
);
},
{
attr = {
lineCapEnd = 1;
lineCapStart = 1;
strokeWidth = 5;
};
closed = 0;
nodes = (
(450,772,l),
(450,922,l),
(450,1158,l),
(450,1394,l),
(450,1544,l),
(300,1544,l),
(150,1544,l)
);
}
);
width = 600;
},
{
anchors = (
{
name = bottom;
pos = (300,-386);
},
{
name = top;
pos = (300,1844);
}
);
layerId = "9BAD4174-69FD-4AED-8503-BDDB7C515042";
shapes = (
{
attr = {
lineCapEnd = 1;
lineCapStart = 1;
strokeWidth = 50;
};
closed = 0;
nodes = (
(450,150,ls),
(450,68,o),
(384,1,o),
(300,0,cs),
(217,0,o),
(150,67,o),
(150,150,cs)
);
},
{
attr = {
lineCapEnd = 1;
lineCapStart = 1;
strokeWidth = 50;
};
closed = 0;
nodes = (
(450,150,l),
(450,386,l),
(450,622,l),
(450,772,l)
);
},
{
attr = {
lineCapEnd = 1;
lineCapStart = 1;
strokeWidth = 50;
};
closed = 0;
nodes = (
(450,772,l),
(450,922,l),
(450,1158,l),
(450,1394,l),
(450,1544,l),
(300,1544,l),
(150,1544,l)
);
}
);
width = 600;
}
);
unicode = 74;
},
{
glyphname = K;
lastChange = "2021-05-13 07:11:52 +0000";
layers = (
{
anchors = (
{
name = bottom;
pos = (300,-386);
},
{
name = top;
pos = (300,1844);
}
);
layerId = m01;
shapes = (
{
attr = {
lineCapEnd = 1;
lineCapStart = 1;
strokeWidth = 5;
};
closed = 0;
nodes = (
(150,0,l),
(150,150,l),
(150,386,l),
(150,622,l),
(150,772,l)
);
},
{
attr = {
lineCapEnd = 1;
lineCapStart = 1;
strokeWidth = 5;
};
closed = 0;
nodes = (
(150,622,ls),
(150,472,o),
(450,300,o),
(450,150,cs),
(450,0,l)
);
},
{
attr = {
lineCapEnd = 1;
lineCapStart = 1;
strokeWidth = 5;
};
closed = 0;
nodes = (
(150,772,l),
(150,922,l),
(150,1158,l),
(150,1394,l),
(150,1544,l)
);
},
{
attr = {
lineCapEnd = 1;
lineCapStart = 1;
strokeWidth = 5;
};
closed = 0;
nodes = (
(150,922,ls),
(150,1072,o),
(450,1244,o),
(450,1394,cs)
);
},
{
attr = {
lineCapEnd = 1;
lineCapStart = 1;
strokeWidth = 5;
};
closed = 0;
nodes = (
(450,1394,l),
(450,1544,l)
);
}
);
width = 600;
},
{
anchors = (
{
name = bottom;
pos = (300,-386);
},
{
name = top;
pos = (300,1844);
}
);
layerId = "9BAD4174-69FD-4AED-8503-BDDB7C515042";
shapes = (
{
attr = {
lineCapEnd = 1;
lineCapStart = 1;
strokeWidth = 50;
};
closed = 0;
nodes = (
(150,0,l),
(150,150,l),
(150,386,l),
(150,622,l),
(150,772,l)
);
},
{
attr = {
lineCapEnd = 1;
lineCapStart = 1;
strokeWidth = 50;
};
closed = 0;
nodes = (
(150,622,ls),
(150,472,o),
(450,300,o),
(450,150,cs),
(450,0,l)
);
},
{
attr = {
lineCapEnd = 1;
lineCapStart = 1;
strokeWidth = 50;
};
closed = 0;
nodes = (
(150,772,l),
(150,922,l),
(150,1158,l),
(150,1394,l),
(150,1544,l)
);
},
{
attr = {
lineCapEnd = 1;
lineCapStart = 1;
strokeWidth = 50;
};
closed = 0;
nodes = (
(150,922,ls),
(150,1072,o),
(450,1244,o),
(450,1394,cs)
);
},
{
attr = {
lineCapEnd = 1;
lineCapStart = 1;
strokeWidth = 50;
};
closed = 0;
nodes = (
(450,1394,l),
(450,1544,l)
);
}
);
width = 600;
}
);
unicode = 75;
},
{
glyphname = L;
lastChange = "2021-05-13 07:11:52 +0000";
layers = (
{
anchors = (
{
name = bottom;
pos = (300,-386);
},
{
name = top;
pos = (225,1844);
}
);
layerId = m01;
shapes = (
{
attr = {
lineCapEnd = 1;
lineCapStart = 1;
strokeWidth = 5;
};
closed = 0;
nodes = (
(450,150,l),
(450,68,o),
(384,0,o),
(300,0,cs),
(150,0,l),
(150,150,l),
(150,386,l),
(150,622,l),
(150,772,l),
(150,922,l),
(150,1158,l),
(150,1394,l),
(150,1544,l)
);
}
);
width = 600;
},
{
anchors = (
{
name = bottom;
pos = (300,-386);
},
{
name = top;
pos = (225,1844);
}
);
layerId = "9BAD4174-69FD-4AED-8503-BDDB7C515042";
shapes = (
{
attr = {
lineCapEnd = 1;
lineCapStart = 1;
strokeWidth = 50;
};
closed = 0;
nodes = (
(450,150,l),
(450,68,o),
(384,0,o),
(300,0,cs),
(150,0,l),
(150,150,l),
(150,386,l),
(150,622,l),
(150,772,l),
(150,922,l),
(150,1158,l),
(150,1394,l),
(150,1544,l)
);
}
);
width = 600;
}
);
unicode = 76;
},
{
glyphname = M;
lastChange = "2021-05-13 07:11:52 +0000";
layers = (
{
anchors = (
{
name = bottom;
pos = (450,-386);
},
{
name = top;
pos = (450,1844);
}
);
layerId = m01;
shapes = (
{
attr = {
lineCapEnd = "1";
lineCapStart = "1";
strokeWidth = 5;
};
closed = 0;
nodes = (
(450,772,l),
(450,922,l),
(450,1158,l),
(450,1394,ls),
(450,1476,o),
(384,1543,o),
(300,1544,cs),
(217,1544,o),
(150,1477,o),
(150,1394,cs),
(150,1158,l),
(150,922,l),
(150,772,l)
);
},
{
attr = {
lineCapEnd = "1";
lineCapStart = "1";
strokeWidth = 5;
};
closed = 0;
nodes = (
(150,0,l),
(150,150,l)
);
},
{
attr = {
lineCapEnd = "1";
lineCapStart = "1";
strokeWidth = 5;
};
closed = 0;
nodes = (
(150,772,l),
(150,622,l),
(150,386,l),
(150,150,l)
);
},
{
attr = {
lineCapEnd = "1";
lineCapStart = "1";
strokeWidth = 5;
};
closed = 0;
nodes = (
(450,1394,ls),
(450,1476,o),
(516,1543,o),
(600,1544,cs),
(683,1544,o),
(750,1477,o),
(750,1394,cs),
(750,1158,l),
(750,922,l),
(750,772,l)
);
},
{
attr = {
lineCapEnd = "1";
lineCapStart = "1";
strokeWidth = 5;
};
closed = 0;
nodes = (
(750,0,l),
(750,150,l)
);
},
{
attr = {
lineCapEnd = "1";
lineCapStart = "1";
strokeWidth = 5;
};
closed = 0;
nodes = (
(750,772,l),
(750,622,l),
(750,386,l),
(750,150,l)
);
},
{
attr = {
lineCapEnd = "1";
lineCapStart = "1";
strokeWidth = 5;
};
closed = 0;
nodes = (
(750,1158,l),
(750,922,l),
(750,772,l)
);
},
{
attr = {
lineCapEnd = "1";
strokeWidth = 5;
};
closed = 0;
nodes = (
(750,772,l)
);
},
{
attr = {
lineCapEnd = "1";
strokeWidth = 5;
};
closed = 0;
nodes = (
(450,772,l)
);
},
{
attr = {
lineCapEnd = "1";
lineCapStart = "1";
strokeWidth = 5;
};
closed = 0;
nodes = (
(450,1158,l),
(450,922,l),
(450,772,l)
);
},
{
attr = {
lineCapEnd = "1";
strokeWidth = 5;
};
closed = 0;
nodes = (
(450,772,l)
);
},
{
attr = {
lineCapEnd = 1;
lineCapStart = 1;
strokeWidth = 5;
};
closed = 0;
nodes = (
(150,1544,l),
(150,1394,l)
);
}
);
width = 900;
},
{
anchors = (
{
name = bottom;
pos = (450,-386);
},
{
name = top;
pos = (450,1844);
}
);
layerId = "9BAD4174-69FD-4AED-8503-BDDB7C515042";
shapes = (
{
attr = {
lineCapEnd = "1";
lineCapStart = "1";
strokeWidth = 50;
};
closed = 0;
nodes = (
(450,772,l),
(450,922,l),
(450,1158,l),
(450,1394,ls),
(450,1476,o),
(384,1543,o),
(300,1544,cs),
(217,1544,o),
(150,1477,o),
(150,1394,cs),
(150,1158,l),
(150,922,l),
(150,772,l)
);
},
{
attr = {
lineCapEnd = "1";
lineCapStart = "1";
strokeWidth = 50;
};
closed = 0;
nodes = (
(150,0,l),
(150,150,l)
);
},
{
attr = {
lineCapEnd = "1";
lineCapStart = "1";
strokeWidth = 50;
};
closed = 0;
nodes = (
(150,772,l),
(150,622,l),
(150,386,l),
(150,150,l)
);
},
{
attr = {
lineCapEnd = "1";
lineCapStart = "1";
strokeWidth = 50;
};
closed = 0;
nodes = (
(450,1394,ls),
(450,1476,o),
(516,1543,o),
(600,1544,cs),
(683,1544,o),
(750,1477,o),
(750,1394,cs),
(750,1158,l),
(750,922,l),
(750,772,l)
);
},
{
attr = {
lineCapEnd = "1";
lineCapStart = "1";
strokeWidth = 50;
};
closed = 0;
nodes = (
(750,0,l),
(750,150,l)
);
},
{
attr = {
lineCapEnd = "1";
lineCapStart = "1";
strokeWidth = 50;
};
closed = 0;
nodes = (
(750,772,l),
(750,622,l),
(750,386,l),
(750,150,l)
);
},
{
attr = {
lineCapEnd = "1";
lineCapStart = "1";
strokeWidth = 50;
};
closed = 0;
nodes = (
(750,1158,l),
(750,922,l),
(750,772,l)
);
},
{
attr = {
lineCapEnd = "1";
strokeWidth = 50;
};
closed = 0;
nodes = (
(750,772,l)
);
},
{
attr = {
lineCapEnd = "1";
strokeWidth = 50;
};
closed = 0;
nodes = (
(450,772,l)
);
},
{
attr = {
lineCapEnd = "1";
lineCapStart = "1";
strokeWidth = 50;
};
closed = 0;
nodes = (
(450,1158,l),
(450,922,l),
(450,772,l)
);
},
{
attr = {
lineCapEnd = "1";
strokeWidth = 50;
};
closed = 0;
nodes = (
(450,772,l)
);
},
{
attr = {
lineCapEnd = 1;
lineCapStart = 1;
strokeWidth = 50;
};
closed = 0;
nodes = (
(150,1544,l),
(150,1394,l)
);
}
);
width = 900;
}
);
unicode = 77;
},
{
glyphname = N;
lastChange = "2021-05-13 07:11:52 +0000";
layers = (
{
anchors = (
{
name = bottom;
pos = (300,-386);
},
{
name = top;
pos = (300,1844);
}
);
layerId = m01;
shapes = (
{
attr = {
lineCapEnd = "1";
lineCapStart = "1";
strokeWidth = 5;
};
closed = 0;
nodes = (
(150,772,l)
);
},
{
attr = {
lineCapEnd = "1";
lineCapStart = "1";
strokeWidth = 5;
};
closed = 0;
nodes = (
(450,622,l)
);
},
{
attr = {
lineCapEnd = "1";
lineCapStart = "1";
strokeWidth = 5;
};
closed = 0;
nodes = (
(150,150,l),
(150,386,l),
(150,622,l),
(150,772,l),
(150,922,l),
(150,1158,l),
(150,1394,l),
(150,1544,l),
(300,1544,l)
);
},
{
attr = {
lineCapEnd = "1";
lineCapStart = "1";
strokeWidth = 5;
};
closed = 0;
nodes = (
(150,772,l)
);
},
{
attr = {
lineCapEnd = "1";
lineCapStart = "1";
strokeWidth = 5;
};
closed = 0;
nodes = (
(450,622,l),
(450,386,l),
(450,150,l),
(450,0,l)
);
},
{
attr = {
lineCapEnd = "1";
lineCapStart = "1";
strokeWidth = 5;
};
closed = 0;
nodes = (
(450,1394,l),
(450,1477,o),
(382,1544,o),
(300,1544,cs)
);
},
{
attr = {
lineCapEnd = "1";
lineCapStart = "1";
strokeWidth = 5;
};
closed = 0;
nodes = (
(450,922,l)
);
},
{
attr = {
lineCapEnd = "1";
lineCapStart = "1";
strokeWidth = 5;
};
closed = 0;
nodes = (
(300,1544,l),
(150,1544,l),
(150,1394,l),
(150,1158,l),
(150,922,l),
(150,772,l),
(150,622,l),
(150,386,l),
(150,150,l),
(150,0,l)
);
},
{
attr = {
lineCapEnd = "1";
lineCapStart = "1";
strokeWidth = 5;
};
closed = 0;
nodes = (
(450,922,l),
(450,1158,l),
(450,1394,l)
);
},
{
attr = {
lineCapEnd = "1";
lineCapStart = "1";
strokeWidth = 5;
};
closed = 0;
nodes = (
(150,772,l)
);
},
{
attr = {
lineCapEnd = "1";
lineCapStart = "1";
strokeWidth = 5;
};
closed = 0;
nodes = (
(450,622,l)
);
},
{
attr = {
lineCapEnd = "1";
lineCapStart = "1";
strokeWidth = 5;
};
closed = 0;
nodes = (
(450,150,l)
);
},
{
attr = {
lineCapEnd = "1";
lineCapStart = "1";
strokeWidth = 5;
};
closed = 0;
nodes = (
(150,772,l)
);
},
{
attr = {
lineCapEnd = "1";
lineCapStart = "1";
strokeWidth = 5;
};
closed = 0;
nodes = (
(450,150,l),
(450,386,l),
(450,622,l),
(450,922,l),
(450,1158,l),
(450,1394,l)
);
},
{
attr = {
lineCapEnd = "1";
lineCapStart = "1";
strokeWidth = 5;
};
closed = 0;
nodes = (
(450,1394,l),
(450,1477,o),
(382,1544,o),
(300,1544,cs)
);
},
{
attr = {
lineCapEnd = "1";
lineCapStart = "1";
strokeWidth = 5;
};
closed = 0;
nodes = (
(450,922,l)
);
}
);
width = 600;
},
{
anchors = (
{
name = bottom;
pos = (300,-386);
},
{
name = top;
pos = (300,1844);
}
);
layerId = "9BAD4174-69FD-4AED-8503-BDDB7C515042";
shapes = (
{
attr = {
lineCapEnd = "1";
lineCapStart = "1";
strokeWidth = 50;
};
closed = 0;
nodes = (
(150,772,l)
);
},
{
attr = {
lineCapEnd = "1";
lineCapStart = "1";
strokeWidth = 50;
};
closed = 0;
nodes = (
(450,622,l)
);
},
{
attr = {
lineCapEnd = "1";
lineCapStart = "1";
strokeWidth = 50;
};
closed = 0;
nodes = (
(150,150,l),
(150,386,l),
(150,622,l),
(150,772,l),
(150,922,l),
(150,1158,l),
(150,1394,l),
(150,1544,l),
(300,1544,l)
);
},
{
attr = {
lineCapEnd = "1";
lineCapStart = "1";
strokeWidth = 50;
};
closed = 0;
nodes = (
(150,772,l)
);
},
{
attr = {
lineCapEnd = "1";
lineCapStart = "1";
strokeWidth = 50;
};
closed = 0;
nodes = (
(450,622,l),
(450,386,l),
(450,150,l),
(450,0,l)
);
},
{
attr = {
lineCapEnd = "1";
lineCapStart = "1";
strokeWidth = 50;
};
closed = 0;
nodes = (
(450,1394,l),
(450,1477,o),
(382,1544,o),
(300,1544,cs)
);
},
{
attr = {
lineCapEnd = "1";
lineCapStart = "1";
strokeWidth = 50;
};
closed = 0;
nodes = (
(450,922,l)
);
},
{
attr = {
lineCapEnd = "1";
lineCapStart = "1";
strokeWidth = 50;
};
closed = 0;
nodes = (
(300,1544,l),
(150,1544,l),
(150,1394,l),
(150,1158,l),
(150,922,l),
(150,772,l),
(150,622,l),
(150,386,l),
(150,150,l),
(150,0,l)
);
},
{
attr = {
lineCapEnd = "1";
lineCapStart = "1";
strokeWidth = 50;
};
closed = 0;
nodes = (
(450,922,l),
(450,1158,l),
(450,1394,l)
);
},
{
attr = {
lineCapEnd = "1";
lineCapStart = "1";
strokeWidth = 50;
};
closed = 0;
nodes = (
(150,772,l)
);
},
{
attr = {
lineCapEnd = "1";
lineCapStart = "1";
strokeWidth = 50;
};
closed = 0;
nodes = (
(450,622,l)
);
},
{
attr = {
lineCapEnd = "1";
lineCapStart = "1";
strokeWidth = 50;
};
closed = 0;
nodes = (
(450,150,l)
);
},
{
attr = {
lineCapEnd = "1";
lineCapStart = "1";
strokeWidth = 50;
};
closed = 0;
nodes = (
(150,772,l)
);
},
{
attr = {
lineCapEnd = "1";
lineCapStart = "1";
strokeWidth = 50;
};
closed = 0;
nodes = (
(450,150,l),
(450,386,l),
(450,622,l),
(450,922,l),
(450,1158,l),
(450,1394,l)
);
},
{
attr = {
lineCapEnd = "1";
lineCapStart = "1";
strokeWidth = 50;
};
closed = 0;
nodes = (
(450,1394,l),
(450,1477,o),
(382,1544,o),
(300,1544,cs)
);
},
{
attr = {
lineCapEnd = "1";
lineCapStart = "1";
strokeWidth = 50;
};
closed = 0;
nodes = (
(450,922,l)
);
}
);
width = 600;
}
);
unicode = 78;
},
{
glyphname = Eng;
lastChange = "2021-05-13 07:11:52 +0000";
layers = (
{
layerId = m01;
shapes = (
{
ref = N;
},
{
attr = {
lineCapEnd = "1";
lineCapStart = "1";
strokeWidth = 5;
};
closed = 0;
nodes = (
(450,-622,ls),
(450,-704,o),
(383,-771,o),
(300,-772,cs),
(217,-772,o),
(150,-705,o),
(150,-622,cs)
);
},
{
attr = {
lineCapEnd = "1";
lineCapStart = "1";
strokeWidth = 5;
};
closed = 0;
nodes = (
(450,-622,l),
(450,-386,l),
(450,-150,l),
(450,0,l)
);
}
);
width = 600;
},
{
layerId = "9BAD4174-69FD-4AED-8503-BDDB7C515042";
shapes = (
{
ref = N;
},
{
attr = {
lineCapEnd = "1";
lineCapStart = "1";
strokeWidth = 50;
};
closed = 0;
nodes = (
(450,-622,ls),
(450,-704,o),
(383,-771,o),
(300,-772,cs),
(217,-772,o),
(150,-705,o),
(150,-622,cs)
);
},
{
attr = {
lineCapEnd = "1";
lineCapStart = "1";
strokeWidth = 50;
};
closed = 0;
nodes = (
(450,-622,l),
(450,-386,l),
(450,-150,l),
(450,0,l)
);
}
);
width = 600;
}
);
unicode = 330;
},
{
glyphname = O;
lastChange = "2021-05-13 07:19:37 +0000";
layers = (
{
anchors = (
{
name = bottom;
pos = (300,-386);
},
{
name = top;
pos = (300,1844);
}
);
layerId = m01;
shapes = (
{
attr = {
lineCapEnd = 1;
lineCapStart = 1;
strokeWidth = 5;
};
closed = 1;
nodes = (
(150,772,l),
(150,150,ls),
(150,67,o),
(217,0,o),
(300,0,cs),
(384,1,o),
(450,67,o),
(450,150,cs),
(450,772,l),
(450,1394,ls),
(450,1477,o),
(382,1544,o),
(300,1544,cs),
(217,1544,o),
(150,1476,o),
(150,1394,cs)
);
}
);
width = 600;
},
{
anchors = (
{
name = bottom;
pos = (300,-386);
},
{
name = top;
pos = (300,1844);
}
);
layerId = "9BAD4174-69FD-4AED-8503-BDDB7C515042";
shapes = (
{
attr = {
lineCapEnd = 1;
lineCapStart = 1;
strokeWidth = 50;
};
closed = 1;
nodes = (
(150,772,l),
(150,150,ls),
(150,67,o),
(217,0,o),
(300,0,cs),
(384,1,o),
(450,67,o),
(450,150,cs),
(450,772,l),
(450,1394,ls),
(450,1477,o),
(382,1544,o),
(300,1544,cs),
(217,1544,o),
(150,1476,o),
(150,1394,cs)
);
}
);
width = 600;
}
);
unicode = 79;
},
{
glyphname = Oslash;
lastChange = "2021-05-13 07:11:52 +0000";
layers = (
{
anchors = (
{
name = bottom;
pos = (300,-386);
},
{
name = top;
pos = (300,1844);
}
);
layerId = m01;
shapes = (
{
ref = O;
},
{
attr = {
lineCapEnd = 1;
lineCapStart = 1;
strokeWidth = 5;
};
closed = 0;
nodes = (
(450,1544,l),
(150,0,l)
);
}
);
width = 600;
},
{
anchors = (
{
name = bottom;
pos = (300,-386);
},
{
name = top;
pos = (300,1844);
}
);
layerId = "9BAD4174-69FD-4AED-8503-BDDB7C515042";
shapes = (
{
ref = O;
},
{
attr = {
lineCapEnd = 1;
lineCapStart = 1;
strokeWidth = 50;
};
closed = 0;
nodes = (
(450,1544,l),
(150,0,l)
);
}
);
width = 600;
}
);
unicode = 216;
},
{
glyphname = OE;
lastChange = "2021-05-13 07:11:52 +0000";
layers = (
{
anchors = (
{
name = bottom;
pos = (450,-386);
},
{
name = top;
pos = (450,1844);
}
);
layerId = m01;
shapes = (
{
attr = {
lineCapEnd = 1;
lineCapStart = "1";
strokeWidth = 5;
};
closed = 0;
nodes = (
(150,622,l)
);
},
{
attr = {
lineCapEnd = 1;
lineCapStart = 1;
strokeWidth = 5;
};
closed = 0;
nodes = (
(150,150,l),
(150,67,o),
(217,0,o),
(300,0,cs)
);
},
{
attr = {
lineCapEnd = 1;
lineCapStart = 1;
strokeWidth = 5;
};
closed = 0;
nodes = (
(150,622,l),
(150,386,l),
(150,150,l)
);
},
{
attr = {
lineCapEnd = 1;
lineCapStart = 1;
strokeWidth = 5;
};
closed = 0;
nodes = (
(150,1394,l),
(150,1476,o),
(217,1544,o),
(300,1544,cs)
);
},
{
attr = {
lineCapEnd = 1;
lineCapStart = "1";
strokeWidth = 5;
};
closed = 0;
nodes = (
(150,922,l)
);
},
{
attr = {
lineCapEnd = 1;
lineCapStart = 1;
strokeWidth = 5;
};
closed = 0;
nodes = (
(150,1394,l),
(150,1158,l),
(150,922,l)
);
},
{
attr = {
lineCapEnd = 1;
lineCapStart = "1";
strokeWidth = 5;
};
closed = 0;
nodes = (
(150,622,l)
);
},
{
attr = {
lineCapEnd = 1;
lineCapStart = 1;
strokeWidth = 5;
};
closed = 0;
nodes = (
(150,150,l)
);
},
{
attr = {
lineCapEnd = 1;
lineCapStart = 1;
strokeWidth = 5;
};
closed = 0;
nodes = (
(150,1394,l),
(150,922,l),
(150,622,l),
(150,386,l),
(150,150,l)
);
},
{
attr = {
lineCapEnd = 1;
lineCapStart = "1";
strokeWidth = 5;
};
closed = 0;
nodes = (
(150,922,l)
);
},
{
alignment = -1;
pos = (299,0);
ref = E;
},
{
attr = {
lineCapEnd = 1;
lineCapStart = 1;
strokeWidth = 5;
};
closed = 0;
nodes = (
(300,0,l),
(450,0,l)
);
},
{
attr = {
lineCapEnd = 1;
lineCapStart = 1;
strokeWidth = 5;
};
closed = 0;
nodes = (
(450,1544,l),
(300,1544,l)
);
}
);
width = 900;
},
{
anchors = (
{
name = bottom;
pos = (450,-386);
},
{
name = top;
pos = (450,1844);
}
);
layerId = "9BAD4174-69FD-4AED-8503-BDDB7C515042";
shapes = (
{
attr = {
lineCapEnd = 1;
lineCapStart = "1";
strokeWidth = 50;
};
closed = 0;
nodes = (
(150,622,l)
);
},
{
attr = {
lineCapEnd = 1;
lineCapStart = 1;
strokeWidth = 50;
};
closed = 0;
nodes = (
(150,150,l),
(150,67,o),
(217,0,o),
(300,0,cs)
);
},
{
attr = {
lineCapEnd = 1;
lineCapStart = 1;
strokeWidth = 50;
};
closed = 0;
nodes = (
(150,622,l),
(150,386,l),
(150,150,l)
);
},
{
attr = {
lineCapEnd = 1;
lineCapStart = 1;
strokeWidth = 50;
};
closed = 0;
nodes = (
(150,1394,l),
(150,1476,o),
(217,1544,o),
(300,1544,cs)
);
},
{
attr = {
lineCapEnd = 1;
lineCapStart = "1";
strokeWidth = 50;
};
closed = 0;
nodes = (
(150,922,l)
);
},
{
attr = {
lineCapEnd = 1;
lineCapStart = 1;
strokeWidth = 50;
};
closed = 0;
nodes = (
(150,1394,l),
(150,1158,l),
(150,922,l)
);
},
{
attr = {
lineCapEnd = 1;
lineCapStart = "1";
strokeWidth = 50;
};
closed = 0;
nodes = (
(150,622,l)
);
},
{
attr = {
lineCapEnd = 1;
lineCapStart = 1;
strokeWidth = 50;
};
closed = 0;
nodes = (
(150,150,l)
);
},
{
attr = {
lineCapEnd = 1;
lineCapStart = 1;
strokeWidth = 50;
};
closed = 0;
nodes = (
(150,1394,l),
(150,922,l),
(150,622,l),
(150,386,l),
(150,150,l)
);
},
{
attr = {
lineCapEnd = 1;
lineCapStart = "1";
strokeWidth = 50;
};
closed = 0;
nodes = (
(150,922,l)
);
},
{
alignment = -1;
pos = (299,0);
ref = E;
},
{
attr = {
lineCapEnd = 1;
lineCapStart = 1;
strokeWidth = 50;
};
closed = 0;
nodes = (
(300,0,l),
(450,0,l)
);
},
{
attr = {
lineCapEnd = 1;
lineCapStart = 1;
strokeWidth = 50;
};
closed = 0;
nodes = (
(450,1544,l),
(300,1544,l)
);
}
);
width = 900;
}
);
unicode = 338;
},
{
glyphname = P;
lastChange = "2021-05-13 07:11:52 +0000";
layers = (
{
anchors = (
{
name = bottom;
pos = (300,-386);
},
{
name = top;
pos = (300,1844);
}
);
layerId = m01;
shapes = (
{
attr = {
lineCapEnd = 1;
lineCapStart = 1;
strokeWidth = 5;
};
closed = 0;
nodes = (
(150,772,l),
(300,772,l)
);
},
{
attr = {
lineCapEnd = 1;
lineCapStart = 1;
strokeWidth = 5;
};
closed = 0;
nodes = (
(150,150,l),
(150,386,l),
(150,622,l),
(150,772,l),
(150,922,l),
(150,1158,l),
(150,1394,l),
(150,1544,l),
(300,1544,l)
);
},
{
attr = {
lineCapEnd = 1;
lineCapStart = "1";
strokeWidth = 5;
};
closed = 0;
nodes = (
(150,772,l)
);
},
{
attr = {
lineCapEnd = 1;
lineCapStart = 1;
strokeWidth = 5;
};
closed = 0;
nodes = (
(450,1394,l),
(450,1477,o),
(382,1544,o),
(300,1544,cs)
);
},
{
attr = {
lineCapEnd = 1;
lineCapStart = 1;
strokeWidth = 5;
};
closed = 0;
nodes = (
(300,1544,l),
(150,1544,l),
(150,1394,l),
(150,1158,l),
(150,922,l),
(150,772,l),
(150,622,l),
(150,386,l),
(150,150,l),
(150,0,l)
);
},
{
attr = {
lineCapEnd = 1;
lineCapStart = "1";
strokeWidth = 5;
};
closed = 0;
nodes = (
(150,772,l)
);
},
{
attr = {
lineCapEnd = 1;
lineCapStart = "1";
strokeWidth = 5;
};
closed = 0;
nodes = (
(150,772,l)
);
},
{
attr = {
lineCapEnd = 1;
lineCapStart = 1;
strokeWidth = 5;
};
closed = 0;
nodes = (
(450,1158,l),
(450,1394,l)
);
},
{
attr = {
lineCapEnd = 1;
lineCapStart = 1;
strokeWidth = 5;
};
closed = 0;
nodes = (
(450,1394,l),
(450,1477,o),
(382,1544,o),
(300,1544,cs)
);
},
{
attr = {
lineCapEnd = 1;
lineCapStart = 1;
strokeWidth = 5;
};
closed = 0;
nodes = (
(450,922,ls),
(450,840,o),
(383,773,o),
(300,772,cs)
);
},
{
attr = {
lineCapEnd = 1;
lineCapStart = 1;
strokeWidth = 5;
};
closed = 0;
nodes = (
(450,922,l),
(450,1158,l),
(450,1394,l)
);
}
);
width = 600;
},
{
anchors = (
{
name = bottom;
pos = (300,-386);
},
{
name = top;
pos = (300,1844);
}
);
layerId = "9BAD4174-69FD-4AED-8503-BDDB7C515042";
shapes = (
{
attr = {
lineCapEnd = 1;
lineCapStart = 1;
strokeWidth = 50;
};
closed = 0;
nodes = (
(150,772,l),
(300,772,l)
);
},
{
attr = {
lineCapEnd = 1;
lineCapStart = 1;
strokeWidth = 50;
};
closed = 0;
nodes = (
(150,150,l),
(150,386,l),
(150,622,l),
(150,772,l),
(150,922,l),
(150,1158,l),
(150,1394,l),
(150,1544,l),
(300,1544,l)
);
},
{
attr = {
lineCapEnd = 1;
lineCapStart = "1";
strokeWidth = 50;
};
closed = 0;
nodes = (
(150,772,l)
);
},
{
attr = {
lineCapEnd = 1;
lineCapStart = 1;
strokeWidth = 50;
};
closed = 0;
nodes = (
(450,1394,l),
(450,1477,o),
(382,1544,o),
(300,1544,cs)
);
},
{
attr = {
lineCapEnd = 1;
lineCapStart = 1;
strokeWidth = 50;
};
closed = 0;
nodes = (
(300,1544,l),
(150,1544,l),
(150,1394,l),
(150,1158,l),
(150,922,l),
(150,772,l),
(150,622,l),
(150,386,l),
(150,150,l),
(150,0,l)
);
},
{
attr = {
lineCapEnd = 1;
lineCapStart = "1";
strokeWidth = 50;
};
closed = 0;
nodes = (
(150,772,l)
);
},
{
attr = {
lineCapEnd = 1;
lineCapStart = "1";
strokeWidth = 50;
};
closed = 0;
nodes = (
(150,772,l)
);
},
{
attr = {
lineCapEnd = 1;
lineCapStart = 1;
strokeWidth = 50;
};
closed = 0;
nodes = (
(450,1158,l),
(450,1394,l)
);
},
{
attr = {
lineCapEnd = 1;
lineCapStart = 1;
strokeWidth = 50;
};
closed = 0;
nodes = (
(450,1394,l),
(450,1477,o),
(382,1544,o),
(300,1544,cs)
);
},
{
attr = {
lineCapEnd = 1;
lineCapStart = 1;
strokeWidth = 50;
};
closed = 0;
nodes = (
(450,922,ls),
(450,840,o),
(383,773,o),
(300,772,cs)
);
},
{
attr = {
lineCapEnd = 1;
lineCapStart = 1;
strokeWidth = 50;
};
closed = 0;
nodes = (
(450,922,l),
(450,1158,l),
(450,1394,l)
);
}
);
width = 600;
}
);
unicode = 80;
},
{
glyphname = Thorn;
lastChange = "2021-05-13 07:11:52 +0000";
layers = (
{
anchors = (
{
name = bottom;
pos = (300,-386);
},
{
name = top;
pos = (300,1844);
}
);
layerId = m01;
shapes = (
{
attr = {
lineCapEnd = 1;
lineCapStart = 1;
strokeWidth = 5;
};
closed = 0;
nodes = (
(150,772,l)
);
},
{
attr = {
lineCapEnd = 1;
lineCapStart = 1;
strokeWidth = 5;
};
closed = 0;
nodes = (
(150,150,l),
(150,386,l),
(150,622,l),
(150,772,l),
(150,922,l),
(150,1158,l),
(150,1394,l),
(150,1544,l)
);
},
{
attr = {
lineCapEnd = 1;
lineCapStart = "1";
strokeWidth = 5;
};
closed = 0;
nodes = (
(150,772,l)
);
},
{
attr = {
lineCapEnd = 1;
lineCapStart = 1;
strokeWidth = 5;
};
closed = 0;
nodes = (
(150,1544,l),
(150,1394,l),
(150,1158,l),
(150,922,l),
(150,772,l),
(150,622,l),
(150,386,l),
(150,150,l),
(150,0,l)
);
},
{
attr = {
lineCapEnd = 1;
lineCapStart = "1";
strokeWidth = 5;
};
closed = 0;
nodes = (
(150,772,l)
);
},
{
attr = {
lineCapEnd = 1;
lineCapStart = "1";
strokeWidth = 5;
};
closed = 0;
nodes = (
(150,772,l)
);
},
{
attr = {
strokeWidth = 5;
};
closed = 0;
nodes = (
(450,1008,ls),
(450,1091,o),
(383,1158,o),
(300,1158,cs)
);
},
{
attr = {
strokeWidth = 5;
};
closed = 0;
nodes = (
(450,536,ls),
(450,453,o),
(385,387,o),
(300,386,cs)
);
},
{
attr = {
strokeWidth = 5;
};
closed = 0;
nodes = (
(300,1158,l),
(150,1158,l)
);
},
{
attr = {
strokeWidth = 5;
};
closed = 0;
nodes = (
(150,386,l),
(300,386,l)
);
},
{
attr = {
strokeWidth = 5;
};
closed = 0;
nodes = (
(450,536,l),
(450,772,l),
(450,1008,l)
);
}
);
width = 600;
},
{
anchors = (
{
name = bottom;
pos = (300,-386);
},
{
name = top;
pos = (300,1844);
}
);
layerId = "9BAD4174-69FD-4AED-8503-BDDB7C515042";
shapes = (
{
attr = {
lineCapEnd = 1;
lineCapStart = 1;
strokeWidth = 50;
};
closed = 0;
nodes = (
(150,772,l)
);
},
{
attr = {
lineCapEnd = 1;
lineCapStart = 1;
strokeWidth = 50;
};
closed = 0;
nodes = (
(150,150,l),
(150,386,l),
(150,622,l),
(150,772,l),
(150,922,l),
(150,1158,l),
(150,1394,l),
(150,1544,l)
);
},
{
attr = {
lineCapEnd = 1;
lineCapStart = "1";
strokeWidth = 50;
};
closed = 0;
nodes = (
(150,772,l)
);
},
{
attr = {
lineCapEnd = 1;
lineCapStart = 1;
strokeWidth = 50;
};
closed = 0;
nodes = (
(150,1544,l),
(150,1394,l),
(150,1158,l),
(150,922,l),
(150,772,l),
(150,622,l),
(150,386,l),
(150,150,l),
(150,0,l)
);
},
{
attr = {
lineCapEnd = 1;
lineCapStart = "1";
strokeWidth = 50;
};
closed = 0;
nodes = (
(150,772,l)
);
},
{
attr = {
lineCapEnd = 1;
lineCapStart = "1";
strokeWidth = 50;
};
closed = 0;
nodes = (
(150,772,l)
);
},
{
attr = {
strokeWidth = 50;
};
closed = 0;
nodes = (
(450,1008,ls),
(450,1091,o),
(383,1158,o),
(300,1158,cs)
);
},
{
attr = {
strokeWidth = 50;
};
closed = 0;
nodes = (
(450,536,ls),
(450,453,o),
(385,387,o),
(300,386,cs)
);
},
{
attr = {
strokeWidth = 50;
};
closed = 0;
nodes = (
(300,1158,l),
(150,1158,l)
);
},
{
attr = {
strokeWidth = 50;
};
closed = 0;
nodes = (
(150,386,l),
(300,386,l)
);
},
{
attr = {
strokeWidth = 50;
};
closed = 0;
nodes = (
(450,536,l),
(450,772,l),
(450,1008,l)
);
}
);
width = 600;
}
);
unicode = 222;
},
{
glyphname = Q;
lastChange = "2021-05-13 07:11:52 +0000";
layers = (
{
anchors = (
{
name = bottom;
pos = (300,-386);
},
{
name = top;
pos = (300,1844);
}
);
layerId = m01;
shapes = (
{
attr = {
lineCapEnd = 1;
lineCapStart = 1;
strokeWidth = 5;
};
closed = 0;
nodes = (
(450,150,l),
(450,67,o),
(384,1,o),
(300,0,cs),
(217,0,o),
(150,67,o),
(150,150,c)
);
},
{
attr = {
lineCapEnd = 1;
lineCapStart = 1;
strokeWidth = 5;
};
closed = 0;
nodes = (
(150,772,l),
(150,150,l)
);
},
{
attr = {
lineCapEnd = 1;
lineCapStart = 1;
strokeWidth = 5;
};
closed = 0;
nodes = (
(450,150,l),
(450,772,l)
);
},
{
attr = {
lineCapEnd = 1;
lineCapStart = 1;
strokeWidth = 5;
};
closed = 0;
nodes = (
(450,1394,l),
(450,1477,o),
(382,1544,o),
(300,1544,cs),
(217,1544,o),
(150,1476,o),
(150,1394,c)
);
},
{
attr = {
lineCapEnd = 1;
lineCapStart = 1;
strokeWidth = 5;
};
closed = 0;
nodes = (
(150,1394,l),
(150,772,l)
);
},
{
attr = {
lineCapEnd = 1;
lineCapStart = 1;
strokeWidth = 5;
};
closed = 0;
nodes = (
(450,772,l),
(450,1394,l)
);
},
{
attr = {
lineCapEnd = 1;
lineCapStart = 1;
strokeWidth = 5;
};
closed = 0;
nodes = (
(450,-150,ls),
(450,-67,o),
(382,0,o),
(300,0,cs)
);
}
);
width = 600;
},
{
anchors = (
{
name = bottom;
pos = (300,-386);
},
{
name = top;
pos = (300,1844);
}
);
layerId = "9BAD4174-69FD-4AED-8503-BDDB7C515042";
shapes = (
{
attr = {
lineCapEnd = 1;
lineCapStart = 1;
strokeWidth = 50;
};
closed = 0;
nodes = (
(450,150,l),
(450,67,o),
(384,1,o),
(300,0,cs),
(217,0,o),
(150,67,o),
(150,150,c)
);
},
{
attr = {
lineCapEnd = 1;
lineCapStart = 1;
strokeWidth = 50;
};
closed = 0;
nodes = (
(150,772,l),
(150,150,l)
);
},
{
attr = {
lineCapEnd = 1;
lineCapStart = 1;
strokeWidth = 50;
};
closed = 0;
nodes = (
(450,150,l),
(450,772,l)
);
},
{
attr = {
lineCapEnd = 1;
lineCapStart = 1;
strokeWidth = 50;
};
closed = 0;
nodes = (
(450,1394,l),
(450,1477,o),
(382,1544,o),
(300,1544,cs),
(217,1544,o),
(150,1476,o),
(150,1394,c)
);
},
{
attr = {
lineCapEnd = 1;
lineCapStart = 1;
strokeWidth = 50;
};
closed = 0;
nodes = (
(150,1394,l),
(150,772,l)
);
},
{
attr = {
lineCapEnd = 1;
lineCapStart = 1;
strokeWidth = 50;
};
closed = 0;
nodes = (
(450,772,l),
(450,1394,l)
);
},
{
attr = {
lineCapEnd = 1;
lineCapStart = 1;
strokeWidth = 50;
};
closed = 0;
nodes = (
(450,-150,ls),
(450,-67,o),
(382,0,o),
(300,0,cs)
);
}
);
width = 600;
}
);
unicode = 81;
},
{
glyphname = R;
lastChange = "2021-05-13 07:11:52 +0000";
layers = (
{
anchors = (
{
name = bottom;
pos = (300,-386);
},
{
name = top;
pos = (300,1844);
}
);
layerId = m01;
shapes = (
{
attr = {
lineCapEnd = "1";
lineCapStart = "1";
strokeWidth = 5;
};
closed = 0;
nodes = (
(150,772,l),
(300,772,l)
);
},
{
attr = {
lineCapEnd = "1";
lineCapStart = "1";
strokeWidth = 5;
};
closed = 0;
nodes = (
(150,150,l),
(150,386,l),
(150,622,l),
(150,772,l),
(150,922,l),
(150,1158,l),
(150,1394,l),
(150,1544,l),
(300,1544,l)
);
},
{
attr = {
lineCapEnd = "1";
lineCapStart = "1";
strokeWidth = 5;
};
closed = 0;
nodes = (
(150,772,l)
);
},
{
attr = {
lineCapEnd = "1";
lineCapStart = "1";
strokeWidth = 5;
};
closed = 0;
nodes = (
(450,1394,l),
(450,1477,o),
(382,1544,o),
(300,1544,cs)
);
},
{
attr = {
lineCapEnd = "1";
lineCapStart = "1";
strokeWidth = 5;
};
closed = 0;
nodes = (
(300,1544,l),
(150,1544,l),
(150,1394,l),
(150,1158,l),
(150,922,l),
(150,772,l),
(150,622,l),
(150,386,l),
(150,150,l),
(150,0,l)
);
},
{
attr = {
lineCapEnd = "1";
lineCapStart = "1";
strokeWidth = 5;
};
closed = 0;
nodes = (
(150,772,l)
);
},
{
attr = {
lineCapEnd = "1";
lineCapStart = "1";
strokeWidth = 5;
};
closed = 0;
nodes = (
(150,772,l)
);
},
{
attr = {
lineCapEnd = "1";
lineCapStart = "1";
strokeWidth = 5;
};
closed = 0;
nodes = (
(450,1158,l),
(450,1394,l)
);
},
{
attr = {
lineCapEnd = "1";
lineCapStart = "1";
strokeWidth = 5;
};
closed = 0;
nodes = (
(450,1394,l),
(450,1477,o),
(382,1544,o),
(300,1544,cs)
);
},
{
attr = {
lineCapEnd = "1";
lineCapStart = "1";
strokeWidth = 5;
};
closed = 0;
nodes = (
(450,922,ls),
(450,840,o),
(383,773,o),
(300,772,cs)
);
},
{
attr = {
lineCapEnd = "1";
lineCapStart = "1";
strokeWidth = 5;
};
closed = 0;
nodes = (
(450,922,l),
(450,1158,l),
(450,1394,l)
);
},
{
attr = {
lineCapEnd = "1";
lineCapStart = "1";
strokeWidth = 5;
};
closed = 0;
nodes = (
(150,622,ls),
(150,472,o),
(450,300,o),
(450,150,cs),
(450,0,l)
);
}
);
width = 600;
},
{
anchors = (
{
name = bottom;
pos = (300,-386);
},
{
name = top;
pos = (300,1844);
}
);
layerId = "9BAD4174-69FD-4AED-8503-BDDB7C515042";
shapes = (
{
attr = {
lineCapEnd = "1";
lineCapStart = "1";
strokeWidth = 50;
};
closed = 0;
nodes = (
(150,772,l),
(300,772,l)
);
},
{
attr = {
lineCapEnd = "1";
lineCapStart = "1";
strokeWidth = 50;
};
closed = 0;
nodes = (
(150,150,l),
(150,386,l),
(150,622,l),
(150,772,l),
(150,922,l),
(150,1158,l),
(150,1394,l),
(150,1544,l),
(300,1544,l)
);
},
{
attr = {
lineCapEnd = "1";
lineCapStart = "1";
strokeWidth = 50;
};
closed = 0;
nodes = (
(150,772,l)
);
},
{
attr = {
lineCapEnd = "1";
lineCapStart = "1";
strokeWidth = 50;
};
closed = 0;
nodes = (
(450,1394,l),
(450,1477,o),
(382,1544,o),
(300,1544,cs)
);
},
{
attr = {
lineCapEnd = "1";
lineCapStart = "1";
strokeWidth = 50;
};
closed = 0;
nodes = (
(300,1544,l),
(150,1544,l),
(150,1394,l),
(150,1158,l),
(150,922,l),
(150,772,l),
(150,622,l),
(150,386,l),
(150,150,l),
(150,0,l)
);
},
{
attr = {
lineCapEnd = "1";
lineCapStart = "1";
strokeWidth = 50;
};
closed = 0;
nodes = (
(150,772,l)
);
},
{
attr = {
lineCapEnd = "1";
lineCapStart = "1";
strokeWidth = 50;
};
closed = 0;
nodes = (
(150,772,l)
);
},
{
attr = {
lineCapEnd = "1";
lineCapStart = "1";
strokeWidth = 50;
};
closed = 0;
nodes = (
(450,1158,l),
(450,1394,l)
);
},
{
attr = {
lineCapEnd = "1";
lineCapStart = "1";
strokeWidth = 50;
};
closed = 0;
nodes = (
(450,1394,l),
(450,1477,o),
(382,1544,o),
(300,1544,cs)
);
},
{
attr = {
lineCapEnd = "1";
lineCapStart = "1";
strokeWidth = 50;
};
closed = 0;
nodes = (
(450,922,ls),
(450,840,o),
(383,773,o),
(300,772,cs)
);
},
{
attr = {
lineCapEnd = "1";
lineCapStart = "1";
strokeWidth = 50;
};
closed = 0;
nodes = (
(450,922,l),
(450,1158,l),
(450,1394,l)
);
},
{
attr = {
lineCapEnd = "1";
lineCapStart = "1";
strokeWidth = 50;
};
closed = 0;
nodes = (
(150,622,ls),
(150,472,o),
(450,300,o),
(450,150,cs),
(450,0,l)
);
}
);
width = 600;
}
);
unicode = 82;
},
{
glyphname = S;
lastChange = "2021-05-13 07:11:52 +0000";
layers = (
{
anchors = (
{
name = bottom;
pos = (300,-386);
},
{
name = top;
pos = (300,1844);
}
);
layerId = m01;
shapes = (
{
attr = {
lineCapEnd = 1;
lineCapStart = 1;
strokeWidth = 5;
};
closed = 0;
nodes = (
(450,1394,l),
(450,1476,o),
(383,1544,o),
(300,1544,cs),
(217,1544,o),
(150,1476,o),
(150,1394,cs),
(150,1158,l),
(150,922,ls),
(150,839,o),
(217,772,o),
(300,772,cs),
(383,772,o),
(450,705,o),
(450,622,cs),
(450,386,l),
(450,150,ls),
(450,68,o),
(383,0,o),
(300,0,cs),
(217,0,o),
(150,68,o),
(150,150,c)
);
}
);
width = 600;
},
{
anchors = (
{
name = bottom;
pos = (300,-386);
},
{
name = top;
pos = (300,1844);
}
);
layerId = "9BAD4174-69FD-4AED-8503-BDDB7C515042";
shapes = (
{
attr = {
lineCapEnd = 1;
lineCapStart = 1;
strokeWidth = 50;
};
closed = 0;
nodes = (
(450,1394,l),
(450,1476,o),
(383,1544,o),
(300,1544,cs),
(217,1544,o),
(150,1476,o),
(150,1394,cs),
(150,1158,l),
(150,922,ls),
(150,839,o),
(217,772,o),
(300,772,cs),
(383,772,o),
(450,705,o),
(450,622,cs),
(450,386,l),
(450,150,ls),
(450,68,o),
(383,0,o),
(300,0,cs),
(217,0,o),
(150,68,o),
(150,150,c)
);
}
);
width = 600;
}
);
unicode = 83;
},
{
glyphname = T;
lastChange = "2021-05-13 07:11:52 +0000";
layers = (
{
anchors = (
{
name = bottom;
pos = (300,-386);
},
{
name = top;
pos = (300,1844);
}
);
layerId = m01;
shapes = (
{
attr = {
lineCapEnd = 1;
lineCapStart = 1;
strokeWidth = 5;
};
closed = 0;
nodes = (
(300,772,l),
(300,622,l),
(300,386,l),
(300,150,l),
(300,0,l)
);
},
{
attr = {
lineCapEnd = 1;
lineCapStart = 1;
strokeWidth = 5;
};
closed = 0;
nodes = (
(600,1544,l),
(450,1544,l),
(300,1544,l),
(300,1394,l),
(300,1158,l),
(300,922,l),
(300,772,l)
);
},
{
attr = {
lineCapEnd = 1;
lineCapStart = 1;
strokeWidth = 5;
};
closed = 0;
nodes = (
(300,1544,l),
(150,1544,l),
(0,1544,l)
);
}
);
width = 600;
},
{
anchors = (
{
name = bottom;
pos = (300,-386);
},
{
name = top;
pos = (300,1844);
}
);
layerId = "9BAD4174-69FD-4AED-8503-BDDB7C515042";
shapes = (
{
attr = {
lineCapEnd = 1;
lineCapStart = 1;
strokeWidth = 50;
};
closed = 0;
nodes = (
(300,772,l),
(300,622,l),
(300,386,l),
(300,150,l),
(300,0,l)
);
},
{
attr = {
lineCapEnd = 1;
lineCapStart = 1;
strokeWidth = 50;
};
closed = 0;
nodes = (
(600,1544,l),
(450,1544,l),
(300,1544,l),
(300,1394,l),
(300,1158,l),
(300,922,l),
(300,772,l)
);
},
{
attr = {
lineCapEnd = 1;
lineCapStart = 1;
strokeWidth = 50;
};
closed = 0;
nodes = (
(300,1544,l),
(150,1544,l),
(0,1544,l)
);
}
);
width = 600;
}
);
unicode = 84;
},
{
glyphname = U;
lastChange = "2021-05-13 07:11:52 +0000";
layers = (
{
anchors = (
{
name = bottom;
pos = (300,-386);
},
{
name = top;
pos = (300,1844);
}
);
layerId = m01;
shapes = (
{
attr = {
lineCapEnd = 1;
lineCapStart = 1;
strokeWidth = 5;
};
closed = 0;
nodes = (
(450,150,l),
(450,67,o),
(384,1,o),
(300,0,cs),
(217,0,o),
(150,67,o),
(150,150,c)
);
},
{
attr = {
lineCapEnd = 1;
lineCapStart = 1;
strokeWidth = 5;
};
closed = 0;
nodes = (
(150,772,l),
(150,150,l)
);
},
{
attr = {
lineCapEnd = 1;
lineCapStart = 1;
strokeWidth = 5;
};
closed = 0;
nodes = (
(450,150,l),
(450,772,l)
);
},
{
attr = {
lineCapEnd = 1;
lineCapStart = 1;
strokeWidth = 5;
};
closed = 0;
nodes = (
(450,772,l),
(450,1394,l),
(450,1544,l)
);
},
{
attr = {
lineCapEnd = 1;
lineCapStart = 1;
strokeWidth = 5;
};
closed = 0;
nodes = (
(150,1544,l),
(150,1394,l),
(150,772,l)
);
}
);
width = 600;
},
{
anchors = (
{
name = bottom;
pos = (300,-386);
},
{
name = top;
pos = (300,1844);
}
);
layerId = "9BAD4174-69FD-4AED-8503-BDDB7C515042";
shapes = (
{
attr = {
lineCapEnd = 1;
lineCapStart = 1;
strokeWidth = 50;
};
closed = 0;
nodes = (
(450,150,l),
(450,67,o),
(384,1,o),
(300,0,cs),
(217,0,o),
(150,67,o),
(150,150,c)
);
},
{
attr = {
lineCapEnd = 1;
lineCapStart = 1;
strokeWidth = 50;
};
closed = 0;
nodes = (
(150,772,l),
(150,150,l)
);
},
{
attr = {
lineCapEnd = 1;
lineCapStart = 1;
strokeWidth = 50;
};
closed = 0;
nodes = (
(450,150,l),
(450,772,l)
);
},
{
attr = {
lineCapEnd = 1;
lineCapStart = 1;
strokeWidth = 50;
};
closed = 0;
nodes = (
(450,772,l),
(450,1394,l),
(450,1544,l)
);
},
{
attr = {
lineCapEnd = 1;
lineCapStart = 1;
strokeWidth = 50;
};
closed = 0;
nodes = (
(150,1544,l),
(150,1394,l),
(150,772,l)
);
}
);
width = 600;
}
);
unicode = 85;
},
{
glyphname = V;
lastChange = "2021-05-13 07:11:52 +0000";
layers = (
{
anchors = (
{
name = bottom;
pos = (300,-386);
},
{
name = top;
pos = (300,1844);
}
);
layerId = m01;
shapes = (
{
attr = {
lineCapEnd = 1;
lineCapStart = 1;
strokeWidth = 5;
};
closed = 0;
nodes = (
(150,1544,l),
(150,1394,l),
(150,1158,l),
(150,922,l),
(150,772,l),
(150,622,l),
(150,386,l),
(150,150,l),
(150,0,l),
(300,0,ls),
(385,0,o),
(450,67,o),
(450,150,cs),
(450,386,l),
(450,622,l),
(450,772,l),
(450,922,l),
(450,1158,l),
(450,1394,l),
(450,1544,l)
);
}
);
width = 600;
},
{
anchors = (
{
name = bottom;
pos = (300,-386);
},
{
name = top;
pos = (300,1844);
}
);
layerId = "9BAD4174-69FD-4AED-8503-BDDB7C515042";
shapes = (
{
attr = {
lineCapEnd = 1;
lineCapStart = 1;
strokeWidth = 50;
};
closed = 0;
nodes = (
(150,1544,l),
(150,1394,l),
(150,1158,l),
(150,922,l),
(150,772,l),
(150,622,l),
(150,386,l),
(150,150,l),
(150,0,l),
(300,0,ls),
(385,0,o),
(450,67,o),
(450,150,cs),
(450,386,l),
(450,622,l),
(450,772,l),
(450,922,l),
(450,1158,l),
(450,1394,l),
(450,1544,l)
);
}
);
width = 600;
}
);
unicode = 86;
},
{
glyphname = W;
lastChange = "2021-05-13 07:11:52 +0000";
layers = (
{
anchors = (
{
name = bottom;
pos = (450,-386);
},
{
name = top;
pos = (450,1844);
}
);
layerId = m01;
shapes = (
{
attr = {
lineCapEnd = 1;
lineCapStart = 1;
strokeWidth = 5;
};
closed = 0;
nodes = (
(150,772,l),
(150,622,l),
(150,386,l),
(150,150,ls),
(150,67,o),
(217,0,o),
(300,0,cs),
(384,1,o),
(450,68,o),
(450,150,cs),
(450,386,l),
(450,622,l),
(450,772,l)
);
},
{
attr = {
lineCapEnd = 1;
lineCapStart = 1;
strokeWidth = 5;
};
closed = 0;
nodes = (
(150,1394,l),
(150,1544,l)
);
},
{
attr = {
lineCapEnd = 1;
lineCapStart = 1;
strokeWidth = 5;
};
closed = 0;
nodes = (
(150,1394,l),
(150,1158,l),
(150,922,l),
(150,772,l)
);
},
{
attr = {
lineCapEnd = 1;
lineCapStart = 1;
strokeWidth = 5;
};
closed = 0;
nodes = (
(750,772,l),
(750,622,l),
(750,386,l),
(750,150,ls),
(750,67,o),
(683,0,o),
(600,0,cs),
(516,1,o),
(450,68,o),
(450,150,cs)
);
},
{
attr = {
lineCapEnd = 1;
lineCapStart = 1;
strokeWidth = 5;
};
closed = 0;
nodes = (
(750,1394,l),
(750,1544,l)
);
},
{
attr = {
lineCapEnd = 1;
lineCapStart = 1;
strokeWidth = 5;
};
closed = 0;
nodes = (
(750,1394,l),
(750,1158,l),
(750,922,l),
(750,772,l)
);
},
{
attr = {
lineCapEnd = 1;
lineCapStart = 1;
strokeWidth = 5;
};
closed = 0;
nodes = (
(750,772,l),
(750,622,l),
(750,386,l)
);
},
{
attr = {
lineCapEnd = 1;
strokeWidth = 5;
};
closed = 0;
nodes = (
(750,772,l)
);
},
{
attr = {
lineCapEnd = 1;
strokeWidth = 5;
};
closed = 0;
nodes = (
(450,772,l)
);
},
{
attr = {
lineCapEnd = 1;
lineCapStart = 1;
strokeWidth = 5;
};
closed = 0;
nodes = (
(450,772,l),
(450,622,l),
(450,386,l)
);
},
{
attr = {
lineCapEnd = 1;
strokeWidth = 5;
};
closed = 0;
nodes = (
(450,772,l)
);
}
);
width = 900;
},
{
anchors = (
{
name = bottom;
pos = (450,-386);
},
{
name = top;
pos = (450,1844);
}
);
layerId = "9BAD4174-69FD-4AED-8503-BDDB7C515042";
shapes = (
{
attr = {
lineCapEnd = 1;
lineCapStart = 1;
strokeWidth = 50;
};
closed = 0;
nodes = (
(150,772,l),
(150,622,l),
(150,386,l),
(150,150,ls),
(150,67,o),
(217,0,o),
(300,0,cs),
(384,1,o),
(450,68,o),
(450,150,cs),
(450,386,l),
(450,622,l),
(450,772,l)
);
},
{
attr = {
lineCapEnd = 1;
lineCapStart = 1;
strokeWidth = 50;
};
closed = 0;
nodes = (
(150,1394,l),
(150,1544,l)
);
},
{
attr = {
lineCapEnd = 1;
lineCapStart = 1;
strokeWidth = 50;
};
closed = 0;
nodes = (
(150,1394,l),
(150,1158,l),
(150,922,l),
(150,772,l)
);
},
{
attr = {
lineCapEnd = 1;
lineCapStart = 1;
strokeWidth = 50;
};
closed = 0;
nodes = (
(750,772,l),
(750,622,l),
(750,386,l),
(750,150,ls),
(750,67,o),
(683,0,o),
(600,0,cs),
(516,1,o),
(450,68,o),
(450,150,cs)
);
},
{
attr = {
lineCapEnd = 1;
lineCapStart = 1;
strokeWidth = 50;
};
closed = 0;
nodes = (
(750,1394,l),
(750,1544,l)
);
},
{
attr = {
lineCapEnd = 1;
lineCapStart = 1;
strokeWidth = 50;
};
closed = 0;
nodes = (
(750,1394,l),
(750,1158,l),
(750,922,l),
(750,772,l)
);
},
{
attr = {
lineCapEnd = 1;
lineCapStart = 1;
strokeWidth = 50;
};
closed = 0;
nodes = (
(750,772,l),
(750,622,l),
(750,386,l)
);
},
{
attr = {
lineCapEnd = 1;
strokeWidth = 50;
};
closed = 0;
nodes = (
(750,772,l)
);
},
{
attr = {
lineCapEnd = 1;
strokeWidth = 50;
};
closed = 0;
nodes = (
(450,772,l)
);
},
{
attr = {
lineCapEnd = 1;
lineCapStart = 1;
strokeWidth = 50;
};
closed = 0;
nodes = (
(450,772,l),
(450,622,l),
(450,386,l)
);
},
{
attr = {
lineCapEnd = 1;
strokeWidth = 50;
};
closed = 0;
nodes = (
(450,772,l)
);
}
);
width = 900;
}
);
unicode = 87;
},
{
glyphname = X;
lastChange = "2021-05-13 07:11:52 +0000";
layers = (
{
anchors = (
{
name = bottom;
pos = (450,-386);
},
{
name = top;
pos = (450,1844);
}
);
layerId = m01;
shapes = (
{
attr = {
lineCapEnd = 1;
lineCapStart = 1;
strokeWidth = 5;
};
closed = 0;
nodes = (
(150,150,ls),
(150,67,o),
(217,0,o),
(300,0,cs),
(384,1,o),
(450,67,o),
(450,150,cs),
(450,772,l),
(450,1394,ls),
(450,1477,o),
(382,1544,o),
(300,1544,cs),
(217,1544,o),
(150,1476,o),
(150,1394,c)
);
},
{
attr = {
lineCapEnd = 1;
strokeWidth = 5;
};
closed = 0;
nodes = (
(150,1394,l)
);
},
{
attr = {
lineCapEnd = 1;
lineCapStart = 1;
strokeWidth = 5;
};
closed = 0;
nodes = (
(750,150,l),
(752,67,o),
(684,0,o),
(600,0,cs),
(516,1,o),
(450,67,o),
(450,150,c)
);
},
{
attr = {
lineCapEnd = 1;
lineCapStart = 1;
strokeWidth = 5;
};
closed = 0;
nodes = (
(750,1394,l),
(750,1476,o),
(683,1544,o),
(600,1544,cs),
(518,1544,o),
(450,1477,o),
(450,1394,c)
);
}
);
width = 900;
},
{
anchors = (
{
name = bottom;
pos = (450,-386);
},
{
name = top;
pos = (450,1844);
}
);
layerId = "9BAD4174-69FD-4AED-8503-BDDB7C515042";
shapes = (
{
attr = {
lineCapEnd = 1;
lineCapStart = 1;
strokeWidth = 50;
};
closed = 0;
nodes = (
(150,150,ls),
(150,67,o),
(217,0,o),
(300,0,cs),
(384,1,o),
(450,67,o),
(450,150,cs),
(450,772,l),
(450,1394,ls),
(450,1477,o),
(382,1544,o),
(300,1544,cs),
(217,1544,o),
(150,1476,o),
(150,1394,c)
);
},
{
attr = {
lineCapEnd = 1;
strokeWidth = 50;
};
closed = 0;
nodes = (
(150,1394,l)
);
},
{
attr = {
lineCapEnd = 1;
lineCapStart = 1;
strokeWidth = 50;
};
closed = 0;
nodes = (
(750,150,l),
(752,67,o),
(684,0,o),
(600,0,cs),
(516,1,o),
(450,67,o),
(450,150,c)
);
},
{
attr = {
lineCapEnd = 1;
lineCapStart = 1;
strokeWidth = 50;
};
closed = 0;
nodes = (
(750,1394,l),
(750,1476,o),
(683,1544,o),
(600,1544,cs),
(518,1544,o),
(450,1477,o),
(450,1394,c)
);
}
);
width = 900;
}
);
unicode = 88;
},
{
glyphname = Y;
lastChange = "2021-05-13 07:11:52 +0000";
layers = (
{
anchors = (
{
name = bottom;
pos = (300,-386);
},
{
name = top;
pos = (300,1844);
}
);
layerId = m01;
shapes = (
{
attr = {
lineCapEnd = 1;
lineCapStart = 1;
strokeWidth = 5;
};
closed = 0;
nodes = (
(450,772,l),
(450,622,l),
(450,386,l),
(450,150,ls),
(450,68,o),
(384,1,o),
(300,0,cs),
(217,0,o),
(150,67,o),
(150,150,cs)
);
},
{
attr = {
lineCapEnd = 1;
lineCapStart = 1;
strokeWidth = 5;
};
closed = 0;
nodes = (
(450,922,l)
);
},
{
attr = {
lineCapEnd = 1;
lineCapStart = 1;
strokeWidth = 5;
};
closed = 0;
nodes = (
(450,772,l),
(450,922,l),
(450,1158,l),
(450,1394,l),
(450,1544,l)
);
},
{
attr = {
lineCapEnd = 1;
lineCapStart = 1;
strokeWidth = 5;
};
closed = 0;
nodes = (
(450,922,ls),
(450,840,o),
(383,773,o),
(300,772,cs),
(217,772,o),
(150,839,o),
(150,922,cs)
);
},
{
attr = {
lineCapEnd = 1;
lineCapStart = 1;
strokeWidth = 5;
};
closed = 0;
nodes = (
(150,922,l),
(150,1158,l),
(150,1394,l),
(150,1544,l)
);
}
);
width = 600;
},
{
anchors = (
{
name = bottom;
pos = (300,-386);
},
{
name = top;
pos = (300,1844);
}
);
layerId = "9BAD4174-69FD-4AED-8503-BDDB7C515042";
shapes = (
{
attr = {
lineCapEnd = 1;
lineCapStart = 1;
strokeWidth = 50;
};
closed = 0;
nodes = (
(450,772,l),
(450,622,l),
(450,386,l),
(450,150,ls),
(450,68,o),
(384,1,o),
(300,0,cs),
(217,0,o),
(150,67,o),
(150,150,cs)
);
},
{
attr = {
lineCapEnd = 1;
lineCapStart = 1;
strokeWidth = 50;
};
closed = 0;
nodes = (
(450,922,l)
);
},
{
attr = {
lineCapEnd = 1;
lineCapStart = 1;
strokeWidth = 50;
};
closed = 0;
nodes = (
(450,772,l),
(450,922,l),
(450,1158,l),
(450,1394,l),
(450,1544,l)
);
},
{
attr = {
lineCapEnd = 1;
lineCapStart = 1;
strokeWidth = 50;
};
closed = 0;
nodes = (
(450,922,ls),
(450,840,o),
(383,773,o),
(300,772,cs),
(217,772,o),
(150,839,o),
(150,922,cs)
);
},
{
attr = {
lineCapEnd = 1;
lineCapStart = 1;
strokeWidth = 50;
};
closed = 0;
nodes = (
(150,922,l),
(150,1158,l),
(150,1394,l),
(150,1544,l)
);
}
);
width = 600;
}
);
unicode = 89;
},
{
glyphname = Z;
lastChange = "2021-05-13 07:11:52 +0000";
layers = (
{
anchors = (
{
name = bottom;
pos = (300,-386);
},
{
name = top;
pos = (300,1844);
}
);
layerId = m01;
shapes = (
{
attr = {
lineCapEnd = 1;
lineCapStart = 1;
strokeWidth = 5;
};
closed = 0;
nodes = (
(300,772,l),
(217,772,o),
(150,705,o),
(150,622,cs)
);
},
{
attr = {
lineCapEnd = 1;
lineCapStart = 1;
strokeWidth = 5;
};
closed = 0;
nodes = (
(150,622,l),
(150,386,l),
(150,150,l),
(150,0,l),
(300,0,l),
(450,0,l)
);
},
{
attr = {
lineCapEnd = 1;
lineCapStart = 1;
strokeWidth = 5;
};
closed = 0;
nodes = (
(450,922,l),
(450,840,o),
(383,773,o),
(300,772,cs)
);
},
{
attr = {
lineCapEnd = 1;
lineCapStart = 1;
strokeWidth = 5;
};
closed = 0;
nodes = (
(450,922,l),
(450,1158,l),
(450,1394,l),
(450,1544,l),
(300,1544,l),
(150,1544,l)
);
}
);
width = 600;
},
{
anchors = (
{
name = bottom;
pos = (300,-386);
},
{
name = top;
pos = (300,1844);
}
);
layerId = "9BAD4174-69FD-4AED-8503-BDDB7C515042";
shapes = (
{
attr = {
lineCapEnd = 1;
lineCapStart = 1;
strokeWidth = 50;
};
closed = 0;
nodes = (
(300,772,l),
(217,772,o),
(150,705,o),
(150,622,cs)
);
},
{
attr = {
lineCapEnd = 1;
lineCapStart = 1;
strokeWidth = 50;
};
closed = 0;
nodes = (
(150,622,l),
(150,386,l),
(150,150,l),
(150,0,l),
(300,0,l),
(450,0,l)
);
},
{
attr = {
lineCapEnd = 1;
lineCapStart = 1;
strokeWidth = 50;
};
closed = 0;
nodes = (
(450,922,l),
(450,840,o),
(383,773,o),
(300,772,cs)
);
},
{
attr = {
lineCapEnd = 1;
lineCapStart = 1;
strokeWidth = 50;
};
closed = 0;
nodes = (
(450,922,l),
(450,1158,l),
(450,1394,l),
(450,1544,l),
(300,1544,l),
(150,1544,l)
);
}
);
width = 600;
}
);
unicode = 90;
},
{
glyphname = Bsmall;
lastChange = "2021-05-13 07:11:52 +0000";
layers = (
{
anchors = (
{
name = bottom;
pos = (300,-386);
},
{
name = top;
pos = (300,1158);
}
);
layerId = m01;
shapes = (
{
attr = {
lineCapEnd = 1;
lineCapStart = 1;
strokeWidth = 5;
};
closed = 0;
nodes = (
(150,0,l),
(150,150,l),
(150,622,l),
(150,772,l)
);
},
{
attr = {
lineCapEnd = 1;
lineCapStart = 1;
strokeWidth = 5;
};
closed = 0;
nodes = (
(150,0,l),
(300,0,ls),
(384,0,o),
(450,65,o),
(450,150,cs),
(450,300,o),
(150,472,o),
(150,622,cs)
);
},
{
attr = {
lineCapEnd = 1;
lineCapStart = 1;
strokeWidth = 5;
};
closed = 0;
nodes = (
(300,386,l),
(375,467,o),
(450,547,o),
(450,622,cs),
(450,705,o),
(382,772,o),
(300,772,cs),
(150,772,l)
);
}
);
width = 600;
},
{
anchors = (
{
name = bottom;
pos = (300,-386);
},
{
name = top;
pos = (300,1158);
}
);
layerId = "9BAD4174-69FD-4AED-8503-BDDB7C515042";
shapes = (
{
attr = {
lineCapEnd = 1;
lineCapStart = 1;
strokeWidth = 50;
};
closed = 0;
nodes = (
(150,0,l),
(150,150,l),
(150,622,l),
(150,772,l)
);
},
{
attr = {
lineCapEnd = 1;
lineCapStart = 1;
strokeWidth = 50;
};
closed = 0;
nodes = (
(150,0,l),
(300,0,ls),
(384,0,o),
(450,65,o),
(450,150,cs),
(450,300,o),
(150,472,o),
(150,622,cs)
);
},
{
attr = {
lineCapEnd = 1;
lineCapStart = 1;
strokeWidth = 50;
};
closed = 0;
nodes = (
(300,386,l),
(375,467,o),
(450,547,o),
(450,622,cs),
(450,705,o),
(382,772,o),
(300,772,cs),
(150,772,l)
);
}
);
width = 600;
}
);
unicode = 665;
},
{
glyphname = Gsmall;
lastChange = "2021-05-13 07:11:52 +0000";
layers = (
{
anchors = (
{
name = bottom;
pos = (300,-386);
},
{
name = top;
pos = (300,1158);
}
);
layerId = m01;
shapes = (
{
attr = {
lineCapEnd = 1;
lineCapStart = 1;
strokeWidth = 5;
};
closed = 0;
nodes = (
(450,622,ls),
(450,705,o),
(383,772,o),
(300,772,cs),
(217,772,o),
(150,705,o),
(150,622,cs)
);
},
{
attr = {
lineCapEnd = 1;
lineCapStart = 1;
strokeWidth = 5;
};
closed = 0;
nodes = (
(300,0,ls),
(217,0,o),
(150,64,o),
(150,150,cs)
);
},
{
attr = {
lineCapEnd = 1;
lineCapStart = 1;
strokeWidth = 5;
};
closed = 0;
nodes = (
(150,622,l),
(150,386,l),
(150,150,l)
);
},
{
attr = {
lineCapEnd = 1;
lineCapStart = 1;
strokeWidth = 5;
};
closed = 0;
nodes = (
(450,150,ls),
(450,67,o),
(385,1,o),
(300,0,cs)
);
},
{
attr = {
lineCapEnd = 1;
lineCapStart = 1;
strokeWidth = 5;
};
closed = 0;
nodes = (
(450,150,l),
(450,386,l)
);
},
{
attr = {
lineCapEnd = 1;
lineCapStart = 1;
strokeWidth = 5;
};
closed = 0;
nodes = (
(300,386,l),
(450,386,l)
);
}
);
width = 600;
},
{
anchors = (
{
name = bottom;
pos = (300,-386);
},
{
name = top;
pos = (300,1158);
}
);
layerId = "9BAD4174-69FD-4AED-8503-BDDB7C515042";
shapes = (
{
attr = {
lineCapEnd = 1;
lineCapStart = 1;
strokeWidth = 50;
};
closed = 0;
nodes = (
(450,622,ls),
(450,705,o),
(383,772,o),
(300,772,cs),
(217,772,o),
(150,705,o),
(150,622,cs)
);
},
{
attr = {
lineCapEnd = 1;
lineCapStart = 1;
strokeWidth = 50;
};
closed = 0;
nodes = (
(300,0,ls),
(217,0,o),
(150,64,o),
(150,150,cs)
);
},
{
attr = {
lineCapEnd = 1;
lineCapStart = 1;
strokeWidth = 50;
};
closed = 0;
nodes = (
(150,622,l),
(150,386,l),
(150,150,l)
);
},
{
attr = {
lineCapEnd = 1;
lineCapStart = 1;
strokeWidth = 50;
};
closed = 0;
nodes = (
(450,150,ls),
(450,67,o),
(385,1,o),
(300,0,cs)
);
},
{
attr = {
lineCapEnd = 1;
lineCapStart = 1;
strokeWidth = 50;
};
closed = 0;
nodes = (
(450,150,l),
(450,386,l)
);
},
{
attr = {
lineCapEnd = 1;
lineCapStart = 1;
strokeWidth = 50;
};
closed = 0;
nodes = (
(300,386,l),
(450,386,l)
);
}
);
width = 600;
}
);
unicode = 610;
},
{
glyphname = Gsmallhook;
lastChange = "2021-05-13 07:11:52 +0000";
layers = (
{
anchors = (
{
name = bottom;
pos = (300,-386);
},
{
name = top;
pos = (300,1158);
}
);
layerId = m01;
shapes = (
{
attr = {
lineCapEnd = 1;
lineCapStart = 1;
strokeWidth = 5;
};
closed = 0;
nodes = (
(450,622,ls),
(450,705,o),
(383,772,o),
(300,772,cs),
(217,772,o),
(150,705,o),
(150,622,cs)
);
},
{
attr = {
lineCapEnd = 1;
lineCapStart = 1;
strokeWidth = 5;
};
closed = 0;
nodes = (
(300,0,ls),
(217,0,o),
(150,64,o),
(150,150,cs)
);
},
{
attr = {
lineCapEnd = 1;
lineCapStart = 1;
strokeWidth = 5;
};
closed = 0;
nodes = (
(150,622,l),
(150,386,l),
(150,150,l)
);
},
{
attr = {
lineCapEnd = 1;
lineCapStart = 1;
strokeWidth = 5;
};
closed = 0;
nodes = (
(450,150,ls),
(450,67,o),
(385,1,o),
(300,0,cs)
);
},
{
attr = {
lineCapEnd = 1;
lineCapStart = 1;
strokeWidth = 5;
};
closed = 0;
nodes = (
(450,150,l),
(450,386,l)
);
},
{
attr = {
lineCapEnd = 1;
lineCapStart = 1;
strokeWidth = 5;
};
closed = 0;
nodes = (
(300,386,l),
(450,386,l)
);
},
{
attr = {
lineCapEnd = 1;
lineCapStart = 1;
strokeWidth = 5;
};
closed = 0;
nodes = (
(450,622,l),
(450,772,ls),
(450,834,o),
(500,885,o),
(563,885,cs)
);
}
);
width = 600;
},
{
anchors = (
{
name = bottom;
pos = (300,-386);
},
{
name = top;
pos = (300,1158);
}
);
layerId = "9BAD4174-69FD-4AED-8503-BDDB7C515042";
shapes = (
{
attr = {
lineCapEnd = 1;
lineCapStart = 1;
strokeWidth = 50;
};
closed = 0;
nodes = (
(450,622,ls),
(450,705,o),
(383,772,o),
(300,772,cs),
(217,772,o),
(150,705,o),
(150,622,cs)
);
},
{
attr = {
lineCapEnd = 1;
lineCapStart = 1;
strokeWidth = 50;
};
closed = 0;
nodes = (
(300,0,ls),
(217,0,o),
(150,64,o),
(150,150,cs)
);
},
{
attr = {
lineCapEnd = 1;
lineCapStart = 1;
strokeWidth = 50;
};
closed = 0;
nodes = (
(150,622,l),
(150,386,l),
(150,150,l)
);
},
{
attr = {
lineCapEnd = 1;
lineCapStart = 1;
strokeWidth = 50;
};
closed = 0;
nodes = (
(450,150,ls),
(450,67,o),
(385,1,o),
(300,0,cs)
);
},
{
attr = {
lineCapEnd = 1;
lineCapStart = 1;
strokeWidth = 50;
};
closed = 0;
nodes = (
(450,150,l),
(450,386,l)
);
},
{
attr = {
lineCapEnd = 1;
lineCapStart = 1;
strokeWidth = 50;
};
closed = 0;
nodes = (
(300,386,l),
(450,386,l)
);
},
{
attr = {
lineCapEnd = 1;
lineCapStart = 1;
strokeWidth = 50;
};
closed = 0;
nodes = (
(450,622,l),
(450,772,ls),
(450,834,o),
(500,885,o),
(563,885,cs)
);
}
);
width = 600;
}
);
unicode = 667;
},
{
glyphname = Hsmall;
lastChange = "2021-05-13 07:11:52 +0000";
layers = (
{
anchors = (
{
name = bottom;
pos = (300,-386);
},
{
name = top;
pos = (300,1158);
}
);
layerId = m01;
shapes = (
{
attr = {
lineCapEnd = 1;
lineCapStart = 1;
strokeWidth = 5;
};
closed = 0;
nodes = (
(150,0,l),
(150,150,l),
(150,386,l),
(150,622,l),
(150,772,l)
);
},
{
attr = {
lineCapEnd = 1;
lineCapStart = 1;
strokeWidth = 5;
};
closed = 0;
nodes = (
(150,386,l),
(300,386,l),
(450,386,l)
);
},
{
attr = {
lineCapEnd = 1;
lineCapStart = 1;
strokeWidth = 5;
};
closed = 0;
nodes = (
(450,0,l),
(450,150,l),
(450,386,l),
(450,622,l),
(450,772,l)
);
}
);
width = 600;
},
{
anchors = (
{
name = bottom;
pos = (300,-386);
},
{
name = top;
pos = (300,1158);
}
);
layerId = "9BAD4174-69FD-4AED-8503-BDDB7C515042";
shapes = (
{
attr = {
lineCapEnd = 1;
lineCapStart = 1;
strokeWidth = 50;
};
closed = 0;
nodes = (
(150,0,l),
(150,150,l),
(150,386,l),
(150,622,l),
(150,772,l)
);
},
{
attr = {
lineCapEnd = 1;
lineCapStart = 1;
strokeWidth = 50;
};
closed = 0;
nodes = (
(150,386,l),
(300,386,l),
(450,386,l)
);
},
{
attr = {
lineCapEnd = 1;
lineCapStart = 1;
strokeWidth = 50;
};
closed = 0;
nodes = (
(450,0,l),
(450,150,l),
(450,386,l),
(450,622,l),
(450,772,l)
);
}
);
width = 600;
}
);
unicode = 668;
},
{
glyphname = Ismall;
lastChange = "2021-05-13 07:11:52 +0000";
layers = (
{
anchors = (
{
name = bottom;
pos = (300,-386);
},
{
name = top;
pos = (300,1158);
}
);
layerId = m01;
shapes = (
{
attr = {
lineCapEnd = 1;
lineCapStart = 1;
strokeWidth = 5;
};
closed = 0;
nodes = (
(150,0,l),
(300,0,l),
(300,150,l),
(300,386,l),
(300,622,l),
(300,772,l),
(150,772,l)
);
},
{
attr = {
lineCapEnd = 1;
lineCapStart = 1;
strokeWidth = 5;
};
closed = 0;
nodes = (
(450,772,l),
(300,772,l)
);
},
{
attr = {
lineCapEnd = 1;
lineCapStart = 1;
strokeWidth = 5;
};
closed = 0;
nodes = (
(300,0,l),
(450,0,l)
);
}
);
width = 600;
},
{
anchors = (
{
name = bottom;
pos = (300,-386);
},
{
name = top;
pos = (300,1158);
}
);
layerId = "9BAD4174-69FD-4AED-8503-BDDB7C515042";
shapes = (
{
attr = {
lineCapEnd = 1;
lineCapStart = 1;
strokeWidth = 50;
};
closed = 0;
nodes = (
(150,0,l),
(300,0,l),
(300,150,l),
(300,386,l),
(300,622,l),
(300,772,l),
(150,772,l)
);
},
{
attr = {
lineCapEnd = 1;
lineCapStart = 1;
strokeWidth = 50;
};
closed = 0;
nodes = (
(450,772,l),
(300,772,l)
);
},
{
attr = {
lineCapEnd = 1;
lineCapStart = 1;
strokeWidth = 50;
};
closed = 0;
nodes = (
(300,0,l),
(450,0,l)
);
}
);
width = 600;
}
);
unicode = 618;
},
{
glyphname = Lsmall;
lastChange = "2021-05-13 07:11:52 +0000";
layers = (
{
anchors = (
{
name = bottom;
pos = (300,-386);
},
{
name = top;
pos = (225,1158);
}
);
layerId = m01;
shapes = (
{
attr = {
lineCapEnd = 1;
lineCapStart = 1;
strokeWidth = 5;
};
closed = 0;
nodes = (
(150,0,l),
(150,150,l),
(150,386,l),
(150,622,l),
(150,772,l)
);
},
{
attr = {
lineCapEnd = 1;
lineCapStart = 1;
strokeWidth = 5;
};
closed = 0;
nodes = (
(450,150,ls),
(450,65,o),
(384,1,o),
(300,0,cs)
);
},
{
attr = {
lineCapEnd = 1;
lineCapStart = 1;
strokeWidth = 5;
};
closed = 0;
nodes = (
(150,0,l),
(300,0,l)
);
}
);
width = 600;
},
{
anchors = (
{
name = bottom;
pos = (300,-386);
},
{
name = top;
pos = (225,1158);
}
);
layerId = "9BAD4174-69FD-4AED-8503-BDDB7C515042";
shapes = (
{
attr = {
lineCapEnd = 1;
lineCapStart = 1;
strokeWidth = 50;
};
closed = 0;
nodes = (
(150,0,l),
(150,150,l),
(150,386,l),
(150,622,l),
(150,772,l)
);
},
{
attr = {
lineCapEnd = 1;
lineCapStart = 1;
strokeWidth = 50;
};
closed = 0;
nodes = (
(450,150,ls),
(450,65,o),
(384,1,o),
(300,0,cs)
);
},
{
attr = {
lineCapEnd = 1;
lineCapStart = 1;
strokeWidth = 50;
};
closed = 0;
nodes = (
(150,0,l),
(300,0,l)
);
}
);
width = 600;
}
);
unicode = 671;
},
{
glyphname = Nsmall;
lastChange = "2021-05-13 07:11:52 +0000";
layers = (
{
anchors = (
{
name = bottom;
pos = (300,-386);
},
{
name = top;
pos = (300,1158);
}
);
layerId = m01;
shapes = (
{
attr = {
lineCapEnd = 1;
lineCapStart = 1;
strokeWidth = 5;
};
closed = 0;
nodes = (
(150,0,l),
(150,150,l),
(150,386,l),
(150,622,l),
(150,772,l)
);
},
{
attr = {
lineCapEnd = 1;
lineCapStart = 1;
strokeWidth = 5;
};
closed = 0;
nodes = (
(150,622,ls),
(150,472,o),
(450,300,o),
(450,150,cs)
);
},
{
attr = {
lineCapEnd = 1;
lineCapStart = 1;
strokeWidth = 5;
};
closed = 0;
nodes = (
(450,0,l),
(450,150,l),
(450,386,l),
(450,622,l),
(450,772,l)
);
}
);
width = 600;
},
{
anchors = (
{
name = bottom;
pos = (300,-386);
},
{
name = top;
pos = (300,1158);
}
);
layerId = "9BAD4174-69FD-4AED-8503-BDDB7C515042";
shapes = (
{
attr = {
lineCapEnd = 1;
lineCapStart = 1;
strokeWidth = 50;
};
closed = 0;
nodes = (
(150,0,l),
(150,150,l),
(150,386,l),
(150,622,l),
(150,772,l)
);
},
{
attr = {
lineCapEnd = 1;
lineCapStart = 1;
strokeWidth = 50;
};
closed = 0;
nodes = (
(150,622,ls),
(150,472,o),
(450,300,o),
(450,150,cs)
);
},
{
attr = {
lineCapEnd = 1;
lineCapStart = 1;
strokeWidth = 50;
};
closed = 0;
nodes = (
(450,0,l),
(450,150,l),
(450,386,l),
(450,622,l),
(450,772,l)
);
}
);
width = 600;
}
);
unicode = 628;
},
{
glyphname = OEsmall;
lastChange = "2021-05-13 07:11:52 +0000";
layers = (
{
anchors = (
{
name = bottom;
pos = (450,-386);
},
{
name = top;
pos = (450,1158);
}
);
layerId = m01;
shapes = (
{
attr = {
lineCapEnd = 1;
lineCapStart = 1;
strokeWidth = 5;
};
closed = 0;
nodes = (
(300,772,ls),
(217,772,o),
(150,705,o),
(150,622,cs)
);
},
{
attr = {
lineCapEnd = 1;
lineCapStart = 1;
strokeWidth = 5;
};
closed = 0;
nodes = (
(300,0,ls),
(217,0,o),
(150,64,o),
(150,150,cs)
);
},
{
attr = {
lineCapEnd = 1;
lineCapStart = 1;
strokeWidth = 5;
};
closed = 0;
nodes = (
(150,622,l),
(150,386,l),
(150,150,l)
);
},
{
attr = {
lineCapEnd = 1;
lineCapStart = 1;
strokeWidth = 5;
};
closed = 0;
nodes = (
(300,0,l),
(450,0,l),
(450,150,l),
(450,386,l),
(450,622,l),
(450,772,l),
(300,772,l)
);
},
{
attr = {
lineCapEnd = 1;
lineCapStart = 1;
strokeWidth = 5;
};
closed = 0;
nodes = (
(450,386,l),
(600,386,l)
);
},
{
attr = {
lineCapEnd = 1;
lineCapStart = 1;
strokeWidth = 5;
};
closed = 0;
nodes = (
(750,772,l),
(600,772,l),
(450,772,l)
);
},
{
attr = {
lineCapEnd = 1;
lineCapStart = 1;
strokeWidth = 5;
};
closed = 0;
nodes = (
(450,0,l),
(600,0,l),
(750,0,l)
);
}
);
width = 900;
},
{
anchors = (
{
name = bottom;
pos = (450,-386);
},
{
name = top;
pos = (450,1158);
}
);
layerId = "9BAD4174-69FD-4AED-8503-BDDB7C515042";
shapes = (
{
attr = {
lineCapEnd = 1;
lineCapStart = 1;
strokeWidth = 50;
};
closed = 0;
nodes = (
(300,772,ls),
(217,772,o),
(150,705,o),
(150,622,cs)
);
},
{
attr = {
lineCapEnd = 1;
lineCapStart = 1;
strokeWidth = 50;
};
closed = 0;
nodes = (
(300,0,ls),
(217,0,o),
(150,64,o),
(150,150,cs)
);
},
{
attr = {
lineCapEnd = 1;
lineCapStart = 1;
strokeWidth = 50;
};
closed = 0;
nodes = (
(150,622,l),
(150,386,l),
(150,150,l)
);
},
{
attr = {
lineCapEnd = 1;
lineCapStart = 1;
strokeWidth = 50;
};
closed = 0;
nodes = (
(300,0,l),
(450,0,l),
(450,150,l),
(450,386,l),
(450,622,l),
(450,772,l),
(300,772,l)
);
},
{
attr = {
lineCapEnd = 1;
lineCapStart = 1;
strokeWidth = 50;
};
closed = 0;
nodes = (
(450,386,l),
(600,386,l)
);
},
{
attr = {
lineCapEnd = 1;
lineCapStart = 1;
strokeWidth = 50;
};
closed = 0;
nodes = (
(750,772,l),
(600,772,l),
(450,772,l)
);
},
{
attr = {
lineCapEnd = 1;
lineCapStart = 1;
strokeWidth = 50;
};
closed = 0;
nodes = (
(450,0,l),
(600,0,l),
(750,0,l)
);
}
);
width = 900;
}
);
unicode = 630;
},
{
glyphname = Rsmall;
lastChange = "2021-05-13 07:11:52 +0000";
layers = (
{
anchors = (
{
name = bottom;
pos = (300,-386);
},
{
name = top;
pos = (300,1158);
}
);
layerId = m01;
shapes = (
{
attr = {
lineCapEnd = 1;
lineCapStart = 1;
strokeWidth = 5;
};
closed = 0;
nodes = (
(150,0,l),
(150,150,l),
(150,386,l),
(150,622,l),
(150,772,l),
(300,772,ls),
(382,772,o),
(450,705,o),
(450,622,cs),
(450,472,o),
(150,300,o),
(150,150,cs)
);
},
{
attr = {
lineCapEnd = 1;
lineCapStart = 1;
strokeWidth = 5;
};
closed = 0;
nodes = (
(450,0,l),
(450,150,ls),
(450,225,o),
(375,305,o),
(300,386,c)
);
}
);
width = 600;
},
{
anchors = (
{
name = bottom;
pos = (300,-386);
},
{
name = top;
pos = (300,1158);
}
);
layerId = "9BAD4174-69FD-4AED-8503-BDDB7C515042";
shapes = (
{
attr = {
lineCapEnd = 1;
lineCapStart = 1;
strokeWidth = 50;
};
closed = 0;
nodes = (
(150,0,l),
(150,150,l),
(150,386,l),
(150,622,l),
(150,772,l),
(300,772,ls),
(382,772,o),
(450,705,o),
(450,622,cs),
(450,472,o),
(150,300,o),
(150,150,cs)
);
},
{
attr = {
lineCapEnd = 1;
lineCapStart = 1;
strokeWidth = 50;
};
closed = 0;
nodes = (
(450,0,l),
(450,150,ls),
(450,225,o),
(375,305,o),
(300,386,c)
);
}
);
width = 600;
}
);
unicode = 640;
},
{
glyphname = Ysmall;
lastChange = "2021-05-13 07:11:52 +0000";
layers = (
{
anchors = (
{
name = bottom;
pos = (300,-386);
},
{
name = top;
pos = (300,1158);
}
);
layerId = m01;
shapes = (
{
attr = {
lineCapEnd = 1;
lineCapStart = 1;
strokeWidth = 5;
};
closed = 0;
nodes = (
(150,622,l),
(150,772,l)
);
},
{
attr = {
lineCapEnd = 1;
lineCapStart = 1;
strokeWidth = 5;
};
closed = 0;
nodes = (
(150,622,ls),
(150,472,o),
(450,300,o),
(450,150,cs),
(450,65,o),
(384,1,o),
(300,0,cs),
(217,0,o),
(150,66,o),
(150,150,cs)
);
},
{
attr = {
lineCapEnd = 1;
lineCapStart = 1;
strokeWidth = 5;
};
closed = 0;
nodes = (
(450,150,l),
(450,386,l),
(450,622,l),
(450,772,l)
);
}
);
width = 600;
},
{
anchors = (
{
name = bottom;
pos = (300,-386);
},
{
name = top;
pos = (300,1158);
}
);
layerId = "9BAD4174-69FD-4AED-8503-BDDB7C515042";
shapes = (
{
attr = {
lineCapEnd = 1;
lineCapStart = 1;
strokeWidth = 50;
};
closed = 0;
nodes = (
(150,622,l),
(150,772,l)
);
},
{
attr = {
lineCapEnd = 1;
lineCapStart = 1;
strokeWidth = 50;
};
closed = 0;
nodes = (
(150,622,ls),
(150,472,o),
(450,300,o),
(450,150,cs),
(450,65,o),
(384,1,o),
(300,0,cs),
(217,0,o),
(150,66,o),
(150,150,cs)
);
},
{
attr = {
lineCapEnd = 1;
lineCapStart = 1;
strokeWidth = 50;
};
closed = 0;
nodes = (
(450,150,l),
(450,386,l),
(450,622,l),
(450,772,l)
);
}
);
width = 600;
}
);
unicode = 655;
},
{
glyphname = a;
lastChange = "2021-05-13 07:11:52 +0000";
layers = (
{
anchors = (
{
name = bottom;
pos = (300,-386);
},
{
name = top;
pos = (300,1158);
}
);
layerId = m01;
shapes = (
{
attr = {
lineCapEnd = 1;
lineCapStart = 1;
strokeWidth = 5;
};
closed = 0;
nodes = (
(450,150,l),
(450,66,o),
(383,1,o),
(300,0,cs),
(217,0,o),
(150,66,o),
(150,150,cs),
(150,300,o),
(450,472,o),
(450,622,cs),
(450,704,o),
(382,772,o),
(300,772,cs),
(217,772,o),
(150,704,o),
(150,622,cs)
);
},
{
attr = {
lineCapEnd = 1;
lineCapStart = 1;
strokeWidth = 5;
};
closed = 0;
nodes = (
(600,0,l),
(517,0,o),
(450,66,o),
(450,150,cs),
(450,386,l),
(450,622,l)
);
}
);
width = 600;
},
{
anchors = (
{
name = bottom;
pos = (300,-386);
},
{
name = top;
pos = (300,1158);
}
);
layerId = "9BAD4174-69FD-4AED-8503-BDDB7C515042";
shapes = (
{
attr = {
lineCapEnd = 1;
lineCapStart = 1;
strokeWidth = 50;
};
closed = 0;
nodes = (
(450,150,l),
(450,66,o),
(383,1,o),
(300,0,cs),
(217,0,o),
(150,66,o),
(150,150,cs),
(150,300,o),
(450,472,o),
(450,622,cs),
(450,704,o),
(382,772,o),
(300,772,cs),
(217,772,o),
(150,704,o),
(150,622,cs)
);
},
{
attr = {
lineCapEnd = 1;
lineCapStart = 1;
strokeWidth = 50;
};
closed = 0;
nodes = (
(600,0,l),
(517,0,o),
(450,66,o),
(450,150,cs),
(450,386,l),
(450,622,l)
);
}
);
width = 600;
}
);
unicode = 97;
},
{
glyphname = "alpha-latin";
lastChange = "2021-05-13 07:11:52 +0000";
layers = (
{
anchors = (
{
name = bottom;
pos = (300,-386);
},
{
name = top;
pos = (300,1158);
}
);
layerId = m01;
shapes = (
{
attr = {
lineCapEnd = 1;
lineCapStart = 1;
strokeWidth = 5;
};
closed = 0;
nodes = (
(450,622,ls),
(450,705,o),
(383,772,o),
(300,772,cs),
(217,772,o),
(150,705,o),
(150,622,cs),
(150,386,l),
(150,150,ls),
(150,64,o),
(217,0,o),
(300,0,cs),
(385,1,o),
(450,67,o),
(450,150,cs)
);
},
{
attr = {
lineCapEnd = 1;
lineCapStart = 1;
strokeWidth = 5;
};
closed = 0;
nodes = (
(450,0,l),
(450,150,l),
(450,386,l),
(450,622,l),
(450,772,l)
);
}
);
width = 600;
},
{
anchors = (
{
name = bottom;
pos = (300,-386);
},
{
name = top;
pos = (300,1158);
}
);
layerId = "9BAD4174-69FD-4AED-8503-BDDB7C515042";
shapes = (
{
attr = {
lineCapEnd = 1;
lineCapStart = 1;
strokeWidth = 50;
};
closed = 0;
nodes = (
(450,622,ls),
(450,705,o),
(383,772,o),
(300,772,cs),
(217,772,o),
(150,705,o),
(150,622,cs),
(150,386,l),
(150,150,ls),
(150,64,o),
(217,0,o),
(300,0,cs),
(385,1,o),
(450,67,o),
(450,150,cs)
);
},
{
attr = {
lineCapEnd = 1;
lineCapStart = 1;
strokeWidth = 50;
};
closed = 0;
nodes = (
(450,0,l),
(450,150,l),
(450,386,l),
(450,622,l),
(450,772,l)
);
}
);
width = 600;
}
);
unicode = 593;
},
{
glyphname = ae;
lastChange = "2021-05-13 07:11:52 +0000";
layers = (
{
anchors = (
{
name = bottom;
pos = (450,-386);
},
{
name = top;
pos = (450,1158);
}
);
layerId = m01;
shapes = (
{
attr = {
lineCapEnd = 1;
lineCapStart = 1;
strokeWidth = 5;
};
closed = 0;
nodes = (
(450,150,l),
(450,66,o),
(383,1,o),
(300,0,cs),
(217,0,o),
(150,66,o),
(150,150,cs),
(150,300,o),
(450,472,o),
(450,622,cs),
(450,704,o),
(382,772,o),
(300,772,cs),
(217,772,o),
(150,704,o),
(150,622,cs)
);
},
{
attr = {
lineCapEnd = 1;
lineCapStart = 1;
strokeWidth = 5;
};
closed = 0;
nodes = (
(450,622,l)
);
},
{
attr = {
lineCapEnd = 1;
lineCapStart = 1;
strokeWidth = 5;
};
closed = 0;
nodes = (
(450,150,l),
(450,386,l),
(450,622,ls),
(450,704,o),
(517,772,o),
(600,772,cs),
(682,772,o),
(750,705,o),
(750,622,cs),
(750,472,o),
(450,300,o),
(450,150,cs),
(450,66,o),
(517,0,o),
(600,0,cs),
(684,1,o),
(750,65,o),
(750,150,cs)
);
}
);
width = 900;
},
{
anchors = (
{
name = bottom;
pos = (450,-386);
},
{
name = top;
pos = (450,1158);
}
);
layerId = "9BAD4174-69FD-4AED-8503-BDDB7C515042";
shapes = (
{
attr = {
lineCapEnd = 1;
lineCapStart = 1;
strokeWidth = 50;
};
closed = 0;
nodes = (
(450,150,l),
(450,66,o),
(383,1,o),
(300,0,cs),
(217,0,o),
(150,66,o),
(150,150,cs),
(150,300,o),
(450,472,o),
(450,622,cs),
(450,704,o),
(382,772,o),
(300,772,cs),
(217,772,o),
(150,704,o),
(150,622,cs)
);
},
{
attr = {
lineCapEnd = 1;
lineCapStart = 1;
strokeWidth = 50;
};
closed = 0;
nodes = (
(450,622,l)
);
},
{
attr = {
lineCapEnd = 1;
lineCapStart = 1;
strokeWidth = 50;
};
closed = 0;
nodes = (
(450,150,l),
(450,386,l),
(450,622,ls),
(450,704,o),
(517,772,o),
(600,772,cs),
(682,772,o),
(750,705,o),
(750,622,cs),
(750,472,o),
(450,300,o),
(450,150,cs),
(450,66,o),
(517,0,o),
(600,0,cs),
(684,1,o),
(750,65,o),
(750,150,cs)
);
}
);
width = 900;
}
);
unicode = 230;
},
{
glyphname = b;
lastChange = "2021-05-13 07:11:52 +0000";
layers = (
{
anchors = (
{
name = bottom;
pos = (300,-386);
},
{
name = top;
pos = (300,1844);
}
);
layerId = m01;
shapes = (
{
attr = {
lineCapEnd = 1;
lineCapStart = 1;
strokeWidth = 5;
};
closed = 0;
nodes = (
(150,150,l),
(150,386,l),
(150,622,l),
(150,772,l)
);
},
{
attr = {
lineCapEnd = 1;
lineCapStart = 1;
strokeWidth = 5;
};
closed = 0;
nodes = (
(450,150,l),
(450,386,l)
);
},
{
attr = {
lineCapEnd = 1;
lineCapStart = 1;
strokeWidth = 5;
};
closed = 0;
nodes = (
(150,772,l),
(150,922,l),
(150,1158,l),
(150,1394,l),
(150,1544,l)
);
},
{
attr = {
lineCapEnd = 1;
lineCapStart = 1;
strokeWidth = 5;
};
closed = 0;
nodes = (
(450,622,l),
(450,704,o),
(382,772,o),
(300,772,cs),
(217,772,o),
(150,704,o),
(150,622,cs)
);
},
{
attr = {
lineCapEnd = 1;
lineCapStart = 1;
strokeWidth = 5;
};
closed = 0;
nodes = (
(450,150,l),
(450,66,o),
(383,1,o),
(300,0,cs),
(217,0,o),
(150,66,o),
(150,150,cs)
);
},
{
attr = {
lineCapEnd = 1;
lineCapStart = 1;
strokeWidth = 5;
};
closed = 0;
nodes = (
(450,386,l),
(450,622,l)
);
}
);
width = 600;
},
{
anchors = (
{
name = bottom;
pos = (300,-386);
},
{
name = top;
pos = (300,1844);
}
);
layerId = "9BAD4174-69FD-4AED-8503-BDDB7C515042";
shapes = (
{
attr = {
lineCapEnd = 1;
lineCapStart = 1;
strokeWidth = 50;
};
closed = 0;
nodes = (
(150,150,l),
(150,386,l),
(150,622,l),
(150,772,l)
);
},
{
attr = {
lineCapEnd = 1;
lineCapStart = 1;
strokeWidth = 50;
};
closed = 0;
nodes = (
(450,150,l),
(450,386,l)
);
},
{
attr = {
lineCapEnd = 1;
lineCapStart = 1;
strokeWidth = 50;
};
closed = 0;
nodes = (
(150,772,l),
(150,922,l),
(150,1158,l),
(150,1394,l),
(150,1544,l)
);
},
{
attr = {
lineCapEnd = 1;
lineCapStart = 1;
strokeWidth = 50;
};
closed = 0;
nodes = (
(450,622,l),
(450,704,o),
(382,772,o),
(300,772,cs),
(217,772,o),
(150,704,o),
(150,622,cs)
);
},
{
attr = {
lineCapEnd = 1;
lineCapStart = 1;
strokeWidth = 50;
};
closed = 0;
nodes = (
(450,150,l),
(450,66,o),
(383,1,o),
(300,0,cs),
(217,0,o),
(150,66,o),
(150,150,cs)
);
},
{
attr = {
lineCapEnd = 1;
lineCapStart = 1;
strokeWidth = 50;
};
closed = 0;
nodes = (
(450,386,l),
(450,622,l)
);
}
);
width = 600;
}
);
unicode = 98;
},
{
glyphname = bhook;
lastChange = "2021-05-13 07:11:52 +0000";
layers = (
{
anchors = (
{
name = bottom;
pos = (300,-386);
},
{
name = top;
pos = (300,1844);
}
);
layerId = m01;
shapes = (
{
attr = {
lineCapEnd = "1";
lineCapStart = "1";
strokeWidth = 5;
};
closed = 0;
nodes = (
(150,150,l),
(150,386,l),
(150,622,l),
(150,772,l)
);
},
{
attr = {
lineCapEnd = "1";
lineCapStart = "1";
strokeWidth = 5;
};
closed = 0;
nodes = (
(450,150,l),
(450,386,l)
);
},
{
attr = {
lineCapEnd = "1";
lineCapStart = "1";
strokeWidth = 5;
};
closed = 0;
nodes = (
(150,772,l),
(150,922,l),
(150,1158,l),
(150,1394,ls),
(150,1476,o),
(217,1544,o),
(300,1544,cs)
);
},
{
attr = {
lineCapEnd = "1";
lineCapStart = "1";
strokeWidth = 5;
};
closed = 0;
nodes = (
(450,622,l),
(450,704,o),
(382,772,o),
(300,772,cs),
(217,772,o),
(150,704,o),
(150,622,cs)
);
},
{
attr = {
lineCapEnd = "1";
lineCapStart = "1";
strokeWidth = 5;
};
closed = 0;
nodes = (
(450,150,l),
(450,66,o),
(383,1,o),
(300,0,cs),
(217,0,o),
(150,66,o),
(150,150,cs)
);
},
{
attr = {
lineCapEnd = "1";
lineCapStart = "1";
strokeWidth = 5;
};
closed = 0;
nodes = (
(450,386,l),
(450,622,l)
);
}
);
width = 600;
},
{
anchors = (
{
name = bottom;
pos = (300,-386);
},
{
name = top;
pos = (300,1844);
}
);
layerId = "9BAD4174-69FD-4AED-8503-BDDB7C515042";
shapes = (
{
attr = {
lineCapEnd = "1";
lineCapStart = "1";
strokeWidth = 50;
};
closed = 0;
nodes = (
(150,150,l),
(150,386,l),
(150,622,l),
(150,772,l)
);
},
{
attr = {
lineCapEnd = "1";
lineCapStart = "1";
strokeWidth = 50;
};
closed = 0;
nodes = (
(450,150,l),
(450,386,l)
);
},
{
attr = {
lineCapEnd = "1";
lineCapStart = "1";
strokeWidth = 50;
};
closed = 0;
nodes = (
(150,772,l),
(150,922,l),
(150,1158,l),
(150,1394,ls),
(150,1476,o),
(217,1544,o),
(300,1544,cs)
);
},
{
attr = {
lineCapEnd = "1";
lineCapStart = "1";
strokeWidth = 50;
};
closed = 0;
nodes = (
(450,622,l),
(450,704,o),
(382,772,o),
(300,772,cs),
(217,772,o),
(150,704,o),
(150,622,cs)
);
},
{
attr = {
lineCapEnd = "1";
lineCapStart = "1";
strokeWidth = 50;
};
closed = 0;
nodes = (
(450,150,l),
(450,66,o),
(383,1,o),
(300,0,cs),
(217,0,o),
(150,66,o),
(150,150,cs)
);
},
{
attr = {
lineCapEnd = "1";
lineCapStart = "1";
strokeWidth = 50;
};
closed = 0;
nodes = (
(450,386,l),
(450,622,l)
);
}
);
width = 600;
}
);
unicode = 595;
},
{
glyphname = bidentalpercussive;
lastChange = "2021-05-13 07:11:52 +0000";
layers = (
{
anchors = (
{
name = bottom;
pos = (300,-236);
},
{
name = top;
pos = (300,1544);
}
);
layerId = m01;
shapes = (
{
attr = {
lineCapEnd = 1;
lineCapStart = 1;
strokeWidth = 5;
};
closed = 0;
nodes = (
(150,386,l),
(150,150,l)
);
},
{
attr = {
lineCapEnd = 1;
lineCapStart = 1;
strokeWidth = 5;
};
closed = 0;
nodes = (
(450,150,l),
(450,386,l)
);
},
{
attr = {
lineCapEnd = 1;
lineCapStart = 1;
strokeWidth = 5;
};
closed = 0;
nodes = (
(150,386,l),
(300,386,l),
(450,386,l)
);
},
{
attr = {
lineCapEnd = 1;
lineCapStart = 1;
strokeWidth = 5;
};
closed = 0;
nodes = (
(150,1158,l),
(150,922,l)
);
},
{
attr = {
lineCapEnd = 1;
lineCapStart = 1;
strokeWidth = 5;
};
closed = 0;
nodes = (
(450,922,l),
(450,1158,l)
);
},
{
attr = {
lineCapEnd = 1;
lineCapStart = 1;
strokeWidth = 5;
};
closed = 0;
nodes = (
(150,1158,l),
(300,1158,l),
(450,1158,l)
);
}
);
width = 600;
},
{
anchors = (
{
name = bottom;
pos = (300,-236);
},
{
name = top;
pos = (300,1544);
}
);
layerId = "9BAD4174-69FD-4AED-8503-BDDB7C515042";
shapes = (
{
attr = {
lineCapEnd = 1;
lineCapStart = 1;
strokeWidth = 50;
};
closed = 0;
nodes = (
(150,386,l),
(150,150,l)
);
},
{
attr = {
lineCapEnd = 1;
lineCapStart = 1;
strokeWidth = 50;
};
closed = 0;
nodes = (
(450,150,l),
(450,386,l)
);
},
{
attr = {
lineCapEnd = 1;
lineCapStart = 1;
strokeWidth = 50;
};
closed = 0;
nodes = (
(150,386,l),
(300,386,l),
(450,386,l)
);
},
{
attr = {
lineCapEnd = 1;
lineCapStart = 1;
strokeWidth = 50;
};
closed = 0;
nodes = (
(150,1158,l),
(150,922,l)
);
},
{
attr = {
lineCapEnd = 1;
lineCapStart = 1;
strokeWidth = 50;
};
closed = 0;
nodes = (
(450,922,l),
(450,1158,l)
);
},
{
attr = {
lineCapEnd = 1;
lineCapStart = 1;
strokeWidth = 50;
};
closed = 0;
nodes = (
(150,1158,l),
(300,1158,l),
(450,1158,l)
);
}
);
width = 600;
}
);
unicode = 685;
},
{
glyphname = c;
lastChange = "2021-05-13 07:11:52 +0000";
layers = (
{
anchors = (
{
name = bottom;
pos = (300,-386);
},
{
name = cedilla;
pos = (300,0);
},
{
name = top;
pos = (300,1158);
}
);
layerId = m01;
shapes = (
{
attr = {
lineCapEnd = 1;
lineCapStart = 1;
strokeWidth = 5;
};
closed = 0;
nodes = (
(150,150,l),
(150,386,l),
(150,622,l)
);
},
{
attr = {
lineCapEnd = 1;
strokeWidth = 5;
};
closed = 0;
nodes = (
(150,622,l)
);
},
{
attr = {
lineCapEnd = 1;
lineCapStart = 1;
strokeWidth = 5;
};
closed = 0;
nodes = (
(450,150,l),
(450,65,o),
(384,1,o),
(300,0,cs),
(217,0,o),
(150,66,o),
(150,150,cs)
);
},
{
attr = {
lineCapEnd = 1;
lineCapStart = 1;
strokeWidth = 5;
};
closed = 0;
nodes = (
(450,622,l),
(450,705,o),
(382,772,o),
(300,772,cs),
(217,772,o),
(150,704,o),
(150,622,cs)
);
}
);
width = 600;
},
{
anchors = (
{
name = bottom;
pos = (300,-386);
},
{
name = cedilla;
pos = (300,0);
},
{
name = top;
pos = (300,1158);
}
);
layerId = "9BAD4174-69FD-4AED-8503-BDDB7C515042";
shapes = (
{
attr = {
lineCapEnd = 1;
lineCapStart = 1;
strokeWidth = 50;
};
closed = 0;
nodes = (
(150,150,l),
(150,386,l),
(150,622,l)
);
},
{
attr = {
lineCapEnd = 1;
strokeWidth = 50;
};
closed = 0;
nodes = (
(150,622,l)
);
},
{
attr = {
lineCapEnd = 1;
lineCapStart = 1;
strokeWidth = 50;
};
closed = 0;
nodes = (
(450,150,l),
(450,65,o),
(384,1,o),
(300,0,cs),
(217,0,o),
(150,66,o),
(150,150,cs)
);
},
{
attr = {
lineCapEnd = 1;
lineCapStart = 1;
strokeWidth = 50;
};
closed = 0;
nodes = (
(450,622,l),
(450,705,o),
(382,772,o),
(300,772,cs),
(217,772,o),
(150,704,o),
(150,622,cs)
);
}
);
width = 600;
}
);
unicode = 99;
},
{
glyphname = ccurl;
lastChange = "2021-05-13 07:11:52 +0000";
layers = (
{
anchors = (
{
name = bottom;
pos = (300,-386);
},
{
name = cedilla;
pos = (300,0);
},
{
name = top;
pos = (300,1158);
}
);
layerId = m01;
shapes = (
{
attr = {
lineCapEnd = 1;
lineCapStart = 1;
strokeWidth = 5;
};
closed = 0;
nodes = (
(450,622,l),
(450,705,o),
(382,772,o),
(300,772,cs),
(217,772,o),
(150,704,o),
(150,622,cs),
(150,386,l),
(150,150,ls),
(150,66,o),
(217,0,o),
(300,0,cs),
(384,1,o),
(450,65,o),
(450,150,cs),
(450,212,o),
(401,261,o),
(338,262,cs),
(275,262,o),
(225,212,o),
(225,150,cs),
(225,93,o),
(281,33,o),
(338,-27,cs),
(357,-48,o),
(376,-68,o),
(393,-89,c)
);
}
);
width = 600;
},
{
anchors = (
{
name = bottom;
pos = (300,-386);
},
{
name = cedilla;
pos = (300,0);
},
{
name = top;
pos = (300,1158);
}
);
layerId = "9BAD4174-69FD-4AED-8503-BDDB7C515042";
shapes = (
{
attr = {
lineCapEnd = 1;
lineCapStart = 1;
strokeWidth = 50;
};
closed = 0;
nodes = (
(450,622,l),
(450,705,o),
(382,772,o),
(300,772,cs),
(217,772,o),
(150,704,o),
(150,622,cs),
(150,386,l),
(150,150,ls),
(150,66,o),
(217,0,o),
(300,0,cs),
(384,1,o),
(450,65,o),
(450,150,cs),
(450,212,o),
(401,261,o),
(338,262,cs),
(275,262,o),
(225,212,o),
(225,150,cs),
(225,93,o),
(281,33,o),
(338,-27,cs),
(357,-48,o),
(376,-68,o),
(393,-89,c)
);
}
);
width = 600;
}
);
unicode = 597;
},
{
glyphname = "chi-latin";
lastChange = "2021-05-13 07:11:52 +0000";
layers = (
{
anchors = (
{
name = bottom;
pos = (450,-1072);
},
{
name = top;
pos = (450,1158);
}
);
layerId = m01;
shapes = (
{
attr = {
lineCapEnd = 1;
lineCapStart = 1;
strokeWidth = 5;
};
closed = 0;
nodes = (
(450,722,l),
(450,805,o),
(383,872,o),
(300,872,cs),
(217,872,o),
(150,804,o),
(150,722,cs)
);
},
{
attr = {
lineCapEnd = 1;
lineCapStart = 1;
strokeWidth = 5;
};
closed = 0;
nodes = (
(450,722,l),
(450,486,l),
(450,250,l)
);
},
{
attr = {
lineCapEnd = 1;
lineCapStart = 1;
strokeWidth = 5;
};
closed = 0;
nodes = (
(450,-522,l),
(450,-286,l),
(450,-50,l),
(450,100,l)
);
},
{
attr = {
lineCapEnd = 1;
lineCapStart = 1;
strokeWidth = 5;
};
closed = 0;
nodes = (
(750,-522,l),
(750,-604,o),
(683,-671,o),
(600,-672,cs),
(517,-672,o),
(450,-605,o),
(450,-522,cs)
);
},
{
attr = {
lineCapEnd = 1;
lineCapStart = 1;
strokeWidth = 5;
};
closed = 0;
nodes = (
(450,100,l),
(450,250,ls),
(450,401,o),
(750,572,o),
(750,722,cs),
(750,872,l)
);
},
{
attr = {
lineCapEnd = 1;
lineCapStart = 1;
strokeWidth = 5;
};
closed = 0;
nodes = (
(150,-522,l),
(150,-372,o),
(450,-201,o),
(450,-50,cs)
);
},
{
attr = {
lineCapEnd = 1;
lineCapStart = 1;
strokeWidth = 5;
};
closed = 0;
nodes = (
(150,-522,l),
(150,-672,l)
);
},
{
closed = 0;
nodes = (
(350,228,l)
);
}
);
width = 900;
},
{
anchors = (
{
name = bottom;
pos = (450,-1072);
},
{
name = top;
pos = (450,1158);
}
);
layerId = "9BAD4174-69FD-4AED-8503-BDDB7C515042";
shapes = (
{
attr = {
lineCapEnd = 1;
lineCapStart = 1;
strokeWidth = 50;
};
closed = 0;
nodes = (
(450,722,l),
(450,805,o),
(383,872,o),
(300,872,cs),
(217,872,o),
(150,804,o),
(150,722,cs)
);
},
{
attr = {
lineCapEnd = 1;
lineCapStart = 1;
strokeWidth = 50;
};
closed = 0;
nodes = (
(450,722,l),
(450,486,l),
(450,250,l)
);
},
{
attr = {
lineCapEnd = 1;
lineCapStart = 1;
strokeWidth = 50;
};
closed = 0;
nodes = (
(450,-522,l),
(450,-286,l),
(450,-50,l),
(450,100,l)
);
},
{
attr = {
lineCapEnd = 1;
lineCapStart = 1;
strokeWidth = 50;
};
closed = 0;
nodes = (
(750,-522,l),
(750,-604,o),
(683,-671,o),
(600,-672,cs),
(517,-672,o),
(450,-605,o),
(450,-522,cs)
);
},
{
attr = {
lineCapEnd = 1;
lineCapStart = 1;
strokeWidth = 50;
};
closed = 0;
nodes = (
(450,100,l),
(450,250,ls),
(450,401,o),
(750,572,o),
(750,722,cs),
(750,872,l)
);
},
{
attr = {
lineCapEnd = 1;
lineCapStart = 1;
strokeWidth = 50;
};
closed = 0;
nodes = (
(150,-522,l),
(150,-372,o),
(450,-201,o),
(450,-50,cs)
);
},
{
attr = {
lineCapEnd = 1;
lineCapStart = 1;
strokeWidth = 50;
};
closed = 0;
nodes = (
(150,-522,l),
(150,-672,l)
);
},
{
closed = 0;
nodes = (
(350,228,l)
);
}
);
width = 900;
}
);
unicode = 43859;
},
{
glyphname = chook;
lastChange = "2021-05-13 07:11:52 +0000";
layers = (
{
anchors = (
{
name = bottom;
pos = (300,-386);
},
{
name = top;
pos = (300,1158);
}
);
layerId = m01;
shapes = (
{
ref = c;
},
{
attr = {
lineCapEnd = "1";
lineCapStart = "1";
strokeWidth = 5;
};
closed = 0;
nodes = (
(450,622,l),
(450,772,ls),
(450,834,o),
(500,885,o),
(563,885,c)
);
}
);
width = 600;
},
{
anchors = (
{
name = bottom;
pos = (300,-386);
},
{
name = top;
pos = (300,1158);
}
);
layerId = "9BAD4174-69FD-4AED-8503-BDDB7C515042";
shapes = (
{
ref = c;
},
{
attr = {
lineCapEnd = "1";
lineCapStart = "1";
strokeWidth = 50;
};
closed = 0;
nodes = (
(450,622,l),
(450,772,ls),
(450,834,o),
(500,885,o),
(563,885,c)
);
}
);
width = 600;
}
);
unicode = 392;
},
{
glyphname = d;
lastChange = "2021-05-13 07:11:52 +0000";
layers = (
{
anchors = (
{
name = bottom;
pos = (300,-386);
},
{
name = top;
pos = (300,1844);
}
);
layerId = m01;
shapes = (
{
attr = {
lineCapEnd = 1;
lineCapStart = 1;
strokeWidth = 5;
};
closed = 0;
nodes = (
(450,150,l),
(450,386,l),
(450,622,l),
(450,772,l)
);
},
{
attr = {
lineCapEnd = 1;
lineCapStart = 1;
strokeWidth = 5;
};
closed = 0;
nodes = (
(150,150,l),
(150,386,l)
);
},
{
attr = {
lineCapEnd = 1;
lineCapStart = 1;
strokeWidth = 5;
};
closed = 0;
nodes = (
(450,772,l),
(450,922,l),
(450,1158,l),
(450,1394,l),
(450,1544,l)
);
},
{
attr = {
lineCapEnd = 1;
lineCapStart = 1;
strokeWidth = 5;
};
closed = 0;
nodes = (
(450,622,l),
(450,704,o),
(383,772,o),
(300,772,cs),
(218,772,o),
(150,704,o),
(150,622,cs)
);
},
{
attr = {
lineCapEnd = 1;
lineCapStart = 1;
strokeWidth = 5;
};
closed = 0;
nodes = (
(450,150,l),
(450,66,o),
(383,0,o),
(300,0,cs),
(217,1,o),
(150,66,o),
(150,150,cs)
);
},
{
attr = {
lineCapEnd = 1;
lineCapStart = 1;
strokeWidth = 5;
};
closed = 0;
nodes = (
(150,386,l),
(150,622,l)
);
}
);
width = 600;
},
{
anchors = (
{
name = bottom;
pos = (300,-386);
},
{
name = top;
pos = (300,1844);
}
);
layerId = "9BAD4174-69FD-4AED-8503-BDDB7C515042";
shapes = (
{
attr = {
lineCapEnd = 1;
lineCapStart = 1;
strokeWidth = 50;
};
closed = 0;
nodes = (
(450,150,l),
(450,386,l),
(450,622,l),
(450,772,l)
);
},
{
attr = {
lineCapEnd = 1;
lineCapStart = 1;
strokeWidth = 50;
};
closed = 0;
nodes = (
(150,150,l),
(150,386,l)
);
},
{
attr = {
lineCapEnd = 1;
lineCapStart = 1;
strokeWidth = 50;
};
closed = 0;
nodes = (
(450,772,l),
(450,922,l),
(450,1158,l),
(450,1394,l),
(450,1544,l)
);
},
{
attr = {
lineCapEnd = 1;
lineCapStart = 1;
strokeWidth = 50;
};
closed = 0;
nodes = (
(450,622,l),
(450,704,o),
(383,772,o),
(300,772,cs),
(218,772,o),
(150,704,o),
(150,622,cs)
);
},
{
attr = {
lineCapEnd = 1;
lineCapStart = 1;
strokeWidth = 50;
};
closed = 0;
nodes = (
(450,150,l),
(450,66,o),
(383,0,o),
(300,0,cs),
(217,1,o),
(150,66,o),
(150,150,cs)
);
},
{
attr = {
lineCapEnd = 1;
lineCapStart = 1;
strokeWidth = 50;
};
closed = 0;
nodes = (
(150,386,l),
(150,622,l)
);
}
);
width = 600;
}
);
unicode = 100;
},
{
glyphname = eth;
lastChange = "2021-05-13 07:11:52 +0000";
layers = (
{
anchors = (
{
name = bottom;
pos = (300,-386);
},
{
name = top;
pos = (300,1844);
}
);
layerId = m01;
shapes = (
{
attr = {
lineCapEnd = 1;
lineCapStart = 1;
strokeWidth = 5;
};
closed = 0;
nodes = (
(450,150,l),
(450,386,l),
(450,622,l),
(450,772,l)
);
},
{
attr = {
lineCapEnd = 1;
lineCapStart = 1;
strokeWidth = 5;
};
closed = 0;
nodes = (
(150,150,l),
(150,386,l)
);
},
{
attr = {
lineCapEnd = 1;
lineCapStart = 1;
strokeWidth = 5;
};
closed = 0;
nodes = (
(450,772,l),
(450,922,l),
(450,1158,l),
(450,1394,l)
);
},
{
attr = {
lineCapEnd = 1;
lineCapStart = 1;
strokeWidth = 5;
};
closed = 0;
nodes = (
(450,622,l),
(450,704,o),
(383,772,o),
(300,772,cs),
(218,772,o),
(150,704,o),
(150,622,cs)
);
},
{
attr = {
lineCapEnd = 1;
lineCapStart = 1;
strokeWidth = 5;
};
closed = 0;
nodes = (
(450,150,l),
(450,66,o),
(383,0,o),
(300,0,cs),
(217,1,o),
(150,66,o),
(150,150,cs)
);
},
{
attr = {
lineCapEnd = 1;
lineCapStart = 1;
strokeWidth = 5;
};
closed = 0;
nodes = (
(150,386,l),
(150,622,l)
);
},
{
attr = {
lineCapEnd = 1;
lineCapStart = 1;
strokeWidth = 5;
};
closed = 0;
nodes = (
(150,922,ls),
(150,1072,o),
(450,1244,o),
(450,1394,cs),
(450,1476,o),
(383,1544,o),
(300,1544,cs)
);
},
{
attr = {
lineCapEnd = 1;
lineCapStart = 1;
strokeWidth = 5;
};
closed = 0;
nodes = (
(600,1544,ls),
(517,1544,o),
(450,1476,o),
(450,1394,cs)
);
}
);
width = 600;
},
{
anchors = (
{
name = bottom;
pos = (300,-386);
},
{
name = top;
pos = (300,1844);
}
);
layerId = "9BAD4174-69FD-4AED-8503-BDDB7C515042";
shapes = (
{
attr = {
lineCapEnd = 1;
lineCapStart = 1;
strokeWidth = 50;
};
closed = 0;
nodes = (
(450,150,l),
(450,386,l),
(450,622,l),
(450,772,l)
);
},
{
attr = {
lineCapEnd = 1;
lineCapStart = 1;
strokeWidth = 50;
};
closed = 0;
nodes = (
(150,150,l),
(150,386,l)
);
},
{
attr = {
lineCapEnd = 1;
lineCapStart = 1;
strokeWidth = 50;
};
closed = 0;
nodes = (
(450,772,l),
(450,922,l),
(450,1158,l),
(450,1394,l)
);
},
{
attr = {
lineCapEnd = 1;
lineCapStart = 1;
strokeWidth = 50;
};
closed = 0;
nodes = (
(450,622,l),
(450,704,o),
(383,772,o),
(300,772,cs),
(218,772,o),
(150,704,o),
(150,622,cs)
);
},
{
attr = {
lineCapEnd = 1;
lineCapStart = 1;
strokeWidth = 50;
};
closed = 0;
nodes = (
(450,150,l),
(450,66,o),
(383,0,o),
(300,0,cs),
(217,1,o),
(150,66,o),
(150,150,cs)
);
},
{
attr = {
lineCapEnd = 1;
lineCapStart = 1;
strokeWidth = 50;
};
closed = 0;
nodes = (
(150,386,l),
(150,622,l)
);
},
{
attr = {
lineCapEnd = 1;
lineCapStart = 1;
strokeWidth = 50;
};
closed = 0;
nodes = (
(150,922,ls),
(150,1072,o),
(450,1244,o),
(450,1394,cs),
(450,1476,o),
(383,1544,o),
(300,1544,cs)
);
},
{
attr = {
lineCapEnd = 1;
lineCapStart = 1;
strokeWidth = 50;
};
closed = 0;
nodes = (
(600,1544,ls),
(517,1544,o),
(450,1476,o),
(450,1394,cs)
);
}
);
width = 600;
}
);
unicode = 240;
},
{
glyphname = dhook;
lastChange = "2021-05-13 07:11:52 +0000";
layers = (
{
anchors = (
{
name = bottom;
pos = (300,-386);
},
{
name = top;
pos = (300,1844);
}
);
layerId = m01;
shapes = (
{
attr = {
lineCapEnd = 1;
lineCapStart = 1;
strokeWidth = 5;
};
closed = 0;
nodes = (
(450,150,l),
(450,386,l),
(450,622,l),
(450,772,l)
);
},
{
attr = {
lineCapEnd = 1;
lineCapStart = 1;
strokeWidth = 5;
};
closed = 0;
nodes = (
(150,150,l),
(150,386,l)
);
},
{
attr = {
lineCapEnd = 1;
lineCapStart = 1;
strokeWidth = 5;
};
closed = 0;
nodes = (
(450,772,l),
(450,922,l),
(450,1158,l),
(450,1394,l)
);
},
{
attr = {
lineCapEnd = 1;
lineCapStart = 1;
strokeWidth = 5;
};
closed = 0;
nodes = (
(450,622,l),
(450,704,o),
(383,772,o),
(300,772,cs),
(218,772,o),
(150,704,o),
(150,622,cs)
);
},
{
attr = {
lineCapEnd = 1;
lineCapStart = 1;
strokeWidth = 5;
};
closed = 0;
nodes = (
(450,150,l),
(450,66,o),
(383,0,o),
(300,0,cs),
(217,1,o),
(150,66,o),
(150,150,cs)
);
},
{
attr = {
lineCapEnd = 1;
lineCapStart = 1;
strokeWidth = 5;
};
closed = 0;
nodes = (
(150,386,l),
(150,622,l)
);
},
{
attr = {
lineCapEnd = 1;
lineCapStart = 1;
strokeWidth = 5;
};
closed = 0;
nodes = (
(600,1544,ls),
(517,1544,o),
(450,1476,o),
(450,1394,cs)
);
}
);
width = 600;
},
{
anchors = (
{
name = bottom;
pos = (300,-386);
},
{
name = top;
pos = (300,1844);
}
);
layerId = "9BAD4174-69FD-4AED-8503-BDDB7C515042";
shapes = (
{
attr = {
lineCapEnd = 1;
lineCapStart = 1;
strokeWidth = 50;
};
closed = 0;
nodes = (
(450,150,l),
(450,386,l),
(450,622,l),
(450,772,l)
);
},
{
attr = {
lineCapEnd = 1;
lineCapStart = 1;
strokeWidth = 50;
};
closed = 0;
nodes = (
(150,150,l),
(150,386,l)
);
},
{
attr = {
lineCapEnd = 1;
lineCapStart = 1;
strokeWidth = 50;
};
closed = 0;
nodes = (
(450,772,l),
(450,922,l),
(450,1158,l),
(450,1394,l)
);
},
{
attr = {
lineCapEnd = 1;
lineCapStart = 1;
strokeWidth = 50;
};
closed = 0;
nodes = (
(450,622,l),
(450,704,o),
(383,772,o),
(300,772,cs),
(218,772,o),
(150,704,o),
(150,622,cs)
);
},
{
attr = {
lineCapEnd = 1;
lineCapStart = 1;
strokeWidth = 50;
};
closed = 0;
nodes = (
(450,150,l),
(450,66,o),
(383,0,o),
(300,0,cs),
(217,1,o),
(150,66,o),
(150,150,cs)
);
},
{
attr = {
lineCapEnd = 1;
lineCapStart = 1;
strokeWidth = 50;
};
closed = 0;
nodes = (
(150,386,l),
(150,622,l)
);
},
{
attr = {
lineCapEnd = 1;
lineCapStart = 1;
strokeWidth = 50;
};
closed = 0;
nodes = (
(600,1544,ls),
(517,1544,o),
(450,1476,o),
(450,1394,cs)
);
}
);
width = 600;
}
);
unicode = 599;
},
{
glyphname = dtail;
lastChange = "2021-05-13 07:11:52 +0000";
layers = (
{
layerId = m01;
shapes = (
{
ref = d;
},
{
attr = {
lineCapEnd = 1;
lineCapStart = 1;
strokeWidth = 5;
};
closed = 0;
nodes = (
(600,-150,l),
(515,-151,o),
(450,-85,o),
(450,0,cs),
(450,150,l)
);
}
);
width = 600;
},
{
layerId = "9BAD4174-69FD-4AED-8503-BDDB7C515042";
shapes = (
{
ref = d;
},
{
attr = {
lineCapEnd = 1;
lineCapStart = 1;
strokeWidth = 50;
};
closed = 0;
nodes = (
(600,-150,l),
(515,-151,o),
(450,-85,o),
(450,0,cs),
(450,150,l)
);
}
);
width = 600;
}
);
unicode = 598;
},
{
glyphname = e;
lastChange = "2021-05-13 07:11:52 +0000";
layers = (
{
anchors = (
{
name = bottom;
pos = (300,-386);
},
{
name = top;
pos = (300,1158);
}
);
layerId = m01;
shapes = (
{
attr = {
lineCapEnd = 1;
lineCapStart = 1;
strokeWidth = 5;
};
closed = 0;
nodes = (
(150,150,l),
(150,386,l),
(150,622,l)
);
},
{
attr = {
lineCapEnd = 1;
lineCapStart = 1;
strokeWidth = 5;
};
closed = 0;
nodes = (
(450,150,ls),
(450,65,o),
(384,1,o),
(300,0,cs),
(217,0,o),
(150,66,o),
(150,150,cs),
(150,300,o),
(450,472,o),
(450,622,cs),
(450,705,o),
(382,772,o),
(300,772,cs),
(217,772,o),
(150,704,o),
(150,622,cs)
);
}
);
width = 600;
},
{
anchors = (
{
name = bottom;
pos = (300,-386);
},
{
name = top;
pos = (300,1158);
}
);
layerId = "9BAD4174-69FD-4AED-8503-BDDB7C515042";
shapes = (
{
attr = {
lineCapEnd = 1;
lineCapStart = 1;
strokeWidth = 50;
};
closed = 0;
nodes = (
(150,150,l),
(150,386,l),
(150,622,l)
);
},
{
attr = {
lineCapEnd = 1;
lineCapStart = 1;
strokeWidth = 50;
};
closed = 0;
nodes = (
(450,150,ls),
(450,65,o),
(384,1,o),
(300,0,cs),
(217,0,o),
(150,66,o),
(150,150,cs),
(150,300,o),
(450,472,o),
(450,622,cs),
(450,705,o),
(382,772,o),
(300,772,cs),
(217,772,o),
(150,704,o),
(150,622,cs)
);
}
);
width = 600;
}
);
unicode = 101;
},
{
glyphname = eopen;
lastChange = "2021-05-13 07:11:52 +0000";
layers = (
{
anchors = (
{
name = bottom;
pos = (300,-386);
},
{
name = top;
pos = (300,1158);
}
);
layerId = m01;
shapes = (
{
attr = {
lineCapEnd = 1;
lineCapStart = 1;
strokeWidth = 5;
};
closed = 0;
nodes = (
(450,150,ls),
(450,67,o),
(385,1,o),
(300,0,cs),
(217,0,o),
(150,64,o),
(150,150,cs)
);
},
{
attr = {
lineCapEnd = 1;
lineCapStart = 1;
strokeWidth = 5;
};
closed = 0;
nodes = (
(150,622,l),
(150,386,l),
(150,150,l)
);
},
{
attr = {
lineCapEnd = 1;
lineCapStart = 1;
strokeWidth = 5;
};
closed = 0;
nodes = (
(150,386,l),
(300,386,l)
);
},
{
attr = {
lineCapEnd = 1;
lineCapStart = 1;
strokeWidth = 5;
};
closed = 0;
nodes = (
(450,622,ls),
(450,705,o),
(383,772,o),
(300,772,cs),
(217,772,o),
(150,704,o),
(150,622,cs)
);
}
);
width = 600;
},
{
anchors = (
{
name = bottom;
pos = (300,-386);
},
{
name = top;
pos = (300,1158);
}
);
layerId = "9BAD4174-69FD-4AED-8503-BDDB7C515042";
shapes = (
{
attr = {
lineCapEnd = 1;
lineCapStart = 1;
strokeWidth = 50;
};
closed = 0;
nodes = (
(450,150,ls),
(450,67,o),
(385,1,o),
(300,0,cs),
(217,0,o),
(150,64,o),
(150,150,cs)
);
},
{
attr = {
lineCapEnd = 1;
lineCapStart = 1;
strokeWidth = 50;
};
closed = 0;
nodes = (
(150,622,l),
(150,386,l),
(150,150,l)
);
},
{
attr = {
lineCapEnd = 1;
lineCapStart = 1;
strokeWidth = 50;
};
closed = 0;
nodes = (
(150,386,l),
(300,386,l)
);
},
{
attr = {
lineCapEnd = 1;
lineCapStart = 1;
strokeWidth = 50;
};
closed = 0;
nodes = (
(450,622,ls),
(450,705,o),
(383,772,o),
(300,772,cs),
(217,772,o),
(150,704,o),
(150,622,cs)
);
}
);
width = 600;
}
);
unicode = 603;
},
{
glyphname = eopenreversedclosed;
lastChange = "2021-05-13 07:11:52 +0000";
layers = (
{
anchors = (
{
name = bottom;
pos = (300,-386);
},
{
name = top;
pos = (300,1158);
}
);
layerId = m01;
shapes = (
{
attr = {
strokeWidth = 5;
};
closed = 1;
nodes = (
(150,704,o),
(217,772,o),
(300,772,cs),
(383,772,o),
(450,704,o),
(450,622,cs),
(450,547,o),
(375,466,o),
(300,386,c),
(375,306,o),
(450,225,o),
(450,150,cs),
(450,68,o),
(383,0,o),
(300,0,cs),
(217,0,o),
(150,68,o),
(150,150,cs),
(150,386,l),
(150,622,ls)
);
},
{
attr = {
lineCapEnd = 1;
strokeWidth = 5;
};
closed = 0;
nodes = (
(150,386,l)
);
}
);
width = 600;
},
{
anchors = (
{
name = bottom;
pos = (300,-386);
},
{
name = top;
pos = (300,1158);
}
);
layerId = "9BAD4174-69FD-4AED-8503-BDDB7C515042";
shapes = (
{
attr = {
strokeWidth = 50;
};
closed = 1;
nodes = (
(150,704,o),
(217,772,o),
(300,772,cs),
(383,772,o),
(450,704,o),
(450,622,cs),
(450,547,o),
(375,466,o),
(300,386,c),
(375,306,o),
(450,225,o),
(450,150,cs),
(450,68,o),
(383,0,o),
(300,0,cs),
(217,0,o),
(150,68,o),
(150,150,cs),
(150,386,l),
(150,622,ls)
);
},
{
attr = {
lineCapEnd = 1;
strokeWidth = 50;
};
closed = 0;
nodes = (
(150,386,l)
);
}
);
width = 600;
}
);
unicode = 606;
},
{
glyphname = esh;
lastChange = "2021-05-13 07:11:52 +0000";
layers = (
{
anchors = (
{
name = bottom;
pos = (225,-1072);
},
{
name = top;
pos = (225,1844);
}
);
layerId = m01;
shapes = (
{
attr = {
lineCapEnd = 1;
lineCapStart = 1;
strokeWidth = 5;
};
closed = 0;
nodes = (
(225,0,l),
(225,150,l),
(225,386,l),
(225,622,l),
(225,772,l),
(225,922,l),
(225,1158,l),
(225,1394,l)
);
},
{
attr = {
lineCapEnd = 1;
lineCapStart = 1;
strokeWidth = 5;
};
closed = 0;
nodes = (
(225,-622,ls),
(225,-704,o),
(158,-771,o),
(75,-772,cs)
);
},
{
attr = {
lineCapEnd = 1;
lineCapStart = 1;
strokeWidth = 5;
};
closed = 0;
nodes = (
(225,-622,l),
(225,-386,l),
(225,-150,l),
(225,0,l)
);
},
{
attr = {
lineCapEnd = 1;
lineCapStart = 1;
strokeWidth = 5;
};
closed = 0;
nodes = (
(375,1544,l),
(292,1544,o),
(225,1476,o),
(225,1394,cs)
);
}
);
width = 450;
},
{
anchors = (
{
name = bottom;
pos = (225,-1072);
},
{
name = top;
pos = (225,1844);
}
);
layerId = "9BAD4174-69FD-4AED-8503-BDDB7C515042";
shapes = (
{
attr = {
lineCapEnd = 1;
lineCapStart = 1;
strokeWidth = 50;
};
closed = 0;
nodes = (
(225,0,l),
(225,150,l),
(225,386,l),
(225,622,l),
(225,772,l),
(225,922,l),
(225,1158,l),
(225,1394,l)
);
},
{
attr = {
lineCapEnd = 1;
lineCapStart = 1;
strokeWidth = 50;
};
closed = 0;
nodes = (
(225,-622,ls),
(225,-704,o),
(158,-771,o),
(75,-772,cs)
);
},
{
attr = {
lineCapEnd = 1;
lineCapStart = 1;
strokeWidth = 50;
};
closed = 0;
nodes = (
(225,-622,l),
(225,-386,l),
(225,-150,l),
(225,0,l)
);
},
{
attr = {
lineCapEnd = 1;
lineCapStart = 1;
strokeWidth = 50;
};
closed = 0;
nodes = (
(375,1544,l),
(292,1544,o),
(225,1476,o),
(225,1394,cs)
);
}
);
width = 450;
}
);
unicode = 643;
},
{
glyphname = ezh;
lastChange = "2021-05-13 07:11:52 +0000";
layers = (
{
anchors = (
{
name = bottom;
pos = (300,-1072);
},
{
name = top;
pos = (300,1158);
}
);
layerId = m01;
shapes = (
{
attr = {
lineCapEnd = 1;
lineCapStart = 1;
strokeWidth = 5;
};
closed = 0;
nodes = (
(300,0,l),
(217,0,o),
(150,64,o),
(150,150,cs),
(150,300,o),
(450,472,o),
(450,622,cs)
);
},
{
attr = {
lineCapEnd = 1;
lineCapStart = 1;
strokeWidth = 5;
};
closed = 0;
nodes = (
(450,622,l),
(450,772,l),
(300,772,l),
(150,772,l)
);
},
{
attr = {
lineCapEnd = 1;
lineCapStart = 1;
strokeWidth = 5;
};
closed = 0;
nodes = (
(300,0,l)
);
},
{
attr = {
lineCapEnd = 1;
lineCapStart = 1;
strokeWidth = 5;
};
closed = 0;
nodes = (
(450,-622,l),
(450,-704,o),
(383,-771,o),
(300,-772,cs),
(217,-772,o),
(150,-705,o),
(150,-622,cs)
);
},
{
attr = {
lineCapEnd = 1;
lineCapStart = 1;
strokeWidth = 5;
};
closed = 0;
nodes = (
(450,-622,l),
(450,-386,l),
(450,-150,l)
);
},
{
attr = {
lineCapEnd = 1;
lineCapStart = 1;
strokeWidth = 5;
};
closed = 0;
nodes = (
(450,-150,ls),
(450,-68,o),
(381,0,o),
(300,0,cs)
);
}
);
width = 600;
},
{
anchors = (
{
name = bottom;
pos = (300,-1072);
},
{
name = top;
pos = (300,1158);
}
);
layerId = "9BAD4174-69FD-4AED-8503-BDDB7C515042";
shapes = (
{
attr = {
lineCapEnd = 1;
lineCapStart = 1;
strokeWidth = 50;
};
closed = 0;
nodes = (
(300,0,l),
(217,0,o),
(150,64,o),
(150,150,cs),
(150,300,o),
(450,472,o),
(450,622,cs)
);
},
{
attr = {
lineCapEnd = 1;
lineCapStart = 1;
strokeWidth = 50;
};
closed = 0;
nodes = (
(450,622,l),
(450,772,l),
(300,772,l),
(150,772,l)
);
},
{
attr = {
lineCapEnd = 1;
lineCapStart = 1;
strokeWidth = 50;
};
closed = 0;
nodes = (
(300,0,l)
);
},
{
attr = {
lineCapEnd = 1;
lineCapStart = 1;
strokeWidth = 50;
};
closed = 0;
nodes = (
(450,-622,l),
(450,-704,o),
(383,-771,o),
(300,-772,cs),
(217,-772,o),
(150,-705,o),
(150,-622,cs)
);
},
{
attr = {
lineCapEnd = 1;
lineCapStart = 1;
strokeWidth = 50;
};
closed = 0;
nodes = (
(450,-622,l),
(450,-386,l),
(450,-150,l)
);
},
{
attr = {
lineCapEnd = 1;
lineCapStart = 1;
strokeWidth = 50;
};
closed = 0;
nodes = (
(450,-150,ls),
(450,-68,o),
(381,0,o),
(300,0,cs)
);
}
);
width = 600;
}
);
unicode = 658;
},
{
glyphname = f;
lastChange = "2021-05-13 07:11:52 +0000";
layers = (
{
anchors = (
{
name = bottom;
pos = (225,-1072);
},
{
name = top;
pos = (300,1844);
}
);
layerId = m01;
shapes = (
{
attr = {
lineCapEnd = 1;
lineCapStart = 1;
strokeWidth = 5;
};
closed = 0;
nodes = (
(450,1394,l),
(450,1477,o),
(382,1544,o),
(300,1544,cs),
(217,1544,o),
(150,1477,o),
(150,1394,cs),
(150,1158,l),
(150,922,l),
(150,772,l),
(300,772,l)
);
},
{
attr = {
lineCapEnd = 1;
lineCapStart = 1;
strokeWidth = 5;
};
closed = 0;
nodes = (
(150,-622,l),
(150,-386,l),
(150,-150,l),
(150,0,l),
(150,150,l),
(150,386,l),
(150,622,l),
(150,772,l)
);
}
);
width = 450;
},
{
anchors = (
{
name = bottom;
pos = (225,-1072);
},
{
name = top;
pos = (300,1844);
}
);
layerId = "9BAD4174-69FD-4AED-8503-BDDB7C515042";
shapes = (
{
attr = {
lineCapEnd = 1;
lineCapStart = 1;
strokeWidth = 50;
};
closed = 0;
nodes = (
(450,1394,l),
(450,1477,o),
(382,1544,o),
(300,1544,cs),
(217,1544,o),
(150,1477,o),
(150,1394,cs),
(150,1158,l),
(150,922,l),
(150,772,l),
(300,772,l)
);
},
{
attr = {
lineCapEnd = 1;
lineCapStart = 1;
strokeWidth = 50;
};
closed = 0;
nodes = (
(150,-622,l),
(150,-386,l),
(150,-150,l),
(150,0,l),
(150,150,l),
(150,386,l),
(150,622,l),
(150,772,l)
);
}
);
width = 450;
}
);
unicode = 102;
},
{
glyphname = fengdigraph;
lastChange = "2021-05-13 07:11:52 +0000";
layers = (
{
anchors = (
{
name = bottom;
pos = (450,-1072);
},
{
name = top;
pos = (450,1844);
}
);
layerId = m01;
shapes = (
{
ref = f;
},
{
alignment = -1;
pos = (300,0);
ref = eng;
},
{
attr = {
lineCapEnd = 1;
lineCapStart = 1;
strokeWidth = 5;
};
closed = 0;
nodes = (
(300,772,l),
(450,772,l)
);
}
);
width = 900;
},
{
anchors = (
{
name = bottom;
pos = (450,-1072);
},
{
name = top;
pos = (450,1844);
}
);
layerId = "9BAD4174-69FD-4AED-8503-BDDB7C515042";
shapes = (
{
ref = f;
},
{
alignment = -1;
pos = (300,0);
ref = eng;
},
{
attr = {
lineCapEnd = 1;
lineCapStart = 1;
strokeWidth = 50;
};
closed = 0;
nodes = (
(300,772,l),
(450,772,l)
);
}
);
width = 900;
}
);
unicode = 681;
},
{
glyphname = g;
lastChange = "2021-05-13 07:11:52 +0000";
layers = (
{
anchors = (
{
name = bottom;
pos = (300,-1072);
},
{
name = top;
pos = (300,1158);
}
);
layerId = m01;
shapes = (
{
attr = {
strokeWidth = 5;
};
closed = 1;
nodes = (
(217,0,o),
(150,66,o),
(150,150,cs),
(150,386,l),
(150,622,ls),
(150,704,o),
(217,772,o),
(300,772,cs),
(383,772,o),
(450,704,o),
(450,622,cs),
(450,386,l),
(450,150,ls),
(450,66,o),
(383,0,o),
(300,0,cs)
);
},
{
attr = {
lineCapEnd = 1;
lineCapStart = 1;
strokeWidth = 5;
};
closed = 0;
nodes = (
(450,150,l),
(450,0,l),
(450,-150,l),
(450,-386,l),
(450,-622,ls),
(450,-704,o),
(383,-771,o),
(300,-772,cs),
(217,-772,o),
(150,-705,o),
(150,-622,cs)
);
}
);
width = 600;
},
{
anchors = (
{
name = bottom;
pos = (300,-1072);
},
{
name = top;
pos = (300,1158);
}
);
layerId = "9BAD4174-69FD-4AED-8503-BDDB7C515042";
shapes = (
{
attr = {
strokeWidth = 50;
};
closed = 1;
nodes = (
(217,0,o),
(150,66,o),
(150,150,cs),
(150,386,l),
(150,622,ls),
(150,704,o),
(217,772,o),
(300,772,cs),
(383,772,o),
(450,704,o),
(450,622,cs),
(450,386,l),
(450,150,ls),
(450,66,o),
(383,0,o),
(300,0,cs)
);
},
{
attr = {
lineCapEnd = 1;
lineCapStart = 1;
strokeWidth = 50;
};
closed = 0;
nodes = (
(450,150,l),
(450,0,l),
(450,-150,l),
(450,-386,l),
(450,-622,ls),
(450,-704,o),
(383,-771,o),
(300,-772,cs),
(217,-772,o),
(150,-705,o),
(150,-622,cs)
);
}
);
width = 600;
}
);
unicode = 103;
},
{
glyphname = "gamma-latin";
lastChange = "2021-05-13 07:11:52 +0000";
layers = (
{
anchors = (
{
name = bottom;
pos = (300,-1072);
},
{
name = top;
pos = (300,1158);
}
);
layerId = m01;
shapes = (
{
attr = {
lineCapEnd = 1;
lineCapStart = 1;
strokeWidth = 5;
};
closed = 0;
nodes = (
(450,150,l),
(450,67,o),
(385,1,o),
(300,0,cs),
(217,0,o),
(150,64,o),
(150,150,cs)
);
},
{
attr = {
lineCapEnd = 1;
lineCapStart = 1;
strokeWidth = 5;
};
closed = 0;
nodes = (
(150,150,l),
(150,386,l),
(150,622,ls),
(150,705,o),
(83,772,o),
(0,772,cs)
);
},
{
attr = {
lineCapEnd = 1;
lineCapStart = 1;
strokeWidth = 5;
};
closed = 0;
nodes = (
(450,150,l),
(450,386,l),
(450,622,l),
(450,772,l)
);
},
{
attr = {
lineCapEnd = 1;
lineCapStart = 1;
strokeWidth = 5;
};
closed = 0;
nodes = (
(450,-622,l),
(450,-704,o),
(383,-771,o),
(300,-772,cs),
(217,-772,o),
(150,-705,o),
(150,-622,cs)
);
},
{
attr = {
lineCapEnd = 1;
lineCapStart = 1;
strokeWidth = 5;
};
closed = 0;
nodes = (
(150,-150,l),
(150,-386,l),
(150,-622,l)
);
},
{
attr = {
lineCapEnd = 1;
lineCapStart = 1;
strokeWidth = 5;
};
closed = 0;
nodes = (
(450,-622,l),
(450,-386,l),
(450,-150,l)
);
},
{
attr = {
lineCapEnd = 1;
lineCapStart = 1;
strokeWidth = 5;
};
closed = 0;
nodes = (
(450,-150,l),
(450,-68,o),
(381,0,o),
(300,0,cs),
(217,0,o),
(150,-67,o),
(150,-150,cs)
);
}
);
width = 600;
},
{
anchors = (
{
name = bottom;
pos = (300,-1072);
},
{
name = top;
pos = (300,1158);
}
);
layerId = "9BAD4174-69FD-4AED-8503-BDDB7C515042";
shapes = (
{
attr = {
lineCapEnd = 1;
lineCapStart = 1;
strokeWidth = 50;
};
closed = 0;
nodes = (
(450,150,l),
(450,67,o),
(385,1,o),
(300,0,cs),
(217,0,o),
(150,64,o),
(150,150,cs)
);
},
{
attr = {
lineCapEnd = 1;
lineCapStart = 1;
strokeWidth = 50;
};
closed = 0;
nodes = (
(150,150,l),
(150,386,l),
(150,622,ls),
(150,705,o),
(83,772,o),
(0,772,cs)
);
},
{
attr = {
lineCapEnd = 1;
lineCapStart = 1;
strokeWidth = 50;
};
closed = 0;
nodes = (
(450,150,l),
(450,386,l),
(450,622,l),
(450,772,l)
);
},
{
attr = {
lineCapEnd = 1;
lineCapStart = 1;
strokeWidth = 50;
};
closed = 0;
nodes = (
(450,-622,l),
(450,-704,o),
(383,-771,o),
(300,-772,cs),
(217,-772,o),
(150,-705,o),
(150,-622,cs)
);
},
{
attr = {
lineCapEnd = 1;
lineCapStart = 1;
strokeWidth = 50;
};
closed = 0;
nodes = (
(150,-150,l),
(150,-386,l),
(150,-622,l)
);
},
{
attr = {
lineCapEnd = 1;
lineCapStart = 1;
strokeWidth = 50;
};
closed = 0;
nodes = (
(450,-622,l),
(450,-386,l),
(450,-150,l)
);
},
{
attr = {
lineCapEnd = 1;
lineCapStart = 1;
strokeWidth = 50;
};
closed = 0;
nodes = (
(450,-150,l),
(450,-68,o),
(381,0,o),
(300,0,cs),
(217,0,o),
(150,-67,o),
(150,-150,cs)
);
}
);
width = 600;
}
);
unicode = 611;
},
{
glyphname = ghook;
lastChange = "2021-05-13 07:11:52 +0000";
layers = (
{
layerId = m01;
shapes = (
{
ref = g;
},
{
attr = {
lineCapEnd = "1";
lineCapStart = "1";
strokeWidth = 5;
};
closed = 0;
nodes = (
(450,622,l),
(450,772,ls),
(450,834,o),
(500,885,o),
(563,885,cs)
);
}
);
width = 600;
},
{
layerId = "9BAD4174-69FD-4AED-8503-BDDB7C515042";
shapes = (
{
ref = g;
},
{
attr = {
lineCapEnd = "1";
lineCapStart = "1";
strokeWidth = 50;
};
closed = 0;
nodes = (
(450,622,l),
(450,772,ls),
(450,834,o),
(500,885,o),
(563,885,cs)
);
}
);
width = 600;
}
);
unicode = 608;
},
{
glyphname = glottalstop;
lastChange = "2021-05-13 07:11:52 +0000";
layers = (
{
anchors = (
{
name = bottom;
pos = (225,-386);
},
{
name = top;
pos = (300,1844);
}
);
layerId = m01;
shapes = (
{
attr = {
lineCapEnd = "1";
lineCapStart = "1";
strokeWidth = 5;
};
closed = 0;
nodes = (
(150,1394,ls),
(150,1476,o),
(217,1544,o),
(300,1544,cs),
(383,1544,o),
(450,1476,o),
(450,1394,cs),
(450,1244,o),
(150,1072,o),
(150,922,cs),
(150,772,l),
(150,622,l),
(150,386,l),
(150,150,l),
(150,0,l)
);
}
);
width = 525;
},
{
anchors = (
{
name = bottom;
pos = (225,-386);
},
{
name = top;
pos = (300,1844);
}
);
layerId = "9BAD4174-69FD-4AED-8503-BDDB7C515042";
shapes = (
{
attr = {
lineCapEnd = "1";
lineCapStart = "1";
strokeWidth = 50;
};
closed = 0;
nodes = (
(150,1394,ls),
(150,1476,o),
(217,1544,o),
(300,1544,cs),
(383,1544,o),
(450,1476,o),
(450,1394,cs),
(450,1244,o),
(150,1072,o),
(150,922,cs),
(150,772,l),
(150,622,l),
(150,386,l),
(150,150,l),
(150,0,l)
);
}
);
width = 525;
}
);
unicode = 660;
},
{
glyphname = h;
lastChange = "2021-05-13 07:11:52 +0000";
layers = (
{
anchors = (
{
name = bottom;
pos = (300,-386);
},
{
name = top;
pos = (300,1844);
}
);
layerId = m01;
shapes = (
{
attr = {
lineCapEnd = 1;
lineCapStart = 1;
strokeWidth = 5;
};
closed = 0;
nodes = (
(150,0,l),
(150,150,l),
(150,386,l),
(150,622,l)
);
},
{
attr = {
lineCapEnd = 1;
lineCapStart = 1;
strokeWidth = 5;
};
closed = 0;
nodes = (
(150,772,l),
(150,922,l),
(150,1158,l),
(150,1394,l),
(150,1544,l)
);
},
{
attr = {
lineCapEnd = 1;
lineCapStart = 1;
strokeWidth = 5;
};
closed = 0;
nodes = (
(150,622,l),
(150,772,l)
);
},
{
attr = {
lineCapEnd = 1;
lineCapStart = 1;
strokeWidth = 5;
};
closed = 0;
nodes = (
(450,622,l),
(450,705,o),
(382,772,o),
(300,772,cs),
(217,772,o),
(150,704,o),
(150,622,cs)
);
},
{
attr = {
lineCapEnd = 1;
lineCapStart = 1;
strokeWidth = 5;
};
closed = 0;
nodes = (
(450,386,l),
(450,622,l)
);
},
{
attr = {
lineCapEnd = 1;
lineCapStart = 1;
strokeWidth = 5;
};
closed = 0;
nodes = (
(450,0,l),
(450,150,l),
(450,386,l)
);
}
);
width = 600;
},
{
anchors = (
{
name = bottom;
pos = (300,-386);
},
{
name = top;
pos = (300,1844);
}
);
layerId = "9BAD4174-69FD-4AED-8503-BDDB7C515042";
shapes = (
{
attr = {
lineCapEnd = 1;
lineCapStart = 1;
strokeWidth = 50;
};
closed = 0;
nodes = (
(150,0,l),
(150,150,l),
(150,386,l),
(150,622,l)
);
},
{
attr = {
lineCapEnd = 1;
lineCapStart = 1;
strokeWidth = 50;
};
closed = 0;
nodes = (
(150,772,l),
(150,922,l),
(150,1158,l),
(150,1394,l),
(150,1544,l)
);
},
{
attr = {
lineCapEnd = 1;
lineCapStart = 1;
strokeWidth = 50;
};
closed = 0;
nodes = (
(150,622,l),
(150,772,l)
);
},
{
attr = {
lineCapEnd = 1;
lineCapStart = 1;
strokeWidth = 50;
};
closed = 0;
nodes = (
(450,622,l),
(450,705,o),
(382,772,o),
(300,772,cs),
(217,772,o),
(150,704,o),
(150,622,cs)
);
},
{
attr = {
lineCapEnd = 1;
lineCapStart = 1;
strokeWidth = 50;
};
closed = 0;
nodes = (
(450,386,l),
(450,622,l)
);
},
{
attr = {
lineCapEnd = 1;
lineCapStart = 1;
strokeWidth = 50;
};
closed = 0;
nodes = (
(450,0,l),
(450,150,l),
(450,386,l)
);
}
);
width = 600;
}
);
unicode = 104;
},
{
glyphname = henghook;
lastChange = "2021-05-13 07:11:52 +0000";
layers = (
{
anchors = (
{
name = bottom;
pos = (300,-1072);
},
{
name = top;
pos = (300,1844);
}
);
layerId = m01;
shapes = (
{
attr = {
lineCapEnd = "1";
lineCapStart = "1";
strokeWidth = 5;
};
closed = 0;
nodes = (
(150,0,l),
(150,150,l),
(150,386,l),
(150,622,l)
);
},
{
attr = {
lineCapEnd = "1";
lineCapStart = "1";
strokeWidth = 5;
};
closed = 0;
nodes = (
(150,772,l),
(150,922,l),
(150,1158,l),
(150,1394,ls),
(150,1476,o),
(217,1544,o),
(300,1544,cs)
);
},
{
attr = {
lineCapEnd = "1";
lineCapStart = "1";
strokeWidth = 5;
};
closed = 0;
nodes = (
(150,622,l),
(150,772,l)
);
},
{
attr = {
lineCapEnd = "1";
lineCapStart = "1";
strokeWidth = 5;
};
closed = 0;
nodes = (
(450,622,l),
(450,705,o),
(382,772,o),
(300,772,cs),
(217,772,o),
(150,704,o),
(150,622,cs)
);
},
{
attr = {
lineCapEnd = "1";
lineCapStart = "1";
strokeWidth = 5;
};
closed = 0;
nodes = (
(450,386,l),
(450,622,l)
);
},
{
attr = {
lineCapEnd = "1";
lineCapStart = "1";
strokeWidth = 5;
};
closed = 0;
nodes = (
(450,-622,ls),
(450,-704,o),
(383,-771,o),
(300,-772,cs)
);
},
{
attr = {
lineCapEnd = "1";
lineCapStart = "1";
strokeWidth = 5;
};
closed = 0;
nodes = (
(450,-622,l),
(450,-386,l),
(450,-150,l),
(450,0,l),
(450,150,l),
(450,386,l)
);
}
);
width = 600;
},
{
anchors = (
{
name = bottom;
pos = (300,-1072);
},
{
name = top;
pos = (300,1844);
}
);
layerId = "9BAD4174-69FD-4AED-8503-BDDB7C515042";
shapes = (
{
attr = {
lineCapEnd = "1";
lineCapStart = "1";
strokeWidth = 50;
};
closed = 0;
nodes = (
(150,0,l),
(150,150,l),
(150,386,l),
(150,622,l)
);
},
{
attr = {
lineCapEnd = "1";
lineCapStart = "1";
strokeWidth = 50;
};
closed = 0;
nodes = (
(150,772,l),
(150,922,l),
(150,1158,l),
(150,1394,ls),
(150,1476,o),
(217,1544,o),
(300,1544,cs)
);
},
{
attr = {
lineCapEnd = "1";
lineCapStart = "1";
strokeWidth = 50;
};
closed = 0;
nodes = (
(150,622,l),
(150,772,l)
);
},
{
attr = {
lineCapEnd = "1";
lineCapStart = "1";
strokeWidth = 50;
};
closed = 0;
nodes = (
(450,622,l),
(450,705,o),
(382,772,o),
(300,772,cs),
(217,772,o),
(150,704,o),
(150,622,cs)
);
},
{
attr = {
lineCapEnd = "1";
lineCapStart = "1";
strokeWidth = 50;
};
closed = 0;
nodes = (
(450,386,l),
(450,622,l)
);
},
{
attr = {
lineCapEnd = "1";
lineCapStart = "1";
strokeWidth = 50;
};
closed = 0;
nodes = (
(450,-622,ls),
(450,-704,o),
(383,-771,o),
(300,-772,cs)
);
},
{
attr = {
lineCapEnd = "1";
lineCapStart = "1";
strokeWidth = 50;
};
closed = 0;
nodes = (
(450,-622,l),
(450,-386,l),
(450,-150,l),
(450,0,l),
(450,150,l),
(450,386,l)
);
}
);
width = 600;
}
);
unicode = 615;
},
{
glyphname = hhook;
lastChange = "2021-05-13 07:11:52 +0000";
layers = (
{
anchors = (
{
name = bottom;
pos = (300,-386);
},
{
name = top;
pos = (300,1844);
}
);
layerId = m01;
shapes = (
{
attr = {
lineCapEnd = 1;
lineCapStart = 1;
strokeWidth = 5;
};
closed = 0;
nodes = (
(150,0,l),
(150,150,l),
(150,386,l),
(150,622,l)
);
},
{
attr = {
lineCapEnd = 1;
lineCapStart = 1;
strokeWidth = 5;
};
closed = 0;
nodes = (
(150,772,l),
(150,922,l),
(150,1158,l),
(150,1394,ls),
(150,1476,o),
(217,1544,o),
(300,1544,cs)
);
},
{
attr = {
lineCapEnd = 1;
lineCapStart = 1;
strokeWidth = 5;
};
closed = 0;
nodes = (
(150,622,l),
(150,772,l)
);
},
{
attr = {
lineCapEnd = 1;
lineCapStart = 1;
strokeWidth = 5;
};
closed = 0;
nodes = (
(450,622,l),
(450,705,o),
(382,772,o),
(300,772,cs),
(217,772,o),
(150,704,o),
(150,622,cs)
);
},
{
attr = {
lineCapEnd = 1;
lineCapStart = 1;
strokeWidth = 5;
};
closed = 0;
nodes = (
(450,386,l),
(450,622,l)
);
},
{
attr = {
lineCapEnd = 1;
lineCapStart = 1;
strokeWidth = 5;
};
closed = 0;
nodes = (
(450,0,l),
(450,150,l),
(450,386,l)
);
}
);
width = 600;
},
{
anchors = (
{
name = bottom;
pos = (300,-386);
},
{
name = top;
pos = (300,1844);
}
);
layerId = "9BAD4174-69FD-4AED-8503-BDDB7C515042";
shapes = (
{
attr = {
lineCapEnd = 1;
lineCapStart = 1;
strokeWidth = 50;
};
closed = 0;
nodes = (
(150,0,l),
(150,150,l),
(150,386,l),
(150,622,l)
);
},
{
attr = {
lineCapEnd = 1;
lineCapStart = 1;
strokeWidth = 50;
};
closed = 0;
nodes = (
(150,772,l),
(150,922,l),
(150,1158,l),
(150,1394,ls),
(150,1476,o),
(217,1544,o),
(300,1544,cs)
);
},
{
attr = {
lineCapEnd = 1;
lineCapStart = 1;
strokeWidth = 50;
};
closed = 0;
nodes = (
(150,622,l),
(150,772,l)
);
},
{
attr = {
lineCapEnd = 1;
lineCapStart = 1;
strokeWidth = 50;
};
closed = 0;
nodes = (
(450,622,l),
(450,705,o),
(382,772,o),
(300,772,cs),
(217,772,o),
(150,704,o),
(150,622,cs)
);
},
{
attr = {
lineCapEnd = 1;
lineCapStart = 1;
strokeWidth = 50;
};
closed = 0;
nodes = (
(450,386,l),
(450,622,l)
);
},
{
attr = {
lineCapEnd = 1;
lineCapStart = 1;
strokeWidth = 50;
};
closed = 0;
nodes = (
(450,0,l),
(450,150,l),
(450,386,l)
);
}
);
width = 600;
}
);
unicode = 614;
},
{
glyphname = i;
lastChange = "2021-05-13 07:11:52 +0000";
layers = (
{
anchors = (
{
name = bottom;
pos = (150,-386);
},
{
name = top;
pos = (150,1544);
}
);
layerId = m01;
shapes = (
{
attr = {
lineCapEnd = 1;
lineCapStart = 1;
strokeWidth = 5;
};
closed = 0;
nodes = (
(150,0,l),
(150,150,l),
(150,386,l),
(150,622,l),
(150,772,l)
);
},
{
ref = _dot;
}
);
width = 300;
},
{
anchors = (
{
name = bottom;
pos = (150,-386);
},
{
name = top;
pos = (150,1544);
}
);
layerId = "9BAD4174-69FD-4AED-8503-BDDB7C515042";
shapes = (
{
attr = {
lineCapEnd = 1;
lineCapStart = 1;
strokeWidth = 50;
};
closed = 0;
nodes = (
(150,0,l),
(150,150,l),
(150,386,l),
(150,622,l),
(150,772,l)
);
},
{
ref = _dot;
}
);
width = 300;
}
);
unicode = 105;
},
{
glyphname = idotless;
lastChange = "2021-05-13 07:11:52 +0000";
layers = (
{
anchors = (
{
name = bottom;
pos = (150,-386);
},
{
name = top;
pos = (150,1158);
}
);
layerId = m01;
shapes = (
{
attr = {
lineCapEnd = 1;
lineCapStart = 1;
strokeWidth = 5;
};
closed = 0;
nodes = (
(150,0,l),
(150,150,l),
(150,386,l),
(150,622,l),
(150,772,l)
);
}
);
width = 300;
},
{
anchors = (
{
name = bottom;
pos = (150,-386);
},
{
name = top;
pos = (150,1158);
}
);
layerId = "9BAD4174-69FD-4AED-8503-BDDB7C515042";
shapes = (
{
attr = {
lineCapEnd = 1;
lineCapStart = 1;
strokeWidth = 50;
};
closed = 0;
nodes = (
(150,0,l),
(150,150,l),
(150,386,l),
(150,622,l),
(150,772,l)
);
}
);
width = 300;
}
);
unicode = 305;
},
{
glyphname = j;
lastChange = "2021-05-13 07:11:52 +0000";
layers = (
{
anchors = (
{
name = bottom;
pos = (149,-1072);
},
{
name = top;
pos = (149,1544);
}
);
layerId = m01;
shapes = (
{
attr = {
lineCapEnd = 1;
lineCapStart = 1;
strokeWidth = 5;
};
closed = 0;
nodes = (
(149,0,l),
(149,150,l),
(149,386,l)
);
},
{
attr = {
lineCapEnd = 1;
lineCapStart = 1;
strokeWidth = 5;
};
closed = 0;
nodes = (
(-1,-772,l),
(82,-771,o),
(149,-704,o),
(149,-622,cs),
(149,-386,l),
(149,-150,l),
(149,0,l)
);
},
{
attr = {
lineCapEnd = 1;
lineCapStart = 1;
strokeWidth = 5;
};
closed = 0;
nodes = (
(149,622,l),
(149,772,l)
);
},
{
attr = {
lineCapEnd = 1;
lineCapStart = 1;
strokeWidth = 5;
};
closed = 0;
nodes = (
(149,622,l),
(149,772,l)
);
},
{
attr = {
lineCapEnd = 1;
lineCapStart = 1;
strokeWidth = 5;
};
closed = 0;
nodes = (
(149,386,l),
(149,622,l)
);
},
{
pos = (-1,0);
ref = _dot;
}
);
width = 299;
},
{
anchors = (
{
name = bottom;
pos = (149,-1072);
},
{
name = top;
pos = (149,1544);
}
);
layerId = "9BAD4174-69FD-4AED-8503-BDDB7C515042";
shapes = (
{
attr = {
lineCapEnd = 1;
lineCapStart = 1;
strokeWidth = 50;
};
closed = 0;
nodes = (
(149,0,l),
(149,150,l),
(149,386,l)
);
},
{
attr = {
lineCapEnd = 1;
lineCapStart = 1;
strokeWidth = 50;
};
closed = 0;
nodes = (
(-1,-772,l),
(82,-771,o),
(149,-704,o),
(149,-622,cs),
(149,-386,l),
(149,-150,l),
(149,0,l)
);
},
{
attr = {
lineCapEnd = 1;
lineCapStart = 1;
strokeWidth = 50;
};
closed = 0;
nodes = (
(149,622,l),
(149,772,l)
);
},
{
attr = {
lineCapEnd = 1;
lineCapStart = 1;
strokeWidth = 50;
};
closed = 0;
nodes = (
(149,622,l),
(149,772,l)
);
},
{
attr = {
lineCapEnd = 1;
lineCapStart = 1;
strokeWidth = 50;
};
closed = 0;
nodes = (
(149,386,l),
(149,622,l)
);
},
{
pos = (-1,0);
ref = _dot;
}
);
width = 299;
}
);
unicode = 106;
},
{
glyphname = jdotless;
lastChange = "2021-05-13 07:11:52 +0000";
layers = (
{
anchors = (
{
name = bottom;
pos = (150,-1072);
},
{
name = top;
pos = (150,1158);
}
);
layerId = m01;
shapes = (
{
attr = {
lineCapEnd = 1;
lineCapStart = 1;
strokeWidth = 5;
};
closed = 0;
nodes = (
(150,0,l),
(150,150,l),
(150,386,l)
);
},
{
attr = {
lineCapEnd = 1;
lineCapStart = 1;
strokeWidth = 5;
};
closed = 0;
nodes = (
(0,-772,l),
(83,-771,o),
(150,-704,o),
(150,-622,cs),
(150,-386,l),
(150,-150,l),
(150,0,l)
);
},
{
attr = {
lineCapEnd = 1;
lineCapStart = 1;
strokeWidth = 5;
};
closed = 0;
nodes = (
(150,622,l),
(150,772,l)
);
},
{
attr = {
lineCapEnd = 1;
lineCapStart = 1;
strokeWidth = 5;
};
closed = 0;
nodes = (
(150,622,l),
(150,772,l)
);
},
{
attr = {
lineCapEnd = 1;
lineCapStart = 1;
strokeWidth = 5;
};
closed = 0;
nodes = (
(150,386,l),
(150,622,l)
);
}
);
width = 300;
},
{
anchors = (
{
name = bottom;
pos = (150,-1072);
},
{
name = top;
pos = (150,1158);
}
);
layerId = "9BAD4174-69FD-4AED-8503-BDDB7C515042";
shapes = (
{
attr = {
lineCapEnd = 1;
lineCapStart = 1;
strokeWidth = 50;
};
closed = 0;
nodes = (
(150,0,l),
(150,150,l),
(150,386,l)
);
},
{
attr = {
lineCapEnd = 1;
lineCapStart = 1;
strokeWidth = 50;
};
closed = 0;
nodes = (
(0,-772,l),
(83,-771,o),
(150,-704,o),
(150,-622,cs),
(150,-386,l),
(150,-150,l),
(150,0,l)
);
},
{
attr = {
lineCapEnd = 1;
lineCapStart = 1;
strokeWidth = 50;
};
closed = 0;
nodes = (
(150,622,l),
(150,772,l)
);
},
{
attr = {
lineCapEnd = 1;
lineCapStart = 1;
strokeWidth = 50;
};
closed = 0;
nodes = (
(150,622,l),
(150,772,l)
);
},
{
attr = {
lineCapEnd = 1;
lineCapStart = 1;
strokeWidth = 50;
};
closed = 0;
nodes = (
(150,386,l),
(150,622,l)
);
}
);
width = 300;
}
);
unicode = 567;
},
{
glyphname = jcrossedtail;
lastChange = "2021-05-13 07:47:40 +0000";
layers = (
{
anchors = (
{
name = bottom;
pos = (149,-1072);
},
{
name = top;
pos = (149,1544);
}
);
layerId = m01;
shapes = (
{
attr = {
lineCapEnd = 1;
lineCapStart = 1;
strokeWidth = 5;
};
closed = 0;
nodes = (
(149,772,l),
(149,386,l),
(149,150,l),
(149,0,l),
(149,-150,l),
(149,-386,l),
(149,-622,ls),
(149,-704,o),
(82,-771,o),
(-1,-772,cs),
(-63,-772,o),
(-112,-723,o),
(-113,-660,cs),
(-113,-597,o),
(-63,-547,o),
(-1,-547,cs),
(56,-547,o),
(116,-603,o),
(176,-660,cs),
(197,-679,o),
(217,-698,o),
(238,-715,c)
);
},
{
pos = (-1,0);
ref = _dot;
}
);
width = 299;
},
{
anchors = (
{
name = bottom;
pos = (149,-1072);
},
{
name = top;
pos = (149,1544);
}
);
layerId = "9BAD4174-69FD-4AED-8503-BDDB7C515042";
shapes = (
{
attr = {
lineCapEnd = "1";
lineCapStart = "1";
strokeWidth = 50;
};
closed = 0;
nodes = (
(149,772,l),
(149,386,l),
(149,150,l),
(149,0,l),
(149,-150,l),
(149,-386,l),
(149,-622,ls),
(149,-704,o),
(82,-771,o),
(-1,-772,cs),
(-63,-772,o),
(-112,-723,o),
(-113,-660,cs),
(-113,-597,o),
(-63,-547,o),
(-1,-547,cs),
(56,-547,o),
(116,-603,o),
(176,-660,cs),
(197,-679,o),
(217,-698,o),
(238,-715,c)
);
},
{
pos = (-1,0);
ref = _dot;
}
);
width = 300;
}
);
unicode = 669;
},
{
glyphname = jdotlessstrokehook;
lastChange = "2021-05-13 07:11:52 +0000";
layers = (
{
layerId = m01;
shapes = (
{
ref = jdotlessstroke;
},
{
attr = {
lineCapEnd = 1;
lineCapStart = 1;
strokeWidth = 5;
};
closed = 0;
nodes = (
(225,772,ls),
(225,855,o),
(292,922,o),
(375,922,cs)
);
}
);
width = 450;
},
{
layerId = "9BAD4174-69FD-4AED-8503-BDDB7C515042";
shapes = (
{
ref = jdotlessstroke;
},
{
attr = {
lineCapEnd = 1;
lineCapStart = 1;
strokeWidth = 50;
};
closed = 0;
nodes = (
(225,772,ls),
(225,855,o),
(292,922,o),
(375,922,cs)
);
}
);
width = 450;
}
);
unicode = 644;
},
{
glyphname = k;
lastChange = "2021-05-13 07:11:52 +0000";
layers = (
{
anchors = (
{
name = bottom;
pos = (300,-386);
},
{
name = top;
pos = (300,1844);
}
);
layerId = m01;
shapes = (
{
attr = {
lineCapEnd = 1;
lineCapStart = 1;
strokeWidth = 5;
};
closed = 0;
nodes = (
(150,0,l),
(150,150,l),
(150,386,l),
(150,622,l)
);
},
{
attr = {
lineCapEnd = 1;
lineCapStart = 1;
strokeWidth = 5;
};
closed = 0;
nodes = (
(150,772,l),
(150,922,l),
(150,1158,l),
(150,1394,l),
(150,1544,l)
);
},
{
attr = {
lineCapEnd = 1;
lineCapStart = 1;
strokeWidth = 5;
};
closed = 0;
nodes = (
(150,622,l),
(150,772,l)
);
},
{
attr = {
lineCapEnd = 1;
lineCapStart = "1";
strokeWidth = 5;
};
closed = 0;
nodes = (
(450,622,l)
);
},
{
attr = {
lineCapEnd = 1;
lineCapStart = 1;
strokeWidth = 5;
};
closed = 0;
nodes = (
(450,150,ls),
(450,62,o),
(385,1,o),
(300,0,cs),
(217,0,o),
(150,66,o),
(150,150,cs),
(150,300,o),
(450,472,o),
(450,622,cs),
(450,705,o),
(382,772,o),
(300,772,cs),
(217,772,o),
(150,704,o),
(150,622,cs)
);
}
);
width = 600;
},
{
anchors = (
{
name = bottom;
pos = (300,-386);
},
{
name = top;
pos = (300,1844);
}
);
layerId = "9BAD4174-69FD-4AED-8503-BDDB7C515042";
shapes = (
{
attr = {
lineCapEnd = 1;
lineCapStart = 1;
strokeWidth = 50;
};
closed = 0;
nodes = (
(150,0,l),
(150,150,l),
(150,386,l),
(150,622,l)
);
},
{
attr = {
lineCapEnd = 1;
lineCapStart = 1;
strokeWidth = 50;
};
closed = 0;
nodes = (
(150,772,l),
(150,922,l),
(150,1158,l),
(150,1394,l),
(150,1544,l)
);
},
{
attr = {
lineCapEnd = 1;
lineCapStart = 1;
strokeWidth = 50;
};
closed = 0;
nodes = (
(150,622,l),
(150,772,l)
);
},
{
attr = {
lineCapEnd = 1;
lineCapStart = "1";
strokeWidth = 50;
};
closed = 0;
nodes = (
(450,622,l)
);
},
{
attr = {
lineCapEnd = 1;
lineCapStart = 1;
strokeWidth = 50;
};
closed = 0;
nodes = (
(450,150,ls),
(450,62,o),
(385,1,o),
(300,0,cs),
(217,0,o),
(150,66,o),
(150,150,cs),
(150,300,o),
(450,472,o),
(450,622,cs),
(450,705,o),
(382,772,o),
(300,772,cs),
(217,772,o),
(150,704,o),
(150,622,cs)
);
}
);
width = 600;
}
);
unicode = 107;
},
{
glyphname = khook;
lastChange = "2021-05-13 07:11:52 +0000";
layers = (
{
anchors = (
{
name = bottom;
pos = (300,-386);
},
{
name = top;
pos = (300,1844);
}
);
layerId = m01;
shapes = (
{
attr = {
lineCapEnd = 1;
lineCapStart = 1;
strokeWidth = 5;
};
closed = 0;
nodes = (
(150,0,l),
(150,150,l),
(150,386,l),
(150,622,l)
);
},
{
attr = {
lineCapEnd = 1;
lineCapStart = 1;
strokeWidth = 5;
};
closed = 0;
nodes = (
(150,772,l),
(150,922,l),
(150,1158,l),
(150,1394,ls),
(150,1476,o),
(217,1544,o),
(300,1544,cs)
);
},
{
attr = {
lineCapEnd = 1;
lineCapStart = 1;
strokeWidth = 5;
};
closed = 0;
nodes = (
(150,622,l),
(150,772,l)
);
},
{
attr = {
lineCapEnd = 1;
lineCapStart = "1";
strokeWidth = 5;
};
closed = 0;
nodes = (
(450,622,l)
);
},
{
attr = {
lineCapEnd = 1;
lineCapStart = 1;
strokeWidth = 5;
};
closed = 0;
nodes = (
(450,150,ls),
(450,62,o),
(385,1,o),
(300,0,cs),
(217,0,o),
(150,66,o),
(150,150,cs),
(150,300,o),
(450,472,o),
(450,622,cs),
(450,705,o),
(382,772,o),
(300,772,cs),
(217,772,o),
(150,704,o),
(150,622,cs)
);
}
);
width = 600;
},
{
anchors = (
{
name = bottom;
pos = (300,-386);
},
{
name = top;
pos = (300,1844);
}
);
layerId = "9BAD4174-69FD-4AED-8503-BDDB7C515042";
shapes = (
{
attr = {
lineCapEnd = 1;
lineCapStart = 1;
strokeWidth = 50;
};
closed = 0;
nodes = (
(150,0,l),
(150,150,l),
(150,386,l),
(150,622,l)
);
},
{
attr = {
lineCapEnd = 1;
lineCapStart = 1;
strokeWidth = 50;
};
closed = 0;
nodes = (
(150,772,l),
(150,922,l),
(150,1158,l),
(150,1394,ls),
(150,1476,o),
(217,1544,o),
(300,1544,cs)
);
},
{
attr = {
lineCapEnd = 1;
lineCapStart = 1;
strokeWidth = 50;
};
closed = 0;
nodes = (
(150,622,l),
(150,772,l)
);
},
{
attr = {
lineCapEnd = 1;
lineCapStart = "1";
strokeWidth = 50;
};
closed = 0;
nodes = (
(450,622,l)
);
},
{
attr = {
lineCapEnd = 1;
lineCapStart = 1;
strokeWidth = 50;
};
closed = 0;
nodes = (
(450,150,ls),
(450,62,o),
(385,1,o),
(300,0,cs),
(217,0,o),
(150,66,o),
(150,150,cs),
(150,300,o),
(450,472,o),
(450,622,cs),
(450,705,o),
(382,772,o),
(300,772,cs),
(217,772,o),
(150,704,o),
(150,622,cs)
);
}
);
width = 600;
}
);
unicode = 409;
},
{
glyphname = l;
lastChange = "2021-05-13 07:11:52 +0000";
layers = (
{
anchors = (
{
name = bottom;
pos = (150,-386);
},
{
name = top;
pos = (150,1844);
}
);
layerId = m01;
shapes = (
{
attr = {
lineCapEnd = "1";
lineCapStart = "1";
strokeWidth = 5;
};
closed = 0;
nodes = (
(150,150,l),
(150,386,l),
(150,622,l),
(150,772,l)
);
},
{
attr = {
lineCapEnd = "1";
lineCapStart = "1";
strokeWidth = 5;
};
closed = 0;
nodes = (
(150,772,l),
(150,922,l),
(150,1158,l),
(150,1394,l),
(150,1544,l)
);
},
{
attr = {
lineCapEnd = "1";
lineCapStart = "1";
strokeWidth = 5;
};
closed = 0;
nodes = (
(300,0,l),
(217,0,o),
(150,66,o),
(150,150,cs)
);
}
);
width = 300;
},
{
anchors = (
{
name = bottom;
pos = (150,-386);
},
{
name = top;
pos = (150,1844);
}
);
layerId = "9BAD4174-69FD-4AED-8503-BDDB7C515042";
shapes = (
{
attr = {
lineCapEnd = "1";
lineCapStart = "1";
strokeWidth = 50;
};
closed = 0;
nodes = (
(150,150,l),
(150,386,l),
(150,622,l),
(150,772,l)
);
},
{
attr = {
lineCapEnd = "1";
lineCapStart = "1";
strokeWidth = 50;
};
closed = 0;
nodes = (
(150,772,l),
(150,922,l),
(150,1158,l),
(150,1394,l),
(150,1544,l)
);
},
{
attr = {
lineCapEnd = "1";
lineCapStart = "1";
strokeWidth = 50;
};
closed = 0;
nodes = (
(300,0,l),
(217,0,o),
(150,66,o),
(150,150,cs)
);
}
);
width = 300;
}
);
unicode = 108;
},
{
glyphname = lbelt;
lastChange = "2021-05-13 07:11:52 +0000";
layers = (
{
anchors = (
{
name = bottom;
pos = (262,-386);
},
{
name = top;
pos = (262,1844);
}
);
layerId = m01;
shapes = (
{
pos = (112,0);
ref = l;
},
{
attr = {
lineCapEnd = 1;
lineCapStart = 1;
strokeWidth = 5;
};
closed = 0;
nodes = (
(351,865,l),
(330,848,o),
(310,829,o),
(289,810,cs),
(229,753,o),
(169,697,o),
(112,697,cs),
(50,697,o),
(0,747,o),
(0,810,cs),
(1,873,o),
(50,922,o),
(112,922,cs),
(195,922,o),
(261,857,o),
(262,772,cs)
);
}
);
width = 412;
},
{
anchors = (
{
name = bottom;
pos = (262,-386);
},
{
name = top;
pos = (262,1844);
}
);
layerId = "9BAD4174-69FD-4AED-8503-BDDB7C515042";
shapes = (
{
pos = (112,0);
ref = l;
},
{
attr = {
lineCapEnd = 1;
lineCapStart = 1;
strokeWidth = 50;
};
closed = 0;
nodes = (
(351,865,l),
(330,848,o),
(310,829,o),
(289,810,cs),
(229,753,o),
(169,697,o),
(112,697,cs),
(50,697,o),
(0,747,o),
(0,810,cs),
(1,873,o),
(50,922,o),
(112,922,cs),
(195,922,o),
(261,857,o),
(262,772,cs)
);
}
);
width = 412;
}
);
unicode = 620;
},
{
glyphname = lezh;
lastChange = "2021-05-13 07:11:52 +0000";
layers = (
{
anchors = (
{
name = bottom;
pos = (300,-1072);
},
{
name = top;
pos = (300,1844);
}
);
layerId = m01;
shapes = (
{
attr = {
lineCapEnd = "1";
lineCapStart = "1";
strokeWidth = 5;
};
closed = 0;
nodes = (
(150,150,l),
(150,386,l),
(150,622,l),
(150,772,l)
);
},
{
attr = {
lineCapEnd = "1";
lineCapStart = "1";
strokeWidth = 5;
};
closed = 0;
nodes = (
(150,772,l),
(150,922,l),
(150,1158,l),
(150,1394,l),
(150,1544,l)
);
},
{
attr = {
lineCapEnd = "1";
lineCapStart = "1";
strokeWidth = 5;
};
closed = 0;
nodes = (
(150,150,l)
);
},
{
alignment = -1;
ref = ezh;
}
);
width = 600;
},
{
anchors = (
{
name = bottom;
pos = (300,-1072);
},
{
name = top;
pos = (300,1844);
}
);
layerId = "9BAD4174-69FD-4AED-8503-BDDB7C515042";
shapes = (
{
attr = {
lineCapEnd = "1";
lineCapStart = "1";
strokeWidth = 50;
};
closed = 0;
nodes = (
(150,150,l),
(150,386,l),
(150,622,l),
(150,772,l)
);
},
{
attr = {
lineCapEnd = "1";
lineCapStart = "1";
strokeWidth = 50;
};
closed = 0;
nodes = (
(150,772,l),
(150,922,l),
(150,1158,l),
(150,1394,l),
(150,1544,l)
);
},
{
attr = {
lineCapEnd = "1";
lineCapStart = "1";
strokeWidth = 50;
};
closed = 0;
nodes = (
(150,150,l)
);
},
{
alignment = -1;
ref = ezh;
}
);
width = 600;
}
);
unicode = 622;
},
{
glyphname = lhookretroflex;
lastChange = "2021-05-13 07:11:52 +0000";
layers = (
{
anchors = (
{
name = bottom;
pos = (149,-1072);
},
{
name = top;
pos = (150,1844);
}
);
layerId = m01;
shapes = (
{
attr = {
lineCapEnd = 1;
lineCapStart = 1;
strokeWidth = 5;
};
closed = 0;
nodes = (
(150,772,l),
(150,622,l),
(150,386,l),
(150,150,l),
(150,0,l)
);
},
{
attr = {
lineCapEnd = 1;
lineCapStart = 1;
strokeWidth = 5;
};
closed = 0;
nodes = (
(150,772,l),
(150,922,l),
(150,1158,l),
(150,1394,l),
(150,1544,l)
);
},
{
attr = {
lineCapEnd = 1;
lineCapStart = "1";
strokeWidth = 5;
};
closed = 0;
nodes = (
(150,150,l)
);
},
{
attr = {
lineCapEnd = 1;
lineCapStart = 1;
strokeWidth = 5;
};
closed = 0;
nodes = (
(300,-772,ls),
(217,-772,o),
(150,-705,o),
(150,-622,cs)
);
},
{
attr = {
lineCapEnd = 1;
lineCapStart = 1;
strokeWidth = 5;
};
closed = 0;
nodes = (
(150,0,l),
(150,-150,l),
(150,-386,l),
(150,-622,l)
);
}
);
width = 300;
},
{
anchors = (
{
name = bottom;
pos = (149,-1072);
},
{
name = top;
pos = (150,1844);
}
);
layerId = "9BAD4174-69FD-4AED-8503-BDDB7C515042";
shapes = (
{
attr = {
lineCapEnd = 1;
lineCapStart = 1;
strokeWidth = 50;
};
closed = 0;
nodes = (
(150,772,l),
(150,622,l),
(150,386,l),
(150,150,l),
(150,0,l)
);
},
{
attr = {
lineCapEnd = 1;
lineCapStart = 1;
strokeWidth = 50;
};
closed = 0;
nodes = (
(150,772,l),
(150,922,l),
(150,1158,l),
(150,1394,l),
(150,1544,l)
);
},
{
attr = {
lineCapEnd = 1;
lineCapStart = "1";
strokeWidth = 50;
};
closed = 0;
nodes = (
(150,150,l)
);
},
{
attr = {
lineCapEnd = 1;
lineCapStart = 1;
strokeWidth = 50;
};
closed = 0;
nodes = (
(300,-772,ls),
(217,-772,o),
(150,-705,o),
(150,-622,cs)
);
},
{
attr = {
lineCapEnd = 1;
lineCapStart = 1;
strokeWidth = 50;
};
closed = 0;
nodes = (
(150,0,l),
(150,-150,l),
(150,-386,l),
(150,-622,l)
);
}
);
width = 300;
}
);
unicode = 621;
},
{
glyphname = lsdigraph;
lastChange = "2021-05-13 07:11:52 +0000";
layers = (
{
anchors = (
{
name = bottom;
pos = (300,-386);
},
{
name = top;
pos = (300,1844);
}
);
layerId = m01;
shapes = (
{
attr = {
lineCapEnd = "1";
lineCapStart = "1";
strokeWidth = 5;
};
closed = 0;
nodes = (
(150,150,l),
(150,386,l),
(150,622,l),
(150,772,l)
);
},
{
attr = {
lineCapEnd = "1";
lineCapStart = "1";
strokeWidth = 5;
};
closed = 0;
nodes = (
(150,772,l),
(150,922,l),
(150,1158,l),
(150,1394,l),
(150,1544,l)
);
},
{
attr = {
lineCapEnd = "1";
lineCapStart = "1";
strokeWidth = 5;
};
closed = 0;
nodes = (
(150,150,l)
);
},
{
alignment = -1;
ref = s;
}
);
width = 600;
},
{
anchors = (
{
name = bottom;
pos = (300,-386);
},
{
name = top;
pos = (300,1844);
}
);
layerId = "9BAD4174-69FD-4AED-8503-BDDB7C515042";
shapes = (
{
attr = {
lineCapEnd = "1";
lineCapStart = "1";
strokeWidth = 50;
};
closed = 0;
nodes = (
(150,150,l),
(150,386,l),
(150,622,l),
(150,772,l)
);
},
{
attr = {
lineCapEnd = "1";
lineCapStart = "1";
strokeWidth = 50;
};
closed = 0;
nodes = (
(150,772,l),
(150,922,l),
(150,1158,l),
(150,1394,l),
(150,1544,l)
);
},
{
attr = {
lineCapEnd = "1";
lineCapStart = "1";
strokeWidth = 50;
};
closed = 0;
nodes = (
(150,150,l)
);
},
{
alignment = -1;
ref = s;
}
);
width = 600;
}
);
unicode = 682;
},
{
glyphname = lzdigraph;
lastChange = "2021-05-13 07:11:52 +0000";
layers = (
{
anchors = (
{
name = bottom;
pos = (300,-386);
},
{
name = top;
pos = (300,1844);
}
);
layerId = m01;
shapes = (
{
attr = {
lineCapEnd = "1";
lineCapStart = "1";
strokeWidth = 5;
};
closed = 0;
nodes = (
(150,150,l),
(150,386,l),
(150,622,l),
(150,772,l)
);
},
{
attr = {
lineCapEnd = "1";
lineCapStart = "1";
strokeWidth = 5;
};
closed = 0;
nodes = (
(150,772,l),
(150,922,l),
(150,1158,l),
(150,1394,l),
(150,1544,l)
);
},
{
attr = {
lineCapEnd = "1";
lineCapStart = "1";
strokeWidth = 5;
};
closed = 0;
nodes = (
(150,150,l)
);
},
{
alignment = -1;
ref = z;
}
);
width = 600;
},
{
anchors = (
{
name = bottom;
pos = (300,-386);
},
{
name = top;
pos = (300,1844);
}
);
layerId = "9BAD4174-69FD-4AED-8503-BDDB7C515042";
shapes = (
{
attr = {
lineCapEnd = "1";
lineCapStart = "1";
strokeWidth = 50;
};
closed = 0;
nodes = (
(150,150,l),
(150,386,l),
(150,622,l),
(150,772,l)
);
},
{
attr = {
lineCapEnd = "1";
lineCapStart = "1";
strokeWidth = 50;
};
closed = 0;
nodes = (
(150,772,l),
(150,922,l),
(150,1158,l),
(150,1394,l),
(150,1544,l)
);
},
{
attr = {
lineCapEnd = "1";
lineCapStart = "1";
strokeWidth = 50;
};
closed = 0;
nodes = (
(150,150,l)
);
},
{
alignment = -1;
ref = z;
}
);
width = 600;
}
);
unicode = 683;
},
{
glyphname = m;
lastChange = "2021-05-13 07:11:52 +0000";
layers = (
{
anchors = (
{
name = bottom;
pos = (450,-386);
},
{
name = top;
pos = (450,1158);
}
);
layerId = m01;
shapes = (
{
attr = {
lineCapEnd = "1";
lineCapStart = "1";
strokeWidth = 5;
};
closed = 0;
nodes = (
(150,0,l),
(150,150,l),
(150,386,l),
(150,622,ls),
(150,704,o),
(216,772,o),
(300,772,cs),
(382,772,o),
(450,705,o),
(450,622,cs),
(450,386,l),
(450,150,l),
(450,0,l),
(450,150,l),
(450,386,l),
(450,622,ls),
(450,704,o),
(517,772,o),
(600,772,cs),
(682,772,o),
(750,705,o),
(750,622,cs),
(750,386,l),
(750,150,l),
(750,0,l)
);
},
{
attr = {
lineCapEnd = 1;
lineCapStart = 1;
strokeWidth = 5;
};
closed = 0;
nodes = (
(150,772,l),
(150,622,l)
);
}
);
width = 900;
},
{
anchors = (
{
name = bottom;
pos = (450,-386);
},
{
name = top;
pos = (450,1158);
}
);
layerId = "9BAD4174-69FD-4AED-8503-BDDB7C515042";
shapes = (
{
attr = {
lineCapEnd = "1";
lineCapStart = "1";
strokeWidth = 50;
};
closed = 0;
nodes = (
(150,0,l),
(150,150,l),
(150,386,l),
(150,622,ls),
(150,704,o),
(216,772,o),
(300,772,cs),
(382,772,o),
(450,705,o),
(450,622,cs),
(450,386,l),
(450,150,l),
(450,0,l),
(450,150,l),
(450,386,l),
(450,622,ls),
(450,704,o),
(517,772,o),
(600,772,cs),
(682,772,o),
(750,705,o),
(750,622,cs),
(750,386,l),
(750,150,l),
(750,0,l)
);
},
{
attr = {
lineCapEnd = 1;
lineCapStart = 1;
strokeWidth = 50;
};
closed = 0;
nodes = (
(150,772,l),
(150,622,l)
);
}
);
width = 900;
}
);
unicode = 109;
},
{
glyphname = mhook;
lastChange = "2021-05-13 07:11:52 +0000";
layers = (
{
anchors = (
{
name = bottom;
pos = (450,-541);
},
{
name = top;
pos = (450,1158);
}
);
layerId = m01;
shapes = (
{
ref = m;
},
{
attr = {
lineCapEnd = "1";
lineCapStart = "1";
strokeWidth = 5;
};
closed = 0;
nodes = (
(600,-300,ls),
(681,-300,o),
(750,-232,o),
(750,-150,cs),
(750,0,l)
);
}
);
width = 900;
},
{
anchors = (
{
name = bottom;
pos = (450,-541);
},
{
name = top;
pos = (450,1158);
}
);
layerId = "9BAD4174-69FD-4AED-8503-BDDB7C515042";
shapes = (
{
ref = m;
},
{
attr = {
lineCapEnd = "1";
lineCapStart = "1";
strokeWidth = 50;
};
closed = 0;
nodes = (
(600,-300,ls),
(681,-300,o),
(750,-232,o),
(750,-150,cs),
(750,0,l)
);
}
);
width = 900;
}
);
unicode = 625;
},
{
glyphname = mlonglegturned;
lastChange = "2021-05-13 07:11:52 +0000";
layers = (
{
layerId = m01;
shapes = (
{
ref = mturned;
},
{
attr = {
lineCapEnd = 1;
lineCapStart = 1;
strokeWidth = 5;
};
closed = 0;
nodes = (
(750,-150,l),
(750,0,l)
);
},
{
attr = {
lineCapEnd = 1;
lineCapStart = 1;
strokeWidth = 5;
};
closed = 0;
nodes = (
(750,-300,l),
(750,-150,l)
);
}
);
width = 900;
},
{
layerId = "9BAD4174-69FD-4AED-8503-BDDB7C515042";
shapes = (
{
ref = mturned;
},
{
attr = {
lineCapEnd = 1;
lineCapStart = 1;
strokeWidth = 50;
};
closed = 0;
nodes = (
(750,-150,l),
(750,0,l)
);
},
{
attr = {
lineCapEnd = 1;
lineCapStart = 1;
strokeWidth = 50;
};
closed = 0;
nodes = (
(750,-300,l),
(750,-150,l)
);
}
);
width = 900;
}
);
unicode = 624;
},
{
glyphname = n;
lastChange = "2021-05-13 07:11:52 +0000";
layers = (
{
anchors = (
{
name = bottom;
pos = (300,-386);
},
{
name = top;
pos = (300,1158);
}
);
layerId = m01;
shapes = (
{
attr = {
lineCapEnd = 1;
strokeWidth = 5;
};
closed = 0;
nodes = (
(150,772,l)
);
},
{
attr = {
lineCapEnd = 1;
lineCapStart = 1;
strokeWidth = 5;
};
closed = 0;
nodes = (
(450,622,l),
(450,704,o),
(382,772,o),
(300,772,cs),
(217,772,o),
(150,704,o),
(150,622,cs)
);
},
{
attr = {
lineCapEnd = 1;
strokeWidth = 5;
};
closed = 0;
nodes = (
(450,150,l)
);
},
{
attr = {
lineCapEnd = 1;
strokeWidth = 5;
};
closed = 0;
nodes = (
(150,150,ls)
);
},
{
attr = {
lineCapEnd = 1;
lineCapStart = 1;
strokeWidth = 5;
};
closed = 0;
nodes = (
(450,386,l),
(450,622,l)
);
},
{
attr = {
lineCapEnd = 1;
lineCapStart = 1;
strokeWidth = 5;
};
closed = 0;
nodes = (
(150,0,l),
(150,150,l),
(150,386,l),
(150,622,l),
(150,772,l)
);
},
{
attr = {
lineCapEnd = 1;
lineCapStart = 1;
strokeWidth = 5;
};
closed = 0;
nodes = (
(450,0,l),
(450,150,l),
(450,386,l)
);
}
);
width = 600;
},
{
anchors = (
{
name = bottom;
pos = (300,-386);
},
{
name = top;
pos = (300,1158);
}
);
layerId = "9BAD4174-69FD-4AED-8503-BDDB7C515042";
shapes = (
{
attr = {
lineCapEnd = 1;
strokeWidth = 50;
};
closed = 0;
nodes = (
(150,772,l)
);
},
{
attr = {
lineCapEnd = 1;
lineCapStart = 1;
strokeWidth = 50;
};
closed = 0;
nodes = (
(450,622,l),
(450,704,o),
(382,772,o),
(300,772,cs),
(217,772,o),
(150,704,o),
(150,622,cs)
);
},
{
attr = {
lineCapEnd = 1;
strokeWidth = 50;
};
closed = 0;
nodes = (
(450,150,l)
);
},
{
attr = {
lineCapEnd = 1;
strokeWidth = 50;
};
closed = 0;
nodes = (
(150,150,ls)
);
},
{
attr = {
lineCapEnd = 1;
lineCapStart = 1;
strokeWidth = 50;
};
closed = 0;
nodes = (
(450,386,l),
(450,622,l)
);
},
{
attr = {
lineCapEnd = 1;
lineCapStart = 1;
strokeWidth = 50;
};
closed = 0;
nodes = (
(150,0,l),
(150,150,l),
(150,386,l),
(150,622,l),
(150,772,l)
);
},
{
attr = {
lineCapEnd = 1;
lineCapStart = 1;
strokeWidth = 50;
};
closed = 0;
nodes = (
(450,0,l),
(450,150,l),
(450,386,l)
);
}
);
width = 600;
}
);
unicode = 110;
},
{
glyphname = nhookleft;
lastChange = "2021-05-13 07:11:52 +0000";
layers = (
{
anchors = (
{
name = bottom;
pos = (300,-541);
},
{
name = top;
pos = (300,1158);
}
);
layerId = m01;
shapes = (
{
ref = n;
},
{
attr = {
lineCapEnd = 1;
lineCapStart = 1;
strokeWidth = 5;
};
closed = 0;
nodes = (
(0,-300,ls),
(81,-300,o),
(150,-232,o),
(150,-150,cs),
(150,0,l)
);
}
);
width = 600;
},
{
anchors = (
{
name = bottom;
pos = (300,-541);
},
{
name = top;
pos = (300,1158);
}
);
layerId = "9BAD4174-69FD-4AED-8503-BDDB7C515042";
shapes = (
{
ref = n;
},
{
attr = {
lineCapEnd = 1;
lineCapStart = 1;
strokeWidth = 50;
};
closed = 0;
nodes = (
(0,-300,ls),
(81,-300,o),
(150,-232,o),
(150,-150,cs),
(150,0,l)
);
}
);
width = 600;
}
);
unicode = 626;
},
{
glyphname = nhookretroflex;
lastChange = "2021-05-13 07:11:52 +0000";
layers = (
{
anchors = (
{
name = bottom;
pos = (300,-541);
},
{
name = top;
pos = (300,1158);
}
);
layerId = m01;
shapes = (
{
ref = n;
},
{
attr = {
lineCapEnd = "1";
lineCapStart = "1";
strokeWidth = 5;
};
closed = 0;
nodes = (
(600,-300,ls),
(519,-300,o),
(450,-232,o),
(450,-150,cs),
(450,0,l)
);
}
);
width = 600;
},
{
anchors = (
{
name = bottom;
pos = (300,-541);
},
{
name = top;
pos = (300,1158);
}
);
layerId = "9BAD4174-69FD-4AED-8503-BDDB7C515042";
shapes = (
{
ref = n;
},
{
attr = {
lineCapEnd = "1";
lineCapStart = "1";
strokeWidth = 50;
};
closed = 0;
nodes = (
(600,-300,ls),
(519,-300,o),
(450,-232,o),
(450,-150,cs),
(450,0,l)
);
}
);
width = 600;
}
);
unicode = 627;
},
{
glyphname = eng;
lastChange = "2021-05-13 07:11:52 +0000";
layers = (
{
anchors = (
{
name = bottom;
pos = (300,-1072);
},
{
name = top;
pos = (300,1158);
}
);
layerId = m01;
shapes = (
{
ref = n;
},
{
attr = {
lineCapEnd = 1;
lineCapStart = 1;
strokeWidth = 5;
};
closed = 0;
nodes = (
(450,-622,ls),
(450,-704,o),
(383,-771,o),
(300,-772,cs),
(217,-772,o),
(150,-705,o),
(150,-622,cs)
);
},
{
attr = {
lineCapEnd = 1;
lineCapStart = 1;
strokeWidth = 5;
};
closed = 0;
nodes = (
(450,-622,l),
(450,-386,l),
(450,-150,l),
(450,0,l)
);
}
);
width = 600;
},
{
anchors = (
{
name = bottom;
pos = (300,-1072);
},
{
name = top;
pos = (300,1158);
}
);
layerId = "9BAD4174-69FD-4AED-8503-BDDB7C515042";
shapes = (
{
ref = n;
},
{
attr = {
lineCapEnd = 1;
lineCapStart = 1;
strokeWidth = 50;
};
closed = 0;
nodes = (
(450,-622,ls),
(450,-704,o),
(383,-771,o),
(300,-772,cs),
(217,-772,o),
(150,-705,o),
(150,-622,cs)
);
},
{
attr = {
lineCapEnd = 1;
lineCapStart = 1;
strokeWidth = 50;
};
closed = 0;
nodes = (
(450,-622,l),
(450,-386,l),
(450,-150,l),
(450,0,l)
);
}
);
width = 600;
}
);
unicode = 331;
},
{
glyphname = o;
lastChange = "2021-05-13 07:11:52 +0000";
layers = (
{
anchors = (
{
name = bottom;
pos = (300,-386);
},
{
name = top;
pos = (300,1158);
}
);
layerId = m01;
shapes = (
{
attr = {
strokeWidth = 5;
};
closed = 1;
nodes = (
(217,0,o),
(150,66,o),
(150,150,cs),
(150,386,l),
(150,622,ls),
(150,704,o),
(217,772,o),
(300,772,cs),
(383,772,o),
(450,704,o),
(450,622,cs),
(450,386,l),
(450,150,ls),
(450,66,o),
(383,0,o),
(300,0,cs)
);
}
);
width = 600;
},
{
anchors = (
{
name = bottom;
pos = (300,-386);
},
{
name = top;
pos = (300,1158);
}
);
layerId = "9BAD4174-69FD-4AED-8503-BDDB7C515042";
shapes = (
{
attr = {
strokeWidth = 50;
};
closed = 1;
nodes = (
(217,0,o),
(150,66,o),
(150,150,cs),
(150,386,l),
(150,622,ls),
(150,704,o),
(217,772,o),
(300,772,cs),
(383,772,o),
(450,704,o),
(450,622,cs),
(450,386,l),
(450,150,ls),
(450,66,o),
(383,0,o),
(300,0,cs)
);
}
);
width = 600;
}
);
unicode = 111;
},
{
glyphname = obarred;
lastChange = "2021-05-13 07:11:52 +0000";
layers = (
{
layerId = m01;
shapes = (
{
ref = o;
},
{
attr = {
lineCapEnd = 1;
lineCapStart = 1;
strokeWidth = 5;
};
closed = 0;
nodes = (
(150,386,l),
(300,386,l),
(450,386,l)
);
}
);
width = 600;
},
{
layerId = "9BAD4174-69FD-4AED-8503-BDDB7C515042";
shapes = (
{
ref = o;
},
{
attr = {
lineCapEnd = 1;
lineCapStart = 1;
strokeWidth = 50;
};
closed = 0;
nodes = (
(150,386,l),
(300,386,l),
(450,386,l)
);
}
);
width = 600;
}
);
unicode = 629;
},
{
glyphname = oopen;
lastChange = "2021-05-13 07:11:52 +0000";
layers = (
{
anchors = (
{
name = bottom;
pos = (300,-386);
},
{
name = top;
pos = (300,1158);
}
);
layerId = m01;
shapes = (
{
attr = {
lineCapEnd = 1;
lineCapStart = 1;
strokeWidth = 5;
};
closed = 0;
nodes = (
(150,150,ls),
(150,64,o),
(217,0,o),
(300,0,cs),
(385,1,o),
(450,67,o),
(450,150,cs),
(450,386,l),
(450,622,ls),
(450,705,o),
(383,772,o),
(300,772,cs),
(217,772,o),
(150,704,o),
(150,622,cs)
);
}
);
width = 600;
},
{
anchors = (
{
name = bottom;
pos = (300,-386);
},
{
name = top;
pos = (300,1158);
}
);
layerId = "9BAD4174-69FD-4AED-8503-BDDB7C515042";
shapes = (
{
attr = {
lineCapEnd = 1;
lineCapStart = 1;
strokeWidth = 50;
};
closed = 0;
nodes = (
(150,150,ls),
(150,64,o),
(217,0,o),
(300,0,cs),
(385,1,o),
(450,67,o),
(450,150,cs),
(450,386,l),
(450,622,ls),
(450,705,o),
(383,772,o),
(300,772,cs),
(217,772,o),
(150,704,o),
(150,622,cs)
);
}
);
width = 600;
}
);
unicode = 596;
},
{
glyphname = oslash;
lastChange = "2021-05-13 07:11:52 +0000";
layers = (
{
layerId = m01;
shapes = (
{
ref = o;
},
{
attr = {
lineCapEnd = 1;
lineCapStart = 1;
strokeWidth = 5;
};
closed = 0;
nodes = (
(450,772,l),
(150,0,l)
);
}
);
width = 600;
},
{
layerId = "9BAD4174-69FD-4AED-8503-BDDB7C515042";
shapes = (
{
ref = o;
},
{
attr = {
lineCapEnd = 1;
lineCapStart = 1;
strokeWidth = 50;
};
closed = 0;
nodes = (
(450,772,l),
(150,0,l)
);
}
);
width = 600;
}
);
unicode = 248;
},
{
glyphname = p;
lastChange = "2021-05-13 07:11:52 +0000";
layers = (
{
anchors = (
{
name = bottom;
pos = (300,-1072);
},
{
name = top;
pos = (300,1158);
}
);
layerId = m01;
shapes = (
{
attr = {
lineCapEnd = "1";
lineCapStart = "1";
strokeWidth = 5;
};
closed = 0;
nodes = (
(150,0,l),
(150,150,l),
(150,386,l),
(150,622,ls),
(150,706,o),
(217,772,o),
(300,772,cs),
(383,771,o),
(450,706,o),
(450,622,c)
);
},
{
attr = {
lineCapEnd = "1";
lineCapStart = "1";
strokeWidth = 5;
};
closed = 0;
nodes = (
(450,386,l),
(450,622,l)
);
},
{
attr = {
lineCapEnd = "1";
lineCapStart = "1";
strokeWidth = 5;
};
closed = 0;
nodes = (
(150,-772,l),
(150,-622,l),
(150,-386,l),
(150,-150,l),
(150,0,l)
);
},
{
attr = {
lineCapEnd = "1";
lineCapStart = "1";
strokeWidth = 5;
};
closed = 0;
nodes = (
(150,150,l),
(150,68,o),
(217,0,o),
(300,0,cs),
(382,0,o),
(450,68,o),
(450,150,c)
);
},
{
attr = {
lineCapEnd = "1";
lineCapStart = "1";
strokeWidth = 5;
};
closed = 0;
nodes = (
(450,150,l),
(450,386,l)
);
}
);
width = 600;
},
{
anchors = (
{
name = bottom;
pos = (300,-1072);
},
{
name = top;
pos = (300,1158);
}
);
layerId = "9BAD4174-69FD-4AED-8503-BDDB7C515042";
shapes = (
{
attr = {
lineCapEnd = "1";
lineCapStart = "1";
strokeWidth = 50;
};
closed = 0;
nodes = (
(150,0,l),
(150,150,l),
(150,386,l),
(150,622,ls),
(150,706,o),
(217,772,o),
(300,772,cs),
(383,771,o),
(450,706,o),
(450,622,c)
);
},
{
attr = {
lineCapEnd = "1";
lineCapStart = "1";
strokeWidth = 50;
};
closed = 0;
nodes = (
(450,386,l),
(450,622,l)
);
},
{
attr = {
lineCapEnd = "1";
lineCapStart = "1";
strokeWidth = 50;
};
closed = 0;
nodes = (
(150,-772,l),
(150,-622,l),
(150,-386,l),
(150,-150,l),
(150,0,l)
);
},
{
attr = {
lineCapEnd = "1";
lineCapStart = "1";
strokeWidth = 50;
};
closed = 0;
nodes = (
(150,150,l),
(150,68,o),
(217,0,o),
(300,0,cs),
(382,0,o),
(450,68,o),
(450,150,c)
);
},
{
attr = {
lineCapEnd = "1";
lineCapStart = "1";
strokeWidth = 50;
};
closed = 0;
nodes = (
(450,150,l),
(450,386,l)
);
}
);
width = 600;
}
);
unicode = 112;
},
{
glyphname = "phi-latin";
lastChange = "2021-05-13 07:11:52 +0000";
layers = (
{
anchors = (
{
name = bottom;
pos = (450,-1072);
},
{
name = top;
pos = (450,1844);
}
);
layerId = m01;
shapes = (
{
attr = {
lineCapEnd = 1;
lineCapStart = 1;
strokeWidth = 5;
};
closed = 0;
nodes = (
(450,-772,l),
(450,-622,l),
(450,-386,l),
(450,-150,l),
(450,0,l),
(450,150,l),
(450,386,l),
(450,622,l),
(450,772,l),
(450,922,l),
(450,1158,l),
(450,1394,l),
(450,1544,l)
);
},
{
attr = {
lineCapEnd = 1;
lineCapStart = 1;
strokeWidth = 5;
};
closed = 0;
nodes = (
(300,772,ls),
(217,772,o),
(150,704,o),
(150,622,cs)
);
},
{
attr = {
lineCapEnd = 1;
lineCapStart = 1;
strokeWidth = 5;
};
closed = 0;
nodes = (
(300,0,ls),
(217,0,o),
(150,64,o),
(150,150,cs)
);
},
{
attr = {
lineCapEnd = 1;
lineCapStart = 1;
strokeWidth = 5;
};
closed = 0;
nodes = (
(150,622,l),
(150,386,l),
(150,150,l)
);
},
{
attr = {
lineCapEnd = 1;
lineCapStart = 1;
strokeWidth = 5;
};
closed = 0;
nodes = (
(300,0,l),
(450,0,l)
);
},
{
attr = {
lineCapEnd = 1;
lineCapStart = 1;
strokeWidth = 5;
};
closed = 0;
nodes = (
(450,772,l),
(300,772,l)
);
},
{
attr = {
lineCapEnd = 1;
lineCapStart = 1;
strokeWidth = 5;
};
closed = 0;
nodes = (
(750,622,ls),
(750,705,o),
(682,772,o),
(600,772,cs)
);
},
{
attr = {
lineCapEnd = 1;
lineCapStart = 1;
strokeWidth = 5;
};
closed = 0;
nodes = (
(750,150,ls),
(750,64,o),
(684,1,o),
(600,0,cs)
);
},
{
attr = {
lineCapEnd = 1;
lineCapStart = 1;
strokeWidth = 5;
};
closed = 0;
nodes = (
(600,772,l),
(450,772,l)
);
},
{
attr = {
lineCapEnd = 1;
lineCapStart = 1;
strokeWidth = 5;
};
closed = 0;
nodes = (
(450,0,l),
(600,0,l)
);
},
{
attr = {
lineCapEnd = 1;
lineCapStart = 1;
strokeWidth = 5;
};
closed = 0;
nodes = (
(750,150,l),
(750,386,l),
(750,622,l)
);
}
);
width = 900;
},
{
anchors = (
{
name = bottom;
pos = (450,-1072);
},
{
name = top;
pos = (450,1844);
}
);
layerId = "9BAD4174-69FD-4AED-8503-BDDB7C515042";
shapes = (
{
attr = {
lineCapEnd = 1;
lineCapStart = 1;
strokeWidth = 50;
};
closed = 0;
nodes = (
(450,-772,l),
(450,-622,l),
(450,-386,l),
(450,-150,l),
(450,0,l),
(450,150,l),
(450,386,l),
(450,622,l),
(450,772,l),
(450,922,l),
(450,1158,l),
(450,1394,l),
(450,1544,l)
);
},
{
attr = {
lineCapEnd = 1;
lineCapStart = 1;
strokeWidth = 50;
};
closed = 0;
nodes = (
(300,772,ls),
(217,772,o),
(150,704,o),
(150,622,cs)
);
},
{
attr = {
lineCapEnd = 1;
lineCapStart = 1;
strokeWidth = 50;
};
closed = 0;
nodes = (
(300,0,ls),
(217,0,o),
(150,64,o),
(150,150,cs)
);
},
{
attr = {
lineCapEnd = 1;
lineCapStart = 1;
strokeWidth = 50;
};
closed = 0;
nodes = (
(150,622,l),
(150,386,l),
(150,150,l)
);
},
{
attr = {
lineCapEnd = 1;
lineCapStart = 1;
strokeWidth = 50;
};
closed = 0;
nodes = (
(300,0,l),
(450,0,l)
);
},
{
attr = {
lineCapEnd = 1;
lineCapStart = 1;
strokeWidth = 50;
};
closed = 0;
nodes = (
(450,772,l),
(300,772,l)
);
},
{
attr = {
lineCapEnd = 1;
lineCapStart = 1;
strokeWidth = 50;
};
closed = 0;
nodes = (
(750,622,ls),
(750,705,o),
(682,772,o),
(600,772,cs)
);
},
{
attr = {
lineCapEnd = 1;
lineCapStart = 1;
strokeWidth = 50;
};
closed = 0;
nodes = (
(750,150,ls),
(750,64,o),
(684,1,o),
(600,0,cs)
);
},
{
attr = {
lineCapEnd = 1;
lineCapStart = 1;
strokeWidth = 50;
};
closed = 0;
nodes = (
(600,772,l),
(450,772,l)
);
},
{
attr = {
lineCapEnd = 1;
lineCapStart = 1;
strokeWidth = 50;
};
closed = 0;
nodes = (
(450,0,l),
(600,0,l)
);
},
{
attr = {
lineCapEnd = 1;
lineCapStart = 1;
strokeWidth = 50;
};
closed = 0;
nodes = (
(750,150,l),
(750,386,l),
(750,622,l)
);
}
);
width = 900;
}
);
unicode = 632;
},
{
glyphname = phook;
lastChange = "2021-05-13 07:11:52 +0000";
layers = (
{
anchors = (
{
name = bottom;
pos = (300,-1072);
},
{
name = top;
pos = (300,1844);
}
);
layerId = m01;
shapes = (
{
ref = p;
},
{
attr = {
lineCapEnd = "1";
lineCapStart = "1";
strokeWidth = 5;
};
closed = 0;
nodes = (
(150,622,l),
(150,922,ls),
(150,1004,o),
(217,1072,o),
(300,1072,c)
);
}
);
width = 600;
},
{
anchors = (
{
name = bottom;
pos = (300,-1072);
},
{
name = top;
pos = (300,1844);
}
);
layerId = "9BAD4174-69FD-4AED-8503-BDDB7C515042";
shapes = (
{
ref = p;
},
{
attr = {
lineCapEnd = "1";
lineCapStart = "1";
strokeWidth = 50;
};
closed = 0;
nodes = (
(150,622,l),
(150,922,ls),
(150,1004,o),
(217,1072,o),
(300,1072,c)
);
}
);
width = 600;
}
);
unicode = 421;
},
{
glyphname = thorn;
lastChange = "2021-05-13 07:11:52 +0000";
layers = (
{
anchors = (
{
name = bottom;
pos = (300,-1072);
},
{
name = top;
pos = (300,1844);
}
);
layerId = m01;
shapes = (
{
ref = p;
},
{
attr = {
lineCapEnd = "1";
lineCapStart = "1";
strokeWidth = 5;
};
closed = 0;
nodes = (
(150,622,l),
(150,772,l),
(150,922,l),
(150,1158,l),
(150,1394,l),
(150,1544,l)
);
}
);
width = 600;
},
{
anchors = (
{
name = bottom;
pos = (300,-1072);
},
{
name = top;
pos = (300,1844);
}
);
layerId = "9BAD4174-69FD-4AED-8503-BDDB7C515042";
shapes = (
{
ref = p;
},
{
attr = {
lineCapEnd = "1";
lineCapStart = "1";
strokeWidth = 50;
};
closed = 0;
nodes = (
(150,622,l),
(150,772,l),
(150,922,l),
(150,1158,l),
(150,1394,l),
(150,1544,l)
);
}
);
width = 600;
}
);
unicode = 254;
},
{
glyphname = q;
lastChange = "2021-05-13 07:11:52 +0000";
layers = (
{
anchors = (
{
name = bottom;
pos = (300,-1072);
},
{
name = top;
pos = (300,1158);
}
);
layerId = m01;
shapes = (
{
attr = {
lineCapEnd = "1";
lineCapStart = "1";
strokeWidth = 5;
};
closed = 0;
nodes = (
(450,0,l),
(450,150,l),
(450,386,l),
(450,622,l)
);
},
{
attr = {
lineCapEnd = "1";
lineCapStart = "1";
strokeWidth = 5;
};
closed = 0;
nodes = (
(150,386,l),
(150,622,l)
);
},
{
attr = {
lineCapEnd = "1";
lineCapStart = "1";
strokeWidth = 5;
};
closed = 0;
nodes = (
(450,-772,l),
(450,-622,l),
(450,-386,l),
(450,-150,l),
(450,0,l)
);
},
{
attr = {
lineCapEnd = "1";
lineCapStart = "1";
strokeWidth = 5;
};
closed = 0;
nodes = (
(150,150,l),
(150,68,o),
(218,0,o),
(300,0,cs),
(383,0,o),
(450,68,o),
(450,150,cs)
);
},
{
attr = {
lineCapEnd = "1";
lineCapStart = "1";
strokeWidth = 5;
};
closed = 0;
nodes = (
(150,622,l),
(150,706,o),
(217,771,o),
(300,772,cs),
(383,772,o),
(450,706,o),
(450,622,cs)
);
},
{
attr = {
lineCapEnd = "1";
lineCapStart = "1";
strokeWidth = 5;
};
closed = 0;
nodes = (
(150,150,l),
(150,386,l)
);
}
);
width = 600;
},
{
anchors = (
{
name = bottom;
pos = (300,-1072);
},
{
name = top;
pos = (300,1158);
}
);
layerId = "9BAD4174-69FD-4AED-8503-BDDB7C515042";
shapes = (
{
attr = {
lineCapEnd = "1";
lineCapStart = "1";
strokeWidth = 50;
};
closed = 0;
nodes = (
(450,0,l),
(450,150,l),
(450,386,l),
(450,622,l)
);
},
{
attr = {
lineCapEnd = "1";
lineCapStart = "1";
strokeWidth = 50;
};
closed = 0;
nodes = (
(150,386,l),
(150,622,l)
);
},
{
attr = {
lineCapEnd = "1";
lineCapStart = "1";
strokeWidth = 50;
};
closed = 0;
nodes = (
(450,-772,l),
(450,-622,l),
(450,-386,l),
(450,-150,l),
(450,0,l)
);
},
{
attr = {
lineCapEnd = "1";
lineCapStart = "1";
strokeWidth = 50;
};
closed = 0;
nodes = (
(150,150,l),
(150,68,o),
(218,0,o),
(300,0,cs),
(383,0,o),
(450,68,o),
(450,150,cs)
);
},
{
attr = {
lineCapEnd = "1";
lineCapStart = "1";
strokeWidth = 50;
};
closed = 0;
nodes = (
(150,622,l),
(150,706,o),
(217,771,o),
(300,772,cs),
(383,772,o),
(450,706,o),
(450,622,cs)
);
},
{
attr = {
lineCapEnd = "1";
lineCapStart = "1";
strokeWidth = 50;
};
closed = 0;
nodes = (
(150,150,l),
(150,386,l)
);
}
);
width = 600;
}
);
unicode = 113;
},
{
glyphname = qhook;
lastChange = "2021-05-13 07:11:52 +0000";
layers = (
{
layerId = m01;
shapes = (
{
ref = q;
},
{
attr = {
lineCapEnd = "1";
lineCapStart = "1";
strokeWidth = 5;
};
closed = 0;
nodes = (
(450,622,l),
(450,772,ls),
(450,834,o),
(500,885,o),
(563,885,cs)
);
}
);
width = 600;
},
{
layerId = "9BAD4174-69FD-4AED-8503-BDDB7C515042";
shapes = (
{
ref = q;
},
{
attr = {
lineCapEnd = "1";
lineCapStart = "1";
strokeWidth = 50;
};
closed = 0;
nodes = (
(450,622,l),
(450,772,ls),
(450,834,o),
(500,885,o),
(563,885,cs)
);
}
);
width = 600;
}
);
unicode = 672;
},
{
glyphname = r;
lastChange = "2021-05-13 07:11:52 +0000";
layers = (
{
anchors = (
{
name = bottom;
pos = (150,-386);
},
{
name = top;
pos = (225,1158);
}
);
layerId = m01;
shapes = (
{
attr = {
lineCapEnd = 1;
lineCapStart = 1;
strokeWidth = 5;
};
closed = 0;
nodes = (
(150,0,l),
(150,150,l),
(150,386,l),
(150,622,ls),
(150,707,o),
(217,772,o),
(300,772,cs)
);
},
{
attr = {
lineCapEnd = 1;
lineCapStart = 1;
strokeWidth = 5;
};
closed = 0;
nodes = (
(150,772,l),
(150,622,l)
);
}
);
width = 375;
},
{
anchors = (
{
name = bottom;
pos = (150,-386);
},
{
name = top;
pos = (225,1158);
}
);
layerId = "9BAD4174-69FD-4AED-8503-BDDB7C515042";
shapes = (
{
attr = {
lineCapEnd = 1;
lineCapStart = 1;
strokeWidth = 50;
};
closed = 0;
nodes = (
(150,0,l),
(150,150,l),
(150,386,l),
(150,622,ls),
(150,707,o),
(217,772,o),
(300,772,cs)
);
},
{
attr = {
lineCapEnd = 1;
lineCapStart = 1;
strokeWidth = 50;
};
closed = 0;
nodes = (
(150,772,l),
(150,622,l)
);
}
);
width = 375;
}
);
unicode = 114;
},
{
glyphname = ramshorn;
lastChange = "2021-05-13 07:11:52 +0000";
layers = (
{
anchors = (
{
name = bottom;
pos = (300,-386);
},
{
name = top;
pos = (300,1158);
}
);
layerId = m01;
shapes = (
{
attr = {
lineCapEnd = 1;
lineCapStart = 1;
strokeWidth = 5;
};
closed = 0;
nodes = (
(600,772,ls),
(516,772,o),
(450,705,o),
(450,623,cs),
(450,473,o),
(150,300,o),
(150,150,cs),
(150,66,o),
(217,0,o),
(300,0,cs),
(385,1,o),
(450,64,o),
(450,150,cs),
(450,300,o),
(150,472,o),
(150,622,cs),
(150,705,o),
(83,772,o),
(0,772,cs)
);
}
);
width = 600;
},
{
anchors = (
{
name = bottom;
pos = (300,-386);
},
{
name = top;
pos = (300,1158);
}
);
layerId = "9BAD4174-69FD-4AED-8503-BDDB7C515042";
shapes = (
{
attr = {
lineCapEnd = 1;
lineCapStart = 1;
strokeWidth = 50;
};
closed = 0;
nodes = (
(600,772,ls),
(516,772,o),
(450,705,o),
(450,623,cs),
(450,473,o),
(150,300,o),
(150,150,cs),
(150,66,o),
(217,0,o),
(300,0,cs),
(385,1,o),
(450,64,o),
(450,150,cs),
(450,300,o),
(150,472,o),
(150,622,cs),
(150,705,o),
(83,772,o),
(0,772,cs)
);
}
);
width = 600;
}
);
unicode = 612;
},
{
glyphname = rfishhook;
lastChange = "2021-05-13 07:11:52 +0000";
layers = (
{
anchors = (
{
name = bottom;
pos = (150,-386);
},
{
name = top;
pos = (225,1158);
}
);
layerId = m01;
shapes = (
{
attr = {
lineCapEnd = "1";
lineCapStart = "1";
strokeWidth = 5;
};
closed = 0;
nodes = (
(150,0,l),
(150,150,l),
(150,386,l),
(150,622,ls),
(150,707,o),
(217,772,o),
(300,772,cs)
);
}
);
width = 375;
},
{
anchors = (
{
name = bottom;
pos = (150,-386);
},
{
name = top;
pos = (225,1158);
}
);
layerId = "9BAD4174-69FD-4AED-8503-BDDB7C515042";
shapes = (
{
attr = {
lineCapEnd = "1";
lineCapStart = "1";
strokeWidth = 50;
};
closed = 0;
nodes = (
(150,0,l),
(150,150,l),
(150,386,l),
(150,622,ls),
(150,707,o),
(217,772,o),
(300,772,cs)
);
}
);
width = 375;
}
);
unicode = 638;
},
{
glyphname = rhookturned;
lastChange = "2021-05-13 07:11:52 +0000";
layers = (
{
anchors = (
{
name = bottom;
pos = (225,-541);
},
{
name = top;
pos = (225,1158);
}
);
layerId = m01;
shapes = (
{
attr = {
lineCapEnd = 1;
lineCapStart = 1;
strokeWidth = 5;
};
closed = 0;
nodes = (
(225,772,l),
(225,622,l),
(225,386,l),
(225,150,ls),
(225,65,o),
(158,0,o),
(75,0,cs)
);
},
{
attr = {
lineCapEnd = "1";
lineCapStart = "1";
strokeWidth = 5;
};
closed = 0;
nodes = (
(375,-300,ls),
(294,-300,o),
(225,-232,o),
(225,-150,cs),
(225,0,l),
(225,150,l)
);
}
);
width = 375;
},
{
anchors = (
{
name = bottom;
pos = (225,-541);
},
{
name = top;
pos = (225,1158);
}
);
layerId = "9BAD4174-69FD-4AED-8503-BDDB7C515042";
shapes = (
{
attr = {
lineCapEnd = 1;
lineCapStart = 1;
strokeWidth = 50;
};
closed = 0;
nodes = (
(225,772,l),
(225,622,l),
(225,386,l),
(225,150,ls),
(225,65,o),
(158,0,o),
(75,0,cs)
);
},
{
attr = {
lineCapEnd = "1";
lineCapStart = "1";
strokeWidth = 50;
};
closed = 0;
nodes = (
(375,-300,ls),
(294,-300,o),
(225,-232,o),
(225,-150,cs),
(225,0,l),
(225,150,l)
);
}
);
width = 375;
}
);
unicode = 635;
},
{
glyphname = rlonglegturned;
lastChange = "2021-05-13 07:11:52 +0000";
layers = (
{
anchors = (
{
name = bottom;
pos = (150,-386);
},
{
name = top;
pos = (225,1844);
}
);
layerId = m01;
shapes = (
{
attr = {
lineCapEnd = 1;
lineCapStart = 1;
strokeWidth = 5;
};
closed = 0;
nodes = (
(75,0,ls),
(158,0,o),
(225,65,o),
(225,150,cs),
(225,386,l),
(225,622,l),
(225,772,l),
(225,922,l),
(225,1158,l),
(225,1394,l),
(225,1544,l)
);
},
{
attr = {
lineCapEnd = 1;
lineCapStart = 1;
strokeWidth = 5;
};
closed = 0;
nodes = (
(225,0,l),
(225,150,l)
);
}
);
width = 375;
},
{
anchors = (
{
name = bottom;
pos = (150,-386);
},
{
name = top;
pos = (225,1844);
}
);
layerId = "9BAD4174-69FD-4AED-8503-BDDB7C515042";
shapes = (
{
attr = {
lineCapEnd = 1;
lineCapStart = 1;
strokeWidth = 50;
};
closed = 0;
nodes = (
(75,0,ls),
(158,0,o),
(225,65,o),
(225,150,cs),
(225,386,l),
(225,622,l),
(225,772,l),
(225,922,l),
(225,1158,l),
(225,1394,l),
(225,1544,l)
);
},
{
attr = {
lineCapEnd = 1;
lineCapStart = 1;
strokeWidth = 50;
};
closed = 0;
nodes = (
(225,0,l),
(225,150,l)
);
}
);
width = 375;
}
);
unicode = 634;
},
{
glyphname = rtail;
lastChange = "2021-05-13 07:11:52 +0000";
layers = (
{
anchors = (
{
name = bottom;
pos = (225,-541);
},
{
name = top;
pos = (225,1158);
}
);
layerId = m01;
shapes = (
{
ref = r;
},
{
attr = {
lineCapEnd = "1";
lineCapStart = "1";
strokeWidth = 5;
};
closed = 0;
nodes = (
(300,-300,ls),
(219,-300,o),
(150,-232,o),
(150,-150,cs),
(150,0,l)
);
}
);
width = 375;
},
{
anchors = (
{
name = bottom;
pos = (225,-541);
},
{
name = top;
pos = (225,1158);
}
);
layerId = "9BAD4174-69FD-4AED-8503-BDDB7C515042";
shapes = (
{
ref = r;
},
{
attr = {
lineCapEnd = "1";
lineCapStart = "1";
strokeWidth = 50;
};
closed = 0;
nodes = (
(300,-300,ls),
(219,-300,o),
(150,-232,o),
(150,-150,cs),
(150,0,l)
);
}
);
width = 375;
}
);
unicode = 637;
},
{
glyphname = s;
lastChange = "2021-05-13 07:11:52 +0000";
layers = (
{
anchors = (
{
name = bottom;
pos = (300,-386);
},
{
name = top;
pos = (300,1158);
}
);
layerId = m01;
shapes = (
{
attr = {
lineCapEnd = "1";
lineCapStart = "1";
strokeWidth = 5;
};
closed = 0;
nodes = (
(450,622,ls),
(450,704,o),
(383,772,o),
(300,772,cs),
(218,772,o),
(150,705,o),
(150,622,c)
);
},
{
attr = {
lineCapEnd = "1";
lineCapStart = "1";
strokeWidth = 5;
};
closed = 0;
nodes = (
(150,150,ls),
(150,65,o),
(216,1,o),
(300,0,cs),
(383,0,o),
(450,66,o),
(450,150,cs),
(450,300,o),
(150,472,o),
(150,622,cs)
);
}
);
width = 600;
},
{
anchors = (
{
name = bottom;
pos = (300,-386);
},
{
name = top;
pos = (300,1158);
}
);
layerId = "9BAD4174-69FD-4AED-8503-BDDB7C515042";
shapes = (
{
attr = {
lineCapEnd = "1";
lineCapStart = "1";
strokeWidth = 50;
};
closed = 0;
nodes = (
(450,622,ls),
(450,704,o),
(383,772,o),
(300,772,cs),
(218,772,o),
(150,705,o),
(150,622,c)
);
},
{
attr = {
lineCapEnd = "1";
lineCapStart = "1";
strokeWidth = 50;
};
closed = 0;
nodes = (
(150,150,ls),
(150,65,o),
(216,1,o),
(300,0,cs),
(383,0,o),
(450,66,o),
(450,150,cs),
(450,300,o),
(150,472,o),
(150,622,cs)
);
}
);
width = 600;
}
);
unicode = 115;
},
{
glyphname = germandbls;
lastChange = "2021-05-13 07:11:52 +0000";
layers = (
{
anchors = (
{
name = bottom;
pos = (450,-386);
},
{
name = top;
pos = (450,1844);
}
);
layerId = m01;
shapes = (
{
attr = {
lineCapEnd = 1;
lineCapStart = 1;
strokeWidth = 5;
};
closed = 0;
nodes = (
(150,0,l),
(150,150,l),
(150,386,l),
(150,622,l),
(150,772,l),
(150,922,l),
(150,1158,l),
(150,1394,l)
);
},
{
attr = {
lineCapEnd = 1;
lineCapStart = 1;
strokeWidth = 5;
};
closed = 0;
nodes = (
(300,0,l),
(450,0,l)
);
},
{
attr = {
lineCapEnd = 1;
lineCapStart = 1;
strokeWidth = 5;
};
closed = 0;
nodes = (
(450,622,l),
(450,772,l)
);
},
{
attr = {
lineCapEnd = 1;
lineCapStart = 1;
strokeWidth = 5;
};
closed = 0;
nodes = (
(450,622,l),
(450,472,o),
(750,300,o),
(750,150,cs),
(750,64,o),
(684,1,o),
(600,0,cs),
(450,0,l)
);
},
{
attr = {
lineCapEnd = 1;
lineCapStart = 1;
strokeWidth = 5;
};
closed = 0;
nodes = (
(450,772,l),
(450,922,l)
);
},
{
attr = {
lineCapEnd = 1;
lineCapStart = 1;
strokeWidth = 5;
};
closed = 0;
nodes = (
(450,1544,l),
(300,1544,ls),
(217,1544,o),
(150,1476,o),
(150,1394,cs)
);
},
{
attr = {
lineCapEnd = 1;
lineCapStart = 1;
strokeWidth = 5;
};
closed = 0;
nodes = (
(450,922,l),
(450,1072,o),
(750,1244,o),
(750,1394,cs),
(750,1477,o),
(682,1544,o),
(600,1544,cs)
);
},
{
attr = {
lineCapEnd = 1;
lineCapStart = 1;
strokeWidth = 5;
};
closed = 0;
nodes = (
(600,1544,l),
(450,1544,l)
);
}
);
width = 900;
},
{
anchors = (
{
name = bottom;
pos = (450,-386);
},
{
name = top;
pos = (450,1844);
}
);
layerId = "9BAD4174-69FD-4AED-8503-BDDB7C515042";
shapes = (
{
attr = {
lineCapEnd = 1;
lineCapStart = 1;
strokeWidth = 50;
};
closed = 0;
nodes = (
(150,0,l),
(150,150,l),
(150,386,l),
(150,622,l),
(150,772,l),
(150,922,l),
(150,1158,l),
(150,1394,l)
);
},
{
attr = {
lineCapEnd = 1;
lineCapStart = 1;
strokeWidth = 50;
};
closed = 0;
nodes = (
(300,0,l),
(450,0,l)
);
},
{
attr = {
lineCapEnd = 1;
lineCapStart = 1;
strokeWidth = 50;
};
closed = 0;
nodes = (
(450,622,l),
(450,772,l)
);
},
{
attr = {
lineCapEnd = 1;
lineCapStart = 1;
strokeWidth = 50;
};
closed = 0;
nodes = (
(450,622,l),
(450,472,o),
(750,300,o),
(750,150,cs),
(750,64,o),
(684,1,o),
(600,0,cs),
(450,0,l)
);
},
{
attr = {
lineCapEnd = 1;
lineCapStart = 1;
strokeWidth = 50;
};
closed = 0;
nodes = (
(450,772,l),
(450,922,l)
);
},
{
attr = {
lineCapEnd = 1;
lineCapStart = 1;
strokeWidth = 50;
};
closed = 0;
nodes = (
(450,1544,l),
(300,1544,ls),
(217,1544,o),
(150,1476,o),
(150,1394,cs)
);
},
{
attr = {
lineCapEnd = 1;
lineCapStart = 1;
strokeWidth = 50;
};
closed = 0;
nodes = (
(450,922,l),
(450,1072,o),
(750,1244,o),
(750,1394,cs),
(750,1477,o),
(682,1544,o),
(600,1544,cs)
);
},
{
attr = {
lineCapEnd = 1;
lineCapStart = 1;
strokeWidth = 50;
};
closed = 0;
nodes = (
(600,1544,l),
(450,1544,l)
);
}
);
width = 900;
}
);
unicode = 223;
},
{
glyphname = shook;
lastChange = "2021-05-13 07:11:52 +0000";
layers = (
{
anchors = (
{
name = bottom;
pos = (300,-541);
},
{
name = top;
pos = (300,1158);
}
);
layerId = m01;
shapes = (
{
ref = s;
},
{
attr = {
lineCapEnd = "1";
lineCapStart = "1";
strokeWidth = 5;
};
closed = 0;
nodes = (
(300,-300,ls),
(219,-300,o),
(150,-232,o),
(150,-150,cs),
(150,0,l),
(150,150,l)
);
}
);
width = 600;
},
{
anchors = (
{
name = bottom;
pos = (300,-541);
},
{
name = top;
pos = (300,1158);
}
);
layerId = "9BAD4174-69FD-4AED-8503-BDDB7C515042";
shapes = (
{
ref = s;
},
{
attr = {
lineCapEnd = "1";
lineCapStart = "1";
strokeWidth = 50;
};
closed = 0;
nodes = (
(300,-300,ls),
(219,-300,o),
(150,-232,o),
(150,-150,cs),
(150,0,l),
(150,150,l)
);
}
);
width = 600;
}
);
unicode = 642;
},
{
glyphname = t;
lastChange = "2021-05-13 07:11:52 +0000";
layers = (
{
anchors = (
{
name = bottom;
pos = (300,-386);
},
{
name = top;
pos = (300,1544);
}
);
layerId = m01;
shapes = (
{
attr = {
lineCapEnd = 1;
lineCapStart = 1;
strokeWidth = 5;
};
closed = 0;
nodes = (
(450,150,l),
(450,68,o),
(383,1,o),
(300,0,cs),
(216,0,o),
(150,66,o),
(150,150,cs),
(150,386,l),
(150,622,l),
(150,772,l),
(150,922,l),
(150,1158,l)
);
},
{
attr = {
lineCapEnd = 1;
lineCapStart = 1;
strokeWidth = 5;
};
closed = 0;
nodes = (
(150,386,l)
);
},
{
attr = {
lineCapEnd = 1;
lineCapStart = 1;
strokeWidth = 5;
};
closed = 0;
nodes = (
(450,772,l),
(300,772,l),
(150,772,l)
);
}
);
width = 600;
},
{
anchors = (
{
name = bottom;
pos = (300,-386);
},
{
name = top;
pos = (300,1544);
}
);
layerId = "9BAD4174-69FD-4AED-8503-BDDB7C515042";
shapes = (
{
attr = {
lineCapEnd = 1;
lineCapStart = 1;
strokeWidth = 50;
};
closed = 0;
nodes = (
(450,150,l),
(450,68,o),
(383,1,o),
(300,0,cs),
(216,0,o),
(150,66,o),
(150,150,cs),
(150,386,l),
(150,622,l),
(150,772,l),
(150,922,l),
(150,1158,l)
);
},
{
attr = {
lineCapEnd = 1;
lineCapStart = 1;
strokeWidth = 50;
};
closed = 0;
nodes = (
(150,386,l)
);
},
{
attr = {
lineCapEnd = 1;
lineCapStart = 1;
strokeWidth = 50;
};
closed = 0;
nodes = (
(450,772,l),
(300,772,l),
(150,772,l)
);
}
);
width = 600;
}
);
unicode = 116;
},
{
glyphname = thook;
lastChange = "2021-05-13 07:11:52 +0000";
layers = (
{
anchors = (
{
name = bottom;
pos = (300,-386);
},
{
name = top;
pos = (300,1844);
}
);
layerId = m01;
shapes = (
{
ref = t;
},
{
attr = {
lineCapEnd = 1;
lineCapStart = 1;
strokeWidth = 5;
};
closed = 0;
nodes = (
(150,1158,l),
(150,1394,ls),
(150,1476,o),
(217,1544,o),
(300,1544,cs)
);
}
);
width = 600;
},
{
anchors = (
{
name = bottom;
pos = (300,-386);
},
{
name = top;
pos = (300,1844);
}
);
layerId = "9BAD4174-69FD-4AED-8503-BDDB7C515042";
shapes = (
{
ref = t;
},
{
attr = {
lineCapEnd = 1;
lineCapStart = 1;
strokeWidth = 50;
};
closed = 0;
nodes = (
(150,1158,l),
(150,1394,ls),
(150,1476,o),
(217,1544,o),
(300,1544,cs)
);
}
);
width = 600;
}
);
unicode = 429;
},
{
glyphname = tretroflexhook;
lastChange = "2021-05-13 07:11:52 +0000";
layers = (
{
anchors = (
{
name = bottom;
pos = (299,-1072);
},
{
name = top;
pos = (300,1544);
}
);
layerId = m01;
shapes = (
{
attr = {
lineCapEnd = 1;
lineCapStart = 1;
strokeWidth = 5;
};
closed = 0;
nodes = (
(150,386,l)
);
},
{
attr = {
lineCapEnd = 1;
lineCapStart = 1;
strokeWidth = 5;
};
closed = 0;
nodes = (
(450,772,l),
(300,772,l),
(150,772,l)
);
},
{
attr = {
lineCapEnd = 1;
lineCapStart = 1;
strokeWidth = 5;
};
closed = 0;
nodes = (
(150,1158,l),
(150,922,l),
(150,772,l),
(150,622,l),
(150,386,l),
(150,150,l),
(150,0,l),
(150,-150,l),
(150,-386,l),
(150,-622,l)
);
},
{
attr = {
lineCapEnd = 1;
lineCapStart = 1;
strokeWidth = 5;
};
closed = 0;
nodes = (
(450,-622,ls),
(450,-704,o),
(383,-771,o),
(300,-772,cs),
(217,-772,o),
(150,-705,o),
(150,-622,cs)
);
}
);
width = 600;
},
{
anchors = (
{
name = bottom;
pos = (299,-1072);
},
{
name = top;
pos = (300,1544);
}
);
layerId = "9BAD4174-69FD-4AED-8503-BDDB7C515042";
shapes = (
{
attr = {
lineCapEnd = 1;
lineCapStart = 1;
strokeWidth = 50;
};
closed = 0;
nodes = (
(150,386,l)
);
},
{
attr = {
lineCapEnd = 1;
lineCapStart = 1;
strokeWidth = 50;
};
closed = 0;
nodes = (
(450,772,l),
(300,772,l),
(150,772,l)
);
},
{
attr = {
lineCapEnd = 1;
lineCapStart = 1;
strokeWidth = 50;
};
closed = 0;
nodes = (
(150,1158,l),
(150,922,l),
(150,772,l),
(150,622,l),
(150,386,l),
(150,150,l),
(150,0,l),
(150,-150,l),
(150,-386,l),
(150,-622,l)
);
},
{
attr = {
lineCapEnd = 1;
lineCapStart = 1;
strokeWidth = 50;
};
closed = 0;
nodes = (
(450,-622,ls),
(450,-704,o),
(383,-771,o),
(300,-772,cs),
(217,-772,o),
(150,-705,o),
(150,-622,cs)
);
}
);
width = 600;
}
);
unicode = 648;
},
{
glyphname = u;
lastChange = "2021-05-13 07:11:52 +0000";
layers = (
{
anchors = (
{
name = bottom;
pos = (300,-386);
},
{
name = top;
pos = (300,1158);
}
);
layerId = m01;
shapes = (
{
attr = {
lineCapEnd = 1;
lineCapStart = 1;
strokeWidth = 5;
};
closed = 0;
nodes = (
(450,150,l),
(450,68,o),
(383,1,o),
(300,0,cs),
(216,0,o),
(150,66,o),
(150,150,cs),
(150,386,l),
(150,622,l),
(150,772,l)
);
},
{
attr = {
lineCapEnd = 1;
lineCapStart = "1";
strokeWidth = 5;
};
closed = 0;
nodes = (
(150,386,l)
);
},
{
attr = {
lineCapEnd = 1;
lineCapStart = 1;
strokeWidth = 5;
};
closed = 0;
nodes = (
(450,0,l),
(450,150,l),
(450,386,l),
(450,622,l),
(450,772,l)
);
}
);
width = 600;
},
{
anchors = (
{
name = bottom;
pos = (300,-386);
},
{
name = top;
pos = (300,1158);
}
);
layerId = "9BAD4174-69FD-4AED-8503-BDDB7C515042";
shapes = (
{
attr = {
lineCapEnd = 1;
lineCapStart = 1;
strokeWidth = 50;
};
closed = 0;
nodes = (
(450,150,l),
(450,68,o),
(383,1,o),
(300,0,cs),
(216,0,o),
(150,66,o),
(150,150,cs),
(150,386,l),
(150,622,l),
(150,772,l)
);
},
{
attr = {
lineCapEnd = 1;
lineCapStart = "1";
strokeWidth = 50;
};
closed = 0;
nodes = (
(150,386,l)
);
},
{
attr = {
lineCapEnd = 1;
lineCapStart = 1;
strokeWidth = 50;
};
closed = 0;
nodes = (
(450,0,l),
(450,150,l),
(450,386,l),
(450,622,l),
(450,772,l)
);
}
);
width = 600;
}
);
unicode = 117;
},
{
glyphname = "upsilon-latin";
lastChange = "2021-05-13 07:11:52 +0000";
layers = (
{
anchors = (
{
name = bottom;
pos = (375,-386);
},
{
name = top;
pos = (375,1158);
}
);
layerId = m01;
shapes = (
{
attr = {
lineCapEnd = 1;
lineCapStart = 1;
strokeWidth = 5;
};
closed = 0;
nodes = (
(75,772,l),
(225,772,l),
(225,622,l),
(225,386,l),
(225,150,ls),
(225,64,o),
(292,0,o),
(375,0,cs),
(460,1,o),
(525,67,o),
(525,150,cs),
(525,386,l),
(525,622,l),
(525,772,l),
(675,772,l)
);
}
);
width = 750;
},
{
anchors = (
{
name = bottom;
pos = (375,-386);
},
{
name = top;
pos = (375,1158);
}
);
layerId = "9BAD4174-69FD-4AED-8503-BDDB7C515042";
shapes = (
{
attr = {
lineCapEnd = 1;
lineCapStart = 1;
strokeWidth = 50;
};
closed = 0;
nodes = (
(75,772,l),
(225,772,l),
(225,622,l),
(225,386,l),
(225,150,ls),
(225,64,o),
(292,0,o),
(375,0,cs),
(460,1,o),
(525,67,o),
(525,150,cs),
(525,386,l),
(525,622,l),
(525,772,l),
(675,772,l)
);
}
);
width = 750;
}
);
unicode = 650;
},
{
glyphname = v;
lastChange = "2021-05-13 07:11:52 +0000";
layers = (
{
anchors = (
{
name = bottom;
pos = (300,-386);
},
{
name = top;
pos = (300,1158);
}
);
layerId = m01;
shapes = (
{
attr = {
lineCapEnd = 1;
lineCapStart = 1;
strokeWidth = 5;
};
closed = 0;
nodes = (
(150,772,l),
(150,622,l),
(150,386,l),
(150,150,l),
(150,0,l),
(300,0,ls),
(385,1,o),
(450,67,o),
(450,150,cs),
(450,386,l),
(450,622,l),
(450,772,l)
);
},
{
attr = {
lineCapEnd = 1;
lineCapStart = "1";
strokeWidth = 5;
};
closed = 0;
nodes = (
(150,386,l)
);
}
);
width = 600;
},
{
anchors = (
{
name = bottom;
pos = (300,-386);
},
{
name = top;
pos = (300,1158);
}
);
layerId = "9BAD4174-69FD-4AED-8503-BDDB7C515042";
shapes = (
{
attr = {
lineCapEnd = 1;
lineCapStart = 1;
strokeWidth = 50;
};
closed = 0;
nodes = (
(150,772,l),
(150,622,l),
(150,386,l),
(150,150,l),
(150,0,l),
(300,0,ls),
(385,1,o),
(450,67,o),
(450,150,cs),
(450,386,l),
(450,622,l),
(450,772,l)
);
},
{
attr = {
lineCapEnd = 1;
lineCapStart = "1";
strokeWidth = 50;
};
closed = 0;
nodes = (
(150,386,l)
);
}
);
width = 600;
}
);
unicode = 118;
},
{
glyphname = vhook;
lastChange = "2021-05-13 07:11:52 +0000";
layers = (
{
anchors = (
{
name = bottom;
pos = (300,-386);
},
{
name = top;
pos = (300,1158);
}
);
layerId = m01;
shapes = (
{
attr = {
lineCapEnd = "1";
lineCapStart = "1";
strokeWidth = 5;
};
closed = 0;
nodes = (
(150,772,l),
(150,622,l),
(150,386,l),
(150,150,l),
(150,0,l),
(300,0,ls),
(385,0,o),
(450,67,o),
(450,150,cs),
(450,386,l),
(450,622,ls),
(450,705,o),
(383,772,o),
(300,772,cs)
);
},
{
attr = {
lineCapEnd = "1";
lineCapStart = "1";
strokeWidth = 5;
};
closed = 0;
nodes = (
(150,386,l)
);
}
);
width = 600;
},
{
anchors = (
{
name = bottom;
pos = (300,-386);
},
{
name = top;
pos = (300,1158);
}
);
layerId = "9BAD4174-69FD-4AED-8503-BDDB7C515042";
shapes = (
{
attr = {
lineCapEnd = "1";
lineCapStart = "1";
strokeWidth = 50;
};
closed = 0;
nodes = (
(150,772,l),
(150,622,l),
(150,386,l),
(150,150,l),
(150,0,l),
(300,0,ls),
(385,0,o),
(450,67,o),
(450,150,cs),
(450,386,l),
(450,622,ls),
(450,705,o),
(383,772,o),
(300,772,cs)
);
},
{
attr = {
lineCapEnd = "1";
lineCapStart = "1";
strokeWidth = 50;
};
closed = 0;
nodes = (
(150,386,l)
);
}
);
width = 600;
}
);
unicode = 651;
},
{
glyphname = w;
lastChange = "2021-05-13 07:11:52 +0000";
layers = (
{
anchors = (
{
name = bottom;
pos = (450,-386);
},
{
name = top;
pos = (450,1158);
}
);
layerId = m01;
shapes = (
{
attr = {
lineCapEnd = "1";
lineCapStart = "1";
strokeWidth = 5;
};
closed = 0;
nodes = (
(750,772,l),
(750,622,l),
(750,386,l),
(750,150,ls),
(750,67,o),
(682,0,o),
(600,0,cs),
(517,0,o),
(450,68,o),
(450,150,cs),
(450,386,l),
(450,622,l),
(450,622,l),
(450,386,l),
(450,150,ls),
(450,67,o),
(382,0,o),
(300,0,cs),
(216,0,o),
(150,68,o),
(150,150,cs),
(150,386,l),
(150,622,l),
(150,772,l)
);
},
{
attr = {
lineCapEnd = "1";
lineCapStart = "1";
strokeWidth = 5;
};
closed = 0;
nodes = (
(150,150,l)
);
},
{
attr = {
lineCapEnd = 1;
lineCapStart = 1;
strokeWidth = 5;
};
closed = 0;
nodes = (
(450,622,l),
(450,772,l)
);
}
);
width = 900;
},
{
anchors = (
{
name = bottom;
pos = (450,-386);
},
{
name = top;
pos = (450,1158);
}
);
layerId = "9BAD4174-69FD-4AED-8503-BDDB7C515042";
shapes = (
{
attr = {
lineCapEnd = "1";
lineCapStart = "1";
strokeWidth = 50;
};
closed = 0;
nodes = (
(750,772,l),
(750,622,l),
(750,386,l),
(750,150,ls),
(750,67,o),
(682,0,o),
(600,0,cs),
(517,0,o),
(450,68,o),
(450,150,cs),
(450,386,l),
(450,622,l),
(450,622,l),
(450,386,l),
(450,150,ls),
(450,67,o),
(382,0,o),
(300,0,cs),
(216,0,o),
(150,68,o),
(150,150,cs),
(150,386,l),
(150,622,l),
(150,772,l)
);
},
{
attr = {
lineCapEnd = "1";
lineCapStart = "1";
strokeWidth = 50;
};
closed = 0;
nodes = (
(150,150,l)
);
},
{
attr = {
lineCapEnd = 1;
lineCapStart = 1;
strokeWidth = 50;
};
closed = 0;
nodes = (
(450,622,l),
(450,772,l)
);
}
);
width = 900;
}
);
unicode = 119;
},
{
glyphname = wturned;
lastChange = "2021-05-13 07:11:52 +0000";
layers = (
{
anchors = (
{
name = bottom;
pos = (450,-386);
},
{
name = top;
pos = (450,1158);
}
);
layerId = m01;
shapes = (
{
attr = {
lineCapEnd = "1";
lineCapStart = "1";
strokeWidth = 5;
};
closed = 0;
nodes = (
(150,0,l),
(150,150,l),
(150,386,l),
(150,622,ls),
(150,704,o),
(216,772,o),
(300,772,cs),
(382,772,o),
(450,705,o),
(450,622,cs),
(450,386,l),
(450,150,l),
(450,0,l),
(450,150,l),
(450,386,l),
(450,622,ls),
(450,704,o),
(517,772,o),
(600,772,cs),
(682,772,o),
(750,705,o),
(750,622,cs),
(750,386,l),
(750,150,l),
(750,0,l)
);
},
{
attr = {
lineCapEnd = "1";
lineCapStart = "1";
strokeWidth = 5;
};
closed = 0;
nodes = (
(150,622,l)
);
}
);
width = 900;
},
{
anchors = (
{
name = bottom;
pos = (450,-386);
},
{
name = top;
pos = (450,1158);
}
);
layerId = "9BAD4174-69FD-4AED-8503-BDDB7C515042";
shapes = (
{
attr = {
lineCapEnd = "1";
lineCapStart = "1";
strokeWidth = 50;
};
closed = 0;
nodes = (
(150,0,l),
(150,150,l),
(150,386,l),
(150,622,ls),
(150,704,o),
(216,772,o),
(300,772,cs),
(382,772,o),
(450,705,o),
(450,622,cs),
(450,386,l),
(450,150,l),
(450,0,l),
(450,150,l),
(450,386,l),
(450,622,ls),
(450,704,o),
(517,772,o),
(600,772,cs),
(682,772,o),
(750,705,o),
(750,622,cs),
(750,386,l),
(750,150,l),
(750,0,l)
);
},
{
attr = {
lineCapEnd = "1";
lineCapStart = "1";
strokeWidth = 50;
};
closed = 0;
nodes = (
(150,622,l)
);
}
);
width = 900;
}
);
unicode = 653;
},
{
glyphname = x;
lastChange = "2021-05-13 07:11:52 +0000";
layers = (
{
anchors = (
{
name = bottom;
pos = (450,-386);
},
{
name = top;
pos = (450,1158);
}
);
layerId = m01;
shapes = (
{
attr = {
lineCapEnd = 1;
lineCapStart = 1;
strokeWidth = 5;
};
closed = 0;
nodes = (
(150,622,ls),
(150,706,o),
(217,772,o),
(300,772,cs),
(383,771,o),
(450,706,o),
(450,622,cs),
(450,386,l),
(450,150,ls),
(450,68,o),
(518,0,o),
(600,0,cs),
(683,0,o),
(750,68,o),
(750,150,c)
);
},
{
attr = {
lineCapEnd = 1;
lineCapStart = 1;
strokeWidth = 5;
};
closed = 0;
nodes = (
(150,150,l),
(150,68,o),
(217,0,o),
(300,0,cs),
(382,0,o),
(450,68,o),
(450,150,cs),
(450,386,l),
(450,622,ls),
(450,706,o),
(517,771,o),
(600,772,cs),
(683,772,o),
(750,706,o),
(750,622,cs)
);
}
);
width = 900;
},
{
anchors = (
{
name = bottom;
pos = (450,-386);
},
{
name = top;
pos = (450,1158);
}
);
layerId = "9BAD4174-69FD-4AED-8503-BDDB7C515042";
shapes = (
{
attr = {
lineCapEnd = 1;
lineCapStart = 1;
strokeWidth = 50;
};
closed = 0;
nodes = (
(150,622,ls),
(150,706,o),
(217,772,o),
(300,772,cs),
(383,771,o),
(450,706,o),
(450,622,cs),
(450,386,l),
(450,150,ls),
(450,68,o),
(518,0,o),
(600,0,cs),
(683,0,o),
(750,68,o),
(750,150,c)
);
},
{
attr = {
lineCapEnd = 1;
lineCapStart = 1;
strokeWidth = 50;
};
closed = 0;
nodes = (
(150,150,l),
(150,68,o),
(217,0,o),
(300,0,cs),
(382,0,o),
(450,68,o),
(450,150,cs),
(450,386,l),
(450,622,ls),
(450,706,o),
(517,771,o),
(600,772,cs),
(683,772,o),
(750,706,o),
(750,622,cs)
);
}
);
width = 900;
}
);
unicode = 120;
},
{
glyphname = y;
lastChange = "2021-05-13 07:11:52 +0000";
layers = (
{
anchors = (
{
name = bottom;
pos = (300,-1072);
},
{
name = top;
pos = (300,1158);
}
);
layerId = m01;
shapes = (
{
attr = {
lineCapEnd = 1;
lineCapStart = 1;
strokeWidth = 5;
};
closed = 0;
nodes = (
(450,150,l),
(450,0,l),
(450,-150,l),
(450,-386,l),
(450,-622,ls),
(450,-704,o),
(383,-771,o),
(300,-772,cs),
(217,-772,o),
(150,-705,o),
(150,-622,cs)
);
},
{
attr = {
lineCapEnd = 1;
lineCapStart = 1;
strokeWidth = 5;
};
closed = 0;
nodes = (
(150,772,l),
(150,622,l),
(150,386,l),
(150,150,ls),
(150,66,o),
(217,0,o),
(300,0,cs),
(383,0,o),
(450,66,o),
(450,150,cs),
(450,386,l),
(450,622,l),
(450,772,l)
);
}
);
width = 600;
},
{
anchors = (
{
name = bottom;
pos = (300,-1072);
},
{
name = top;
pos = (300,1158);
}
);
layerId = "9BAD4174-69FD-4AED-8503-BDDB7C515042";
shapes = (
{
attr = {
lineCapEnd = 1;
lineCapStart = 1;
strokeWidth = 50;
};
closed = 0;
nodes = (
(450,150,l),
(450,0,l),
(450,-150,l),
(450,-386,l),
(450,-622,ls),
(450,-704,o),
(383,-771,o),
(300,-772,cs),
(217,-772,o),
(150,-705,o),
(150,-622,cs)
);
},
{
attr = {
lineCapEnd = 1;
lineCapStart = 1;
strokeWidth = 50;
};
closed = 0;
nodes = (
(150,772,l),
(150,622,l),
(150,386,l),
(150,150,ls),
(150,66,o),
(217,0,o),
(300,0,cs),
(383,0,o),
(450,66,o),
(450,150,cs),
(450,386,l),
(450,622,l),
(450,772,l)
);
}
);
width = 600;
}
);
unicode = 121;
},
{
glyphname = z;
lastChange = "2021-05-13 07:11:52 +0000";
layers = (
{
anchors = (
{
name = bottom;
pos = (300,-386);
},
{
name = top;
pos = (300,1158);
}
);
layerId = m01;
shapes = (
{
attr = {
lineCapEnd = 1;
lineCapStart = 1;
strokeWidth = 5;
};
closed = 0;
nodes = (
(300,0,ls),
(217,0,o),
(150,66,o),
(150,150,cs),
(150,300,o),
(450,472,o),
(450,622,cs),
(450,705,o),
(381,772,o),
(300,772,cs)
);
},
{
attr = {
lineCapEnd = 1;
lineCapStart = 1;
strokeWidth = 5;
};
closed = 0;
nodes = (
(300,772,l),
(150,772,l)
);
},
{
attr = {
lineCapEnd = 1;
lineCapStart = 1;
strokeWidth = 5;
};
closed = 0;
nodes = (
(300,0,l),
(450,0,l)
);
}
);
width = 600;
},
{
anchors = (
{
name = bottom;
pos = (300,-386);
},
{
name = top;
pos = (300,1158);
}
);
layerId = "9BAD4174-69FD-4AED-8503-BDDB7C515042";
shapes = (
{
attr = {
lineCapEnd = 1;
lineCapStart = 1;
strokeWidth = 50;
};
closed = 0;
nodes = (
(300,0,ls),
(217,0,o),
(150,66,o),
(150,150,cs),
(150,300,o),
(450,472,o),
(450,622,cs),
(450,705,o),
(381,772,o),
(300,772,cs)
);
},
{
attr = {
lineCapEnd = 1;
lineCapStart = 1;
strokeWidth = 50;
};
closed = 0;
nodes = (
(300,772,l),
(150,772,l)
);
},
{
attr = {
lineCapEnd = 1;
lineCapStart = 1;
strokeWidth = 50;
};
closed = 0;
nodes = (
(300,0,l),
(450,0,l)
);
}
);
width = 600;
}
);
unicode = 122;
},
{
glyphname = zcurl;
lastChange = "2021-05-13 07:11:52 +0000";
layers = (
{
anchors = (
{
name = bottom;
pos = (300,-386);
},
{
name = top;
pos = (300,1158);
}
);
layerId = m01;
shapes = (
{
attr = {
lineCapEnd = 1;
lineCapStart = 1;
strokeWidth = 5;
};
closed = 0;
nodes = (
(300,772,l),
(150,772,l)
);
},
{
attr = {
lineCapEnd = 1;
lineCapStart = 1;
strokeWidth = 5;
};
closed = 0;
nodes = (
(300,0,l)
);
},
{
attr = {
lineCapEnd = "1";
lineCapStart = "1";
strokeWidth = 5;
};
closed = 0;
nodes = (
(393,-89,l),
(376,-68,o),
(357,-48,o),
(338,-27,cs),
(281,33,o),
(225,93,o),
(225,150,cs),
(225,212,o),
(275,262,o),
(338,262,cs),
(401,261,o),
(450,212,o),
(450,150,cs),
(450,67,o),
(385,1,o),
(300,0,cs),
(217,0,o),
(150,66,o),
(150,150,cs),
(150,300,o),
(450,472,o),
(450,622,cs),
(450,705,o),
(381,772,o),
(300,772,cs)
);
}
);
width = 600;
},
{
anchors = (
{
name = bottom;
pos = (300,-386);
},
{
name = top;
pos = (300,1158);
}
);
layerId = "9BAD4174-69FD-4AED-8503-BDDB7C515042";
shapes = (
{
attr = {
lineCapEnd = 1;
lineCapStart = 1;
strokeWidth = 50;
};
closed = 0;
nodes = (
(300,772,l),
(150,772,l)
);
},
{
attr = {
lineCapEnd = 1;
lineCapStart = 1;
strokeWidth = 50;
};
closed = 0;
nodes = (
(300,0,l)
);
},
{
attr = {
lineCapEnd = "1";
lineCapStart = "1";
strokeWidth = 50;
};
closed = 0;
nodes = (
(393,-89,l),
(376,-68,o),
(357,-48,o),
(338,-27,cs),
(281,33,o),
(225,93,o),
(225,150,cs),
(225,212,o),
(275,262,o),
(338,262,cs),
(401,261,o),
(450,212,o),
(450,150,cs),
(450,67,o),
(385,1,o),
(300,0,cs),
(217,0,o),
(150,66,o),
(150,150,cs),
(150,300,o),
(450,472,o),
(450,622,cs),
(450,705,o),
(381,772,o),
(300,772,cs)
);
}
);
width = 600;
}
);
unicode = 657;
},
